{"glyphs":{"0":{"ha":743,"x_min":81,"x_max":661,"o":"m 661 429 q 568 115 661 247 q 325 -17 475 -17 q 139 70 196 -17 q 81 276 81 157 q 174 591 81 460 q 417 722 267 722 q 606 632 551 722 q 661 429 661 542 m 548 404 q 512 564 548 497 q 395 631 476 631 q 249 535 304 631 q 193 298 193 439 q 234 132 193 189 q 348 74 275 74 q 491 167 435 74 q 548 404 548 260 z "},"1":{"ha":473,"x_min":61,"x_max":378,"o":"m 304 0 l 184 0 q 222 296 205 143 q 241 545 239 460 l 85 468 l 61 527 l 312 707 l 378 707 q 330 296 349 488 q 304 0 314 152 z "},"2":{"ha":600,"x_min":27,"x_max":519,"o":"m 519 96 l 494 0 l 27 0 l 52 105 q 272 259 144 153 q 399 499 399 365 q 231 623 399 623 q 100 614 186 623 l 123 708 q 256 722 174 722 q 458 664 399 722 q 516 534 516 607 q 484 395 516 463 q 371 254 451 328 q 156 93 290 180 l 155 87 q 519 96 339 87 z "},"3":{"ha":644,"x_min":0,"x_max":563,"o":"m 563 555 q 381 348 563 412 l 380 340 q 512 264 465 323 q 559 121 559 205 q 388 -160 559 -62 q 9 -270 217 -258 l 0 -188 q 297 -98 159 -171 q 435 101 435 -25 q 138 265 435 265 l 161 349 q 359 391 263 349 q 455 515 455 432 q 267 623 455 623 q 129 610 189 623 l 149 703 q 342 722 227 722 q 510 673 457 722 q 563 555 563 625 z "},"4":{"ha":692,"x_min":27,"x_max":631,"o":"m 631 213 l 606 103 l 496 103 q 469 -224 483 -24 l 353 -224 q 393 103 377 -49 l 32 103 l 27 192 q 229 457 29 209 q 429 715 428 705 l 568 715 q 507 205 545 568 q 631 213 565 205 m 453 618 l 448 618 q 291 409 447 600 q 134 207 135 218 l 134 201 q 404 205 243 201 q 453 618 433 414 z "},"5":{"ha":637,"x_min":27,"x_max":555,"o":"m 555 715 l 540 608 q 232 626 411 626 q 191 385 218 574 q 554 149 554 385 q 394 -134 554 -29 q 37 -248 234 -239 l 27 -165 q 310 -82 189 -152 q 431 118 431 -12 q 353 254 431 216 q 78 292 275 292 q 160 715 113 435 l 555 715 z "},"6":{"ha":721,"x_min":68,"x_max":640,"o":"m 640 297 q 549 64 640 158 q 317 -29 458 -29 q 140 51 212 -29 q 68 283 68 131 q 198 721 68 549 q 584 911 329 894 l 587 829 q 330 724 417 811 q 201 464 242 637 l 208 464 q 421 552 279 552 q 583 476 526 552 q 640 297 640 401 m 522 280 q 475 410 522 357 q 340 464 429 464 q 193 399 243 464 q 189 307 189 361 q 229 121 189 181 q 330 62 269 62 q 469 128 415 62 q 522 280 522 194 z "},"7":{"ha":625,"x_min":34,"x_max":605,"o":"m 605 715 q 374 194 592 555 q 151 -224 156 -167 l 34 -210 q 255 195 40 -138 q 478 621 470 528 q 71 604 340 621 l 87 715 l 605 715 z "},"8":{"ha":729,"x_min":68,"x_max":648,"o":"m 648 743 q 601 610 648 670 q 484 522 555 551 l 484 514 q 644 271 644 414 q 550 64 644 143 q 326 -14 456 -14 q 144 48 220 -14 q 68 217 68 110 q 281 493 68 402 l 281 500 q 169 699 169 578 q 247 865 169 804 q 432 926 324 926 q 584 876 520 926 q 648 743 648 826 m 534 251 q 358 463 534 367 q 228 373 281 436 q 176 233 176 311 q 223 116 176 157 q 340 76 271 76 q 477 124 419 76 q 534 251 534 173 m 544 731 q 507 819 544 788 q 419 849 471 849 q 317 813 359 849 q 274 719 274 777 q 408 548 274 619 q 544 731 544 608 z "},"9":{"ha":715,"x_min":68,"x_max":634,"o":"m 634 399 q 499 -67 634 123 q 99 -275 364 -257 l 87 -192 q 503 233 435 -167 l 497 233 q 284 138 422 138 q 124 211 180 138 q 68 387 68 283 q 156 624 68 526 q 385 722 245 722 q 562 639 490 722 q 634 399 634 556 m 516 380 q 472 565 516 503 q 365 628 429 628 q 235 562 283 628 q 186 412 186 496 q 229 280 186 334 q 355 226 273 226 q 512 304 452 226 q 516 380 516 343 z "},"\u0000":{"ha":286,"x_min":0,"x_max":0,"o":""},"\r":{"ha":301,"x_min":0,"x_max":0,"o":""}," ":{"ha":286,"x_min":0,"x_max":0,"o":""},"A":{"ha":836,"x_min":-27,"x_max":772,"o":"m 772 0 l 637 0 q 585 286 637 66 l 213 286 q 161 169 183 221 q 103 0 108 43 l -27 0 q 186 434 -24 20 q 398 883 394 845 l 547 883 q 660 440 547 822 q 772 0 772 58 m 564 374 q 457 798 457 766 l 451 798 q 249 374 449 777 l 564 374 z "},"B":{"ha":758,"x_min":60,"x_max":691,"o":"m 691 286 q 572 66 691 137 q 269 -4 453 -4 q 60 0 219 -4 q 117 464 74 96 q 145 883 142 703 l 229 883 q 327 885 252 883 q 433 887 403 887 q 614 839 545 887 q 682 703 682 791 q 642 572 682 631 q 532 490 600 510 l 532 484 q 644 421 597 471 q 691 286 691 370 m 580 279 q 315 425 580 425 q 211 420 264 425 q 184 97 192 239 q 303 91 221 91 q 500 130 420 91 q 580 279 580 169 m 570 677 q 405 799 570 799 q 245 789 315 799 q 220 513 245 773 q 302 511 264 511 q 480 536 420 511 q 570 677 570 575 z "},"C":{"ha":685,"x_min":47,"x_max":680,"o":"m 680 877 l 650 769 q 522 793 580 793 q 262 678 359 793 q 165 398 165 562 q 245 171 165 264 q 478 79 326 79 q 644 108 541 79 l 625 7 q 449 -18 511 -18 q 148 99 248 -18 q 47 385 47 217 q 194 748 47 601 q 560 895 340 895 q 680 877 618 895 z "},"D":{"ha":821,"x_min":60,"x_max":774,"o":"m 774 503 q 635 141 774 291 q 281 -9 496 -9 q 60 0 214 -9 q 117 464 74 96 q 145 883 142 703 l 222 883 q 301 885 248 883 q 383 887 354 887 q 676 775 579 887 q 774 503 774 663 m 659 489 q 578 708 659 621 q 332 795 498 795 q 247 789 292 795 q 216 464 241 716 q 184 92 197 281 q 283 81 234 81 q 557 199 455 81 q 659 489 659 317 z "},"E":{"ha":669,"x_min":60,"x_max":639,"o":"m 639 883 l 623 782 q 250 790 448 790 q 231 570 248 754 l 224 506 q 530 514 395 506 l 518 413 q 214 419 377 419 q 184 92 196 245 q 595 102 399 92 l 578 0 l 60 0 q 117 464 74 96 q 146 883 142 703 l 639 883 z "},"F":{"ha":631,"x_min":60,"x_max":647,"o":"m 647 883 l 633 782 q 248 790 465 790 q 221 479 242 707 q 517 485 372 479 l 505 387 q 212 392 368 392 q 178 0 184 127 l 60 0 q 119 464 75 96 q 146 883 144 703 l 647 883 z "},"G":{"ha":789,"x_min":47,"x_max":722,"o":"m 722 876 l 694 763 q 524 790 584 790 q 264 676 363 790 q 165 401 165 563 q 249 169 165 264 q 486 74 332 74 q 588 84 524 74 q 587 120 587 99 q 594 261 587 168 q 602 402 602 355 l 718 402 q 693 213 711 361 q 684 18 688 170 q 454 -18 568 -18 q 150 100 252 -18 q 47 387 47 218 q 196 748 47 601 q 563 895 344 895 q 722 876 652 895 z "},"H":{"ha":831,"x_min":60,"x_max":771,"o":"m 771 883 q 717 464 757 798 q 684 0 692 227 l 555 0 q 606 420 570 111 l 220 420 q 189 0 205 270 l 60 0 q 118 464 77 115 q 146 883 142 690 l 275 883 q 227 506 262 793 l 617 506 q 641 883 633 653 l 771 883 z "},"I":{"ha":335,"x_min":60,"x_max":275,"o":"m 275 883 q 222 464 262 800 q 192 49 200 250 l 190 0 l 60 0 q 119 464 75 100 q 145 883 144 704 l 275 883 z "},"J":{"ha":533,"x_min":-32,"x_max":490,"o":"m 490 883 q 427 378 475 792 q 302 56 403 149 q 79 -18 223 -18 q -32 -4 16 -18 l -12 95 q 75 73 32 73 q 223 113 174 73 q 321 363 302 177 q 359 883 354 670 l 490 883 z "},"K":{"ha":764,"x_min":60,"x_max":734,"o":"m 734 883 q 581 709 734 863 q 357 506 429 556 l 355 498 q 572 239 427 468 q 705 0 705 28 l 572 0 q 512 121 572 12 q 371 345 443 248 q 253 443 298 443 l 220 443 q 186 0 203 284 l 60 0 q 117 464 74 96 q 145 883 142 703 l 274 883 q 229 517 262 800 l 243 517 q 439 692 273 517 q 602 883 602 863 l 734 883 z "},"L":{"ha":631,"x_min":60,"x_max":583,"o":"m 583 100 l 567 0 l 60 0 q 117 464 72 72 q 147 883 144 718 l 273 883 q 221 464 263 825 q 178 92 197 232 q 583 100 335 92 z "},"M":{"ha":1081,"x_min":30,"x_max":981,"o":"m 971 0 l 843 0 q 877 787 843 357 l 869 787 q 824 667 863 766 q 660 311 786 568 q 528 0 534 54 l 438 0 q 369 362 438 69 q 293 700 300 656 q 281 787 286 744 l 274 787 q 202 355 261 683 q 143 0 143 27 l 30 0 q 114 399 30 24 q 210 883 198 774 l 372 883 q 440 509 372 777 q 509 149 509 241 l 515 149 q 665 520 523 221 q 814 883 808 819 l 981 883 q 959 387 959 690 q 971 0 959 149 z "},"N":{"ha":844,"x_min":52,"x_max":792,"o":"m 792 883 q 739 464 779 802 q 699 0 713 220 l 608 0 q 425 350 608 24 q 216 768 235 688 l 209 768 q 213 685 213 739 q 199 460 213 589 q 160 0 176 232 l 52 0 q 111 464 68 101 q 138 883 136 703 l 269 883 q 437 545 269 843 q 631 149 614 235 l 636 149 q 632 212 632 174 q 646 457 632 321 q 675 883 673 708 l 792 883 z "},"O":{"ha":894,"x_min":47,"x_max":846,"o":"m 846 505 q 716 134 846 294 q 389 -26 587 -26 q 149 82 251 -26 q 47 370 47 191 q 178 743 47 585 q 505 901 309 901 q 744 792 642 901 q 846 505 846 684 m 730 498 q 655 725 730 644 q 477 806 580 806 q 250 676 335 806 q 165 376 165 545 q 240 150 165 232 q 418 68 315 68 q 644 200 557 68 q 730 498 730 332 z "},"P":{"ha":727,"x_min":60,"x_max":697,"o":"m 697 673 q 574 433 697 511 q 265 356 450 356 q 211 357 228 356 q 191 0 194 198 l 60 0 q 118 464 73 85 q 146 883 142 697 l 244 883 q 330 885 259 883 q 449 887 400 887 q 630 826 562 887 q 697 673 697 765 m 585 647 q 376 799 585 799 q 253 789 321 799 l 219 444 q 274 443 241 443 q 585 647 585 443 z "},"Q":{"ha":894,"x_min":47,"x_max":845,"o":"m 845 506 q 775 223 845 353 q 576 24 706 94 l 576 17 q 725 -55 683 6 q 786 -294 768 -116 l 664 -300 q 596 -71 643 -115 q 388 -26 550 -26 q 150 82 252 -26 q 47 370 47 190 q 175 738 47 575 q 505 901 302 901 q 743 793 642 901 q 845 506 845 686 m 730 498 q 655 725 730 644 q 477 806 580 806 q 250 676 335 806 q 165 376 165 545 q 240 150 165 232 q 418 68 315 68 q 644 200 557 68 q 730 498 730 332 z "},"R":{"ha":769,"x_min":60,"x_max":708,"o":"m 708 0 l 586 0 q 515 258 548 180 q 438 357 481 336 q 304 378 394 378 q 211 377 249 378 q 185 0 188 158 l 60 0 q 117 464 74 96 q 145 883 142 703 l 241 883 q 303 885 245 883 q 418 887 361 887 q 610 832 540 887 q 680 683 680 777 q 629 535 680 600 q 495 443 578 471 l 495 436 q 604 330 562 414 q 708 0 647 245 m 565 660 q 373 798 565 798 q 250 789 299 798 q 220 468 244 711 q 294 467 258 467 q 565 660 565 467 z "},"S":{"ha":677,"x_min":21,"x_max":610,"o":"m 610 874 l 583 766 q 392 799 502 799 q 204 671 204 799 q 242 587 204 621 q 366 511 281 552 q 534 399 475 460 q 593 245 593 338 q 233 -22 593 -22 q 21 7 112 -22 l 55 113 q 243 74 146 74 q 486 217 486 74 q 441 318 486 277 q 304 405 397 359 q 150 508 200 454 q 100 646 100 562 q 185 833 100 770 q 401 895 269 895 q 610 874 555 895 z "},"T":{"ha":701,"x_min":66,"x_max":720,"o":"m 720 883 l 707 787 q 445 794 580 794 q 408 464 431 685 q 373 0 385 243 l 248 0 q 305 464 263 106 q 336 794 326 661 q 66 786 240 794 l 79 883 l 720 883 z "},"U":{"ha":869,"x_min":84,"x_max":819,"o":"m 819 883 q 768 436 806 785 q 374 -18 720 -18 q 161 57 238 -18 q 84 318 84 132 q 90 429 84 377 q 126 883 104 572 l 255 883 q 204 478 238 760 q 196 334 196 401 q 242 131 196 191 q 391 71 289 71 q 577 155 513 71 q 667 479 642 239 q 692 883 682 622 l 819 883 z "},"V":{"ha":782,"x_min":50,"x_max":819,"o":"m 819 883 q 600 435 819 817 q 375 0 380 53 l 291 0 q 171 434 291 85 q 50 883 50 783 l 172 883 q 263 503 172 795 q 354 136 354 210 l 361 136 q 531 497 366 183 q 696 883 696 812 l 819 883 z "},"W":{"ha":1250,"x_min":50,"x_max":1286,"o":"m 1286 883 q 1090 437 1286 831 q 888 0 893 43 l 804 0 q 727 351 804 54 q 643 745 649 647 l 636 745 q 479 347 612 649 q 342 0 347 45 l 258 0 q 154 464 258 69 q 50 883 50 858 l 174 883 q 245 539 174 857 q 317 136 317 220 l 323 136 q 472 526 331 209 q 614 883 614 842 l 727 883 q 798 527 727 846 q 869 136 869 209 l 874 136 q 1021 508 881 197 q 1160 883 1160 818 l 1286 883 z "},"X":{"ha":783,"x_min":-35,"x_max":768,"o":"m 768 883 q 635 703 768 864 q 456 498 501 541 l 456 492 q 607 240 500 441 q 714 0 714 39 l 574 0 q 490 199 574 34 q 370 416 406 365 l 362 416 q 215 195 315 358 q 115 0 115 31 l -35 0 q 127 233 -35 20 q 325 478 289 446 l 325 485 q 200 694 295 525 q 106 883 106 863 l 245 883 q 314 723 245 857 q 410 551 383 589 l 416 551 q 544 729 454 594 q 634 883 634 864 l 768 883 z "},"Y":{"ha":711,"x_min":50,"x_max":748,"o":"m 748 883 q 633 705 748 857 q 453 457 517 553 q 380 288 388 361 q 366 0 366 152 l 237 0 q 275 311 275 255 q 231 497 275 394 q 119 730 187 600 q 50 883 50 861 l 182 883 q 268 664 182 857 q 354 405 354 471 l 361 405 q 493 661 368 468 q 619 883 619 853 l 748 883 z "},"Z":{"ha":678,"x_min":19,"x_max":650,"o":"m 650 883 l 635 799 q 365 409 551 690 q 176 100 178 128 l 174 92 q 587 111 307 92 l 572 0 l 19 0 l 33 81 q 319 480 127 201 q 513 791 510 759 l 515 799 q 113 782 374 799 l 124 883 l 650 883 z "},"À":{"ha":836,"x_min":-27,"x_max":772,"o":"m 772 0 l 637 0 q 585 286 637 66 l 213 286 q 161 169 183 221 q 103 0 108 43 l -27 0 q 186 434 -24 20 q 398 883 394 845 l 547 883 q 660 440 547 822 q 772 0 772 58 m 564 374 q 457 798 457 766 l 451 798 q 249 374 449 777 l 564 374 m 536 960 l 458 960 q 385 1055 458 971 q 310 1146 311 1138 l 442 1146 q 489 1055 442 1139 q 536 960 536 971 z "},"Á":{"ha":836,"x_min":-27,"x_max":772,"o":"m 772 0 l 637 0 q 585 286 637 66 l 213 286 q 161 169 183 221 q 103 0 108 43 l -27 0 q 186 434 -24 20 q 398 883 394 845 l 547 883 q 660 440 547 822 q 772 0 772 58 m 564 374 q 457 798 457 766 l 451 798 q 249 374 449 777 l 564 374 m 696 1146 q 596 1055 696 1138 q 496 960 496 971 l 419 960 q 488 1055 419 971 q 557 1146 557 1139 l 696 1146 z "},"Â":{"ha":836,"x_min":-27,"x_max":772,"o":"m 772 0 l 637 0 q 585 286 637 66 l 213 286 q 161 169 183 221 q 103 0 108 43 l -27 0 q 186 434 -24 20 q 398 883 394 845 l 547 883 q 660 440 547 822 q 772 0 772 58 m 564 374 q 457 798 457 766 l 451 798 q 249 374 449 777 l 564 374 m 659 960 l 593 960 q 486 1074 593 969 q 351 960 352 969 l 285 960 q 357 1052 286 969 q 432 1146 428 1135 l 557 1146 q 609 1052 559 1135 q 659 960 659 969 z "},"Ã":{"ha":836,"x_min":-27,"x_max":772,"o":"m 772 0 l 637 0 q 585 286 637 66 l 213 286 q 161 169 183 221 q 103 0 108 43 l -27 0 q 186 434 -24 20 q 398 883 394 845 l 547 883 q 660 440 547 822 q 772 0 772 58 m 564 374 q 457 798 457 766 l 451 798 q 249 374 449 777 l 564 374 m 751 1112 q 574 994 665 994 q 494 1010 542 994 q 416 1026 446 1026 q 296 967 359 1026 l 260 1001 q 437 1122 347 1122 q 518 1107 470 1122 q 596 1092 566 1092 q 715 1146 653 1092 l 751 1112 z "},"Ä":{"ha":836,"x_min":-27,"x_max":772,"o":"m 772 0 l 637 0 q 585 286 637 66 l 213 286 q 161 169 183 221 q 103 0 108 43 l -27 0 q 186 434 -24 20 q 398 883 394 845 l 547 883 q 660 440 547 822 q 772 0 772 58 m 564 374 q 457 798 457 766 l 451 798 q 249 374 449 777 l 564 374 m 677 1066 q 654 1005 677 1030 q 597 979 632 979 q 540 1039 540 979 q 564 1099 540 1074 q 623 1124 587 1124 q 677 1066 677 1124 m 434 1066 q 411 1005 434 1030 q 353 979 388 979 q 298 1038 298 979 q 321 1099 298 1074 q 380 1124 345 1124 q 434 1066 434 1124 z "},"Ā":{"ha":836,"x_min":-27,"x_max":772,"o":"m 772 0 l 637 0 q 585 286 637 66 l 213 286 q 161 169 183 221 q 103 0 108 43 l -27 0 q 186 434 -24 20 q 398 883 394 845 l 547 883 q 660 440 547 822 q 772 0 772 58 m 564 374 q 457 798 457 766 l 451 798 q 249 374 449 777 l 564 374 m 659 1085 l 642 1001 l 336 1001 l 353 1085 l 659 1085 z "},"Ă":{"ha":836,"x_min":-27,"x_max":772,"o":"m 772 0 l 637 0 q 585 286 637 66 l 213 286 q 161 169 183 221 q 103 0 108 43 l -27 0 q 186 434 -24 20 q 398 883 394 845 l 547 883 q 660 440 547 822 q 772 0 772 58 m 564 374 q 457 798 457 766 l 451 798 q 249 374 449 777 l 564 374 m 682 1112 q 479 964 608 964 q 307 1112 344 964 l 372 1146 q 487 1048 405 1048 q 625 1146 563 1048 l 682 1112 z "},"Å":{"ha":836,"x_min":-27,"x_max":772,"o":"m 772 0 l 637 0 q 585 286 637 66 l 213 286 q 161 169 183 221 q 103 0 108 43 l -27 0 q 186 434 -24 20 q 398 883 394 845 l 547 883 q 660 440 547 822 q 772 0 772 58 m 564 374 q 457 798 457 766 l 451 798 q 249 374 449 777 l 564 374 m 637 1074 q 590 962 637 1004 q 482 921 543 921 q 388 956 427 921 q 349 1056 349 991 q 396 1166 349 1126 q 504 1207 443 1207 q 598 1173 559 1207 q 637 1074 637 1138 m 573 1069 q 551 1128 573 1107 q 498 1149 530 1149 q 439 1125 465 1149 q 413 1059 413 1101 q 435 1000 413 1021 q 488 979 456 979 q 547 1003 522 979 q 573 1069 573 1027 z "},"Ǻ":{"ha":836,"x_min":-27,"x_max":772,"o":"m 772 0 l 637 0 q 585 286 637 66 l 213 286 q 161 169 183 221 q 103 0 108 43 l -27 0 q 186 434 -24 20 q 398 883 394 845 l 547 883 q 660 440 547 822 q 772 0 772 58 m 564 374 q 457 798 457 766 l 451 798 q 249 374 449 777 l 564 374 m 606 1033 q 569 943 606 977 q 483 910 532 910 q 407 938 438 910 q 376 1018 376 966 q 414 1107 376 1074 q 500 1139 452 1139 q 575 1112 545 1139 q 606 1033 606 1084 m 552 1028 q 536 1073 552 1057 q 496 1089 519 1089 q 450 1071 470 1089 q 431 1021 431 1053 q 447 976 431 992 q 487 960 464 960 q 532 979 513 960 q 552 1028 552 997 m 703 1289 q 623 1227 702 1280 q 536 1164 545 1175 l 472 1164 q 525 1228 473 1175 q 576 1289 576 1281 l 703 1289 z "},"Ą":{"ha":836,"x_min":-27,"x_max":772,"o":"m 772 0 q 708 -28 748 -6 q 624 -93 652 -58 q 596 -171 596 -128 q 654 -237 596 -237 q 711 -227 681 -237 l 719 -319 q 631 -330 684 -330 q 537 -303 572 -330 q 503 -215 503 -276 q 535 -101 503 -151 q 637 0 567 -50 q 585 286 637 66 l 213 286 q 161 169 183 221 q 103 0 108 43 l -27 0 q 186 434 -24 20 q 398 883 394 845 l 547 883 q 659 440 547 822 q 772 0 771 59 m 564 374 q 457 798 457 766 l 451 798 q 249 374 449 777 l 564 374 z "},"Æ":{"ha":1084,"x_min":-27,"x_max":1055,"o":"m 1055 883 l 1040 782 q 651 790 848 790 q 631 570 648 754 l 626 506 q 947 510 777 506 l 937 413 q 614 419 776 419 q 587 92 596 245 q 1008 102 806 92 l 994 0 l 465 0 q 503 286 477 80 l 205 286 q 155 163 176 216 q 100 0 104 33 l -27 0 q 187 431 -24 24 q 403 883 398 838 l 1055 883 m 547 790 l 446 790 q 243 374 444 764 l 512 374 q 547 790 533 572 z "},"Ǽ":{"ha":1084,"x_min":-27,"x_max":1055,"o":"m 1055 883 l 1040 782 q 651 790 848 790 q 631 570 648 754 l 626 506 q 947 510 777 506 l 937 413 q 614 419 776 419 q 587 92 596 245 q 1008 102 806 92 l 994 0 l 465 0 q 503 286 477 80 l 205 286 q 155 163 176 216 q 100 0 104 33 l -27 0 q 187 431 -24 24 q 403 883 398 838 l 1055 883 m 547 790 l 446 790 q 243 374 444 764 l 512 374 q 547 790 533 572 m 947 1146 q 847 1055 947 1138 q 747 960 747 971 l 669 960 q 739 1055 669 971 q 808 1146 808 1139 l 947 1146 z "},"Ć":{"ha":685,"x_min":47,"x_max":748,"o":"m 680 877 l 650 769 q 522 793 580 793 q 262 678 359 793 q 165 398 165 562 q 245 171 165 264 q 478 79 326 79 q 644 108 541 79 l 625 7 q 449 -18 511 -18 q 148 99 248 -18 q 47 385 47 217 q 194 748 47 601 q 560 895 340 895 q 680 877 618 895 m 748 1146 q 648 1055 748 1138 q 548 960 548 971 l 471 960 q 540 1055 471 971 q 609 1146 609 1139 l 748 1146 z "},"Ĉ":{"ha":685,"x_min":47,"x_max":699,"o":"m 680 877 l 650 769 q 522 793 580 793 q 262 678 359 793 q 165 398 165 562 q 245 171 165 264 q 478 79 326 79 q 644 108 541 79 l 625 7 q 449 -18 511 -18 q 148 99 248 -18 q 47 385 47 217 q 194 748 47 601 q 560 895 340 895 q 680 877 618 895 m 699 960 l 633 960 q 526 1074 633 969 q 391 960 392 969 l 325 960 q 397 1052 326 969 q 472 1146 468 1135 l 597 1146 q 649 1052 600 1135 q 699 960 699 969 z "},"Č":{"ha":685,"x_min":47,"x_max":742,"o":"m 680 877 l 650 769 q 522 793 580 793 q 262 678 359 793 q 165 398 165 562 q 245 171 165 264 q 478 79 326 79 q 644 108 541 79 l 625 7 q 449 -18 511 -18 q 148 99 248 -18 q 47 385 47 217 q 194 748 47 601 q 560 895 340 895 q 680 877 618 895 m 368 1146 l 434 1146 q 541 1032 434 1137 q 675 1146 675 1137 l 742 1146 q 670 1054 741 1137 q 595 960 599 971 l 470 960 q 417 1054 467 971 q 368 1146 368 1137 z "},"Ċ":{"ha":685,"x_min":47,"x_max":680,"o":"m 680 877 l 650 769 q 522 793 580 793 q 262 678 359 793 q 165 398 165 562 q 245 171 165 264 q 478 79 326 79 q 644 108 541 79 l 625 7 q 449 -18 511 -18 q 148 99 248 -18 q 47 385 47 217 q 194 748 47 601 q 560 895 340 895 q 680 877 618 895 m 632 1072 q 606 1005 632 1033 q 541 977 581 977 q 479 1043 479 977 q 505 1109 479 1082 q 570 1137 531 1137 q 632 1072 632 1137 z "},"Ç":{"ha":685,"x_min":47,"x_max":680,"o":"m 481 -184 q 312 -335 481 -335 l 309 -273 q 363 -251 340 -273 q 385 -199 385 -229 q 298 -96 385 -115 l 328 -5 q 130 120 213 22 q 47 385 47 217 q 194 748 47 601 q 560 895 340 895 q 680 877 618 895 l 650 769 q 522 793 580 793 q 262 678 359 793 q 165 398 165 562 q 245 171 165 264 q 478 79 326 79 q 644 108 541 79 l 625 7 q 449 -18 524 -18 q 378 -14 412 -18 l 370 -47 q 481 -184 481 -86 z "},"Ď":{"ha":821,"x_min":60,"x_max":774,"o":"m 774 503 q 635 141 774 291 q 281 -9 496 -9 q 60 0 214 -9 q 117 464 74 96 q 145 883 142 703 l 222 883 q 301 885 248 883 q 383 887 354 887 q 676 775 579 887 q 774 503 774 663 m 659 489 q 578 708 659 621 q 332 795 498 795 q 247 789 292 795 q 216 464 241 716 q 184 92 197 281 q 283 81 234 81 q 557 199 455 81 q 659 489 659 317 m 290 1146 l 356 1146 q 463 1032 356 1137 q 597 1146 597 1137 l 664 1146 q 592 1054 663 1137 q 517 960 521 971 l 392 960 q 339 1054 389 971 q 290 1146 290 1137 z "},"Đ":{"ha":821,"x_min":6,"x_max":774,"o":"m 774 502 q 635 140 774 290 q 281 -9 496 -9 q 58 0 214 -9 l 110 397 l 6 385 l 23 498 q 120 496 81 496 q 145 883 141 703 l 222 883 q 303 885 248 883 q 383 887 358 887 q 676 775 579 887 q 774 502 774 663 m 659 490 q 580 709 659 623 q 336 795 500 795 q 248 789 296 795 q 220 496 243 724 q 474 518 316 503 l 459 409 q 211 404 334 409 q 184 92 195 245 q 283 81 234 81 q 557 199 456 81 q 659 490 659 317 z "},"È":{"ha":669,"x_min":60,"x_max":639,"o":"m 639 883 l 623 782 q 250 790 448 790 q 231 570 248 754 l 224 506 q 530 514 395 506 l 518 413 q 214 419 377 419 q 184 92 196 245 q 595 102 399 92 l 578 0 l 60 0 q 117 464 74 96 q 146 883 142 703 l 639 883 m 497 960 l 420 960 q 346 1055 420 971 q 271 1146 273 1138 l 404 1146 q 450 1055 404 1139 q 497 960 497 971 z "},"É":{"ha":669,"x_min":60,"x_max":639,"o":"m 639 883 l 623 782 q 250 790 448 790 q 231 570 248 754 l 224 506 q 530 514 395 506 l 518 413 q 214 419 377 419 q 184 92 196 245 q 595 102 399 92 l 578 0 l 60 0 q 117 464 74 96 q 146 883 142 703 l 639 883 m 634 1146 q 534 1055 634 1138 q 434 960 434 971 l 357 960 q 426 1055 357 971 q 495 1146 495 1139 l 634 1146 z "},"Ê":{"ha":669,"x_min":60,"x_max":639,"o":"m 639 883 l 623 782 q 250 790 448 790 q 231 570 248 754 l 224 506 q 530 514 395 506 l 518 413 q 214 419 377 419 q 184 92 196 245 q 595 102 399 92 l 578 0 l 60 0 q 117 464 74 96 q 146 883 142 703 l 639 883 m 600 960 l 533 960 q 427 1074 533 969 q 292 960 292 969 l 225 960 q 297 1052 226 969 q 372 1146 368 1135 l 497 1146 q 550 1052 500 1135 q 600 960 600 969 z "},"Ě":{"ha":669,"x_min":60,"x_max":639,"o":"m 639 883 l 623 782 q 250 790 448 790 q 231 570 248 754 l 224 506 q 530 514 395 506 l 518 413 q 214 419 377 419 q 184 92 196 245 q 595 102 399 92 l 578 0 l 60 0 q 117 464 74 96 q 146 883 142 703 l 639 883 m 254 1146 l 320 1146 q 427 1032 320 1137 q 562 1146 561 1137 l 628 1146 q 556 1054 627 1137 q 481 960 485 971 l 356 960 q 303 1054 353 971 q 254 1146 254 1137 z "},"Ë":{"ha":669,"x_min":60,"x_max":639,"o":"m 639 883 l 623 782 q 250 790 448 790 q 231 570 248 754 l 224 506 q 530 514 395 506 l 518 413 q 214 419 377 419 q 184 92 196 245 q 595 102 399 92 l 578 0 l 60 0 q 117 464 74 96 q 146 883 142 703 l 639 883 m 617 1066 q 595 1005 617 1030 q 537 979 572 979 q 480 1039 480 979 q 504 1099 480 1074 q 563 1124 528 1124 q 617 1066 617 1124 m 374 1066 q 351 1005 374 1030 q 293 979 328 979 q 239 1038 239 979 q 262 1099 239 1074 q 320 1124 285 1124 q 374 1066 374 1124 z "},"Ē":{"ha":669,"x_min":60,"x_max":639,"o":"m 639 883 l 623 782 q 250 790 448 790 q 231 570 248 754 l 224 506 q 530 514 395 506 l 518 413 q 214 419 377 419 q 184 92 196 245 q 595 102 399 92 l 578 0 l 60 0 q 117 464 74 96 q 146 883 142 703 l 639 883 m 602 1085 l 585 1001 l 280 1001 l 297 1085 l 602 1085 z "},"Ĕ":{"ha":669,"x_min":60,"x_max":639,"o":"m 639 883 l 623 782 q 250 790 448 790 q 231 570 248 754 l 224 506 q 530 514 395 506 l 518 413 q 214 419 377 419 q 184 92 196 245 q 595 102 399 92 l 578 0 l 60 0 q 117 464 74 96 q 146 883 142 703 l 639 883 m 625 1112 q 422 964 551 964 q 250 1112 287 964 l 315 1146 q 430 1048 348 1048 q 568 1146 506 1048 l 625 1112 z "},"Ė":{"ha":669,"x_min":60,"x_max":639,"o":"m 639 883 l 623 782 q 250 790 448 790 q 231 570 248 754 l 224 506 q 530 514 395 506 l 518 413 q 214 419 377 419 q 184 92 196 245 q 595 102 399 92 l 578 0 l 60 0 q 117 464 74 96 q 146 883 142 703 l 639 883 m 509 1072 q 484 1005 509 1033 q 418 977 458 977 q 357 1043 357 977 q 382 1109 357 1082 q 448 1137 408 1137 q 509 1072 509 1137 z "},"Ę":{"ha":669,"x_min":60,"x_max":639,"o":"m 550 -319 q 461 -330 514 -330 q 362 -298 397 -330 q 334 -200 327 -267 q 481 -7 346 -85 l 483 0 l 60 0 q 117 464 91 210 q 152 883 142 703 l 639 883 l 624 782 q 249 790 448 790 q 223 506 241 685 q 529 514 394 506 l 517 413 q 214 419 376 419 q 185 92 196 245 q 597 102 399 92 l 579 0 q 427 -162 436 -78 q 484 -237 419 -237 q 541 -227 510 -237 l 550 -319 z "},"Ĝ":{"ha":789,"x_min":47,"x_max":723,"o":"m 722 876 l 694 763 q 524 790 584 790 q 264 676 363 790 q 165 401 165 563 q 249 169 165 264 q 486 74 332 74 q 588 84 524 74 q 587 120 587 99 q 594 261 587 168 q 602 402 602 355 l 718 402 q 693 213 711 361 q 684 18 688 170 q 454 -18 568 -18 q 150 100 252 -18 q 47 387 47 218 q 196 748 47 601 q 563 895 344 895 q 722 876 652 895 m 723 960 l 656 960 q 550 1074 656 969 q 415 960 416 969 l 349 960 q 420 1052 349 969 q 496 1146 492 1135 l 621 1146 q 673 1052 623 1135 q 723 960 723 969 z "},"Ğ":{"ha":789,"x_min":47,"x_max":741,"o":"m 722 876 l 694 763 q 524 790 584 790 q 264 676 363 790 q 165 401 165 563 q 249 169 165 264 q 486 74 332 74 q 588 84 524 74 q 587 120 587 99 q 594 261 587 168 q 602 402 602 355 l 718 402 q 693 213 711 361 q 684 18 688 170 q 454 -18 568 -18 q 150 100 252 -18 q 47 387 47 218 q 196 748 47 601 q 563 895 344 895 q 722 876 652 895 m 741 1112 q 538 964 667 964 q 366 1112 403 964 l 431 1146 q 546 1048 464 1048 q 684 1146 622 1048 l 741 1112 z "},"Ġ":{"ha":789,"x_min":47,"x_max":722,"o":"m 722 876 l 694 763 q 524 790 584 790 q 264 676 363 790 q 165 401 165 563 q 249 169 165 264 q 486 74 332 74 q 588 84 524 74 q 587 120 587 99 q 594 261 587 168 q 602 402 602 355 l 718 402 q 693 213 711 361 q 684 18 688 170 q 454 -18 568 -18 q 150 100 252 -18 q 47 387 47 218 q 196 748 47 601 q 563 895 344 895 q 722 876 652 895 m 637 1072 q 611 1005 637 1033 q 546 977 585 977 q 484 1043 484 977 q 510 1109 484 1082 q 575 1137 536 1137 q 637 1072 637 1137 z "},"Ģ":{"ha":789,"x_min":47,"x_max":722,"o":"m 722 876 l 694 763 q 524 790 584 790 q 264 676 363 790 q 165 401 165 563 q 249 169 165 264 q 486 74 332 74 q 588 84 524 74 q 587 120 587 99 q 594 261 587 168 q 602 402 602 355 l 718 402 q 693 213 711 361 q 684 18 688 170 q 454 -18 568 -18 q 150 100 252 -18 q 47 387 47 218 q 196 748 47 601 q 563 895 344 895 q 722 876 652 895 m 488 -149 q 444 -272 488 -217 q 360 -353 401 -328 l 338 -326 q 390 -232 386 -271 q 332 -157 332 -214 q 353 -96 332 -122 q 419 -71 375 -71 q 469 -92 450 -71 q 488 -149 488 -113 z "},"Ĥ":{"ha":831,"x_min":60,"x_max":771,"o":"m 771 883 q 717 464 757 798 q 684 0 692 227 l 555 0 q 606 420 570 111 l 220 420 q 189 0 205 270 l 60 0 q 118 464 77 115 q 146 883 142 690 l 275 883 q 227 506 262 793 l 617 506 q 641 883 633 653 l 771 883 m 677 960 l 610 960 q 504 1074 610 969 q 369 960 370 969 l 302 960 q 374 1052 303 969 q 450 1146 446 1135 l 574 1146 q 627 1052 577 1135 q 677 960 677 969 z "},"Ħ":{"ha":853,"x_min":55,"x_max":823,"o":"m 823 708 l 808 635 l 737 635 q 717 464 728 559 q 684 0 692 227 l 555 0 q 606 420 570 111 l 220 420 q 189 0 205 270 l 60 0 q 118 464 77 115 q 134 635 127 552 l 55 635 l 70 708 l 138 708 q 146 883 144 799 l 275 883 q 252 708 267 829 l 633 708 q 641 883 637 788 l 771 883 q 747 708 763 835 l 823 708 m 628 635 l 243 635 q 227 506 235 576 l 617 506 q 628 635 623 564 z "},"Ì":{"ha":335,"x_min":65,"x_max":291,"o":"m 286 883 q 233 464 273 800 q 202 49 210 250 l 200 0 l 70 0 q 129 464 85 100 q 155 883 154 704 l 286 883 m 291 960 l 214 960 q 140 1055 214 971 q 65 1146 66 1138 l 197 1146 q 244 1055 197 1139 q 291 960 291 971 z "},"Í":{"ha":335,"x_min":70,"x_max":460,"o":"m 286 883 q 233 464 273 800 q 202 49 210 250 l 200 0 l 70 0 q 129 464 85 100 q 155 883 154 704 l 286 883 m 460 1146 q 360 1055 460 1138 q 260 960 260 971 l 183 960 q 252 1055 183 971 q 321 1146 321 1139 l 460 1146 z "},"Î":{"ha":335,"x_min":63,"x_max":437,"o":"m 286 883 q 233 464 273 800 q 202 49 210 250 l 200 0 l 70 0 q 129 464 85 100 q 155 883 154 704 l 286 883 m 437 960 l 371 960 q 264 1074 371 969 q 130 960 130 969 l 63 960 q 135 1052 64 969 q 210 1146 206 1135 l 335 1146 q 388 1052 338 1135 q 437 960 437 969 z "},"Ĩ":{"ha":335,"x_min":23,"x_max":514,"o":"m 286 883 q 233 464 273 800 q 202 49 210 250 l 200 0 l 70 0 q 129 464 85 100 q 155 883 154 704 l 286 883 m 514 1112 q 338 994 428 994 q 257 1010 305 994 q 179 1026 210 1026 q 60 967 122 1026 l 23 1001 q 201 1122 111 1122 q 281 1107 233 1122 q 359 1092 329 1092 q 479 1146 416 1092 l 514 1112 z "},"Ï":{"ha":335,"x_min":64,"x_max":442,"o":"m 286 883 q 233 464 273 800 q 202 49 210 250 l 200 0 l 70 0 q 129 464 85 100 q 155 883 154 704 l 286 883 m 442 1066 q 420 1005 442 1030 q 362 979 397 979 q 305 1039 305 979 q 329 1099 305 1074 q 388 1124 353 1124 q 442 1066 442 1124 m 199 1066 q 176 1005 199 1030 q 118 979 153 979 q 64 1038 64 979 q 87 1099 64 1074 q 145 1124 110 1124 q 199 1066 199 1124 z "},"Ī":{"ha":335,"x_min":70,"x_max":414,"o":"m 286 883 q 233 464 273 800 q 202 49 210 250 l 200 0 l 70 0 q 129 464 85 100 q 155 883 154 704 l 286 883 m 414 1085 l 397 1001 l 92 1001 l 109 1085 l 414 1085 z "},"Ĭ":{"ha":335,"x_min":66,"x_max":442,"o":"m 286 883 q 233 464 273 800 q 202 49 210 250 l 200 0 l 70 0 q 129 464 85 100 q 155 883 154 704 l 286 883 m 442 1112 q 239 964 368 964 q 66 1112 104 964 l 132 1146 q 247 1048 165 1048 q 385 1146 323 1048 l 442 1112 z "},"İ":{"ha":335,"x_min":60,"x_max":332,"o":"m 275 883 q 222 464 262 800 q 192 49 200 250 l 190 0 l 60 0 q 119 464 75 100 q 145 883 144 704 l 275 883 m 332 1072 q 306 1005 332 1033 q 241 977 280 977 q 179 1043 179 977 q 205 1109 179 1082 q 270 1137 231 1137 q 332 1072 332 1137 z "},"Į":{"ha":335,"x_min":-40,"x_max":275,"o":"m 275 883 q 222 464 262 800 q 192 49 200 250 l 190 0 q 45 -145 45 -44 q 136 -237 45 -237 q 193 -222 160 -237 l 200 -316 q 105 -330 156 -330 q 4 -297 48 -330 q -40 -197 -40 -265 q 60 0 -40 -85 q 119 464 75 100 q 145 883 144 704 l 275 883 z "},"Ĳ":{"ha":871,"x_min":60,"x_max":857,"o":"m 275 883 q 222 464 262 800 q 192 49 200 250 l 190 0 l 60 0 q 119 464 75 100 q 145 883 144 704 l 275 883 m 857 883 q 794 378 842 792 q 670 56 770 149 q 447 -18 591 -18 q 336 -4 384 -18 l 355 95 q 442 73 399 73 q 591 113 541 73 q 689 363 669 177 q 727 883 722 670 l 857 883 z "},"Ĵ":{"ha":533,"x_min":-32,"x_max":610,"o":"m 490 883 q 427 378 475 792 q 302 56 403 149 q 79 -18 223 -18 q -32 -4 16 -18 l -12 95 q 75 73 32 73 q 223 113 174 73 q 321 363 302 177 q 359 883 354 670 l 490 883 m 610 960 l 544 960 q 437 1074 544 969 q 302 960 303 969 l 236 960 q 308 1052 237 969 q 383 1146 379 1135 l 508 1146 q 561 1052 511 1135 q 610 960 610 969 z "},"Ķ":{"ha":764,"x_min":60,"x_max":734,"o":"m 734 883 q 581 709 734 863 q 357 506 429 556 l 355 498 q 572 239 427 468 q 705 0 705 28 l 572 0 q 512 121 572 12 q 371 345 443 248 q 253 443 298 443 l 220 443 q 186 0 203 284 l 60 0 q 117 464 74 96 q 145 883 142 703 l 274 883 q 229 517 262 800 l 243 517 q 439 692 273 517 q 602 883 602 863 l 734 883 m 450 -149 q 407 -272 450 -217 q 323 -353 363 -328 l 300 -326 q 353 -232 349 -271 q 294 -157 294 -214 q 316 -96 294 -122 q 382 -71 338 -71 q 432 -92 413 -71 q 450 -149 450 -113 z "},"Ĺ":{"ha":631,"x_min":60,"x_max":583,"o":"m 583 100 l 567 0 l 60 0 q 117 464 72 72 q 147 883 144 718 l 273 883 q 221 464 263 825 q 178 92 197 232 q 583 100 335 92 m 466 1146 q 366 1055 466 1138 q 266 960 266 971 l 189 960 q 258 1055 189 971 q 327 1146 327 1139 l 466 1146 z "},"Ľ":{"ha":631,"x_min":60,"x_max":692,"o":"m 583 100 l 567 0 l 60 0 q 117 464 72 72 q 147 883 144 718 l 273 883 q 221 464 263 825 q 178 92 197 232 q 583 100 335 92 m 692 814 q 645 679 692 740 q 552 591 597 618 l 527 621 q 585 724 580 681 q 520 806 520 743 q 544 873 520 844 q 616 901 568 901 q 672 878 651 901 q 692 814 692 855 z "},"Ļ":{"ha":631,"x_min":60,"x_max":583,"o":"m 583 100 l 567 0 l 60 0 q 117 464 72 72 q 147 883 144 718 l 273 883 q 221 464 263 825 q 178 92 197 232 q 583 100 335 92 m 410 -149 q 367 -272 410 -217 q 283 -353 323 -328 l 260 -326 q 313 -232 309 -271 q 254 -157 254 -214 q 276 -96 254 -122 q 342 -71 298 -71 q 392 -92 373 -71 q 410 -149 410 -113 z "},"Ł":{"ha":640,"x_min":-60,"x_max":593,"o":"m 593 100 l 578 0 l 69 0 q 114 353 102 244 l -14 250 l -60 317 l 126 459 q 155 883 149 671 l 283 883 q 240 547 256 703 l 488 751 l 549 680 l 228 433 q 185 92 209 252 q 593 100 343 92 z "},"Ŀ":{"ha":631,"x_min":60,"x_max":598,"o":"m 583 100 l 567 0 l 60 0 q 117 464 72 72 q 147 883 144 718 l 273 883 q 221 464 263 825 q 178 92 197 232 q 583 100 335 92 m 598 492 q 572 425 598 452 q 507 397 547 397 q 446 463 446 397 q 471 529 446 502 q 536 556 497 556 q 598 492 598 556 z "},"Ń":{"ha":844,"x_min":52,"x_max":792,"o":"m 792 883 q 739 464 779 802 q 699 0 713 220 l 608 0 q 425 350 608 24 q 216 768 235 688 l 209 768 q 213 685 213 739 q 199 460 213 589 q 160 0 176 232 l 52 0 q 111 464 68 101 q 138 883 136 703 l 269 883 q 437 545 269 843 q 631 149 614 235 l 636 149 q 632 212 632 174 q 646 457 632 321 q 675 883 673 708 l 792 883 m 721 1146 q 621 1055 721 1138 q 521 960 521 971 l 444 960 q 513 1055 444 971 q 582 1146 582 1139 l 721 1146 z "},"Ň":{"ha":844,"x_min":52,"x_max":792,"o":"m 792 883 q 739 464 779 802 q 699 0 713 220 l 608 0 q 425 350 608 24 q 216 768 235 688 l 209 768 q 213 685 213 739 q 199 460 213 589 q 160 0 176 232 l 52 0 q 111 464 68 101 q 138 883 136 703 l 269 883 q 437 545 269 843 q 631 149 614 235 l 636 149 q 632 212 632 174 q 646 457 632 321 q 675 883 673 708 l 792 883 m 319 1146 l 386 1146 q 492 1032 386 1137 q 627 1146 627 1137 l 694 1146 q 622 1054 693 1137 q 547 960 551 971 l 422 960 q 369 1054 419 971 q 319 1146 319 1137 z "},"Ñ":{"ha":844,"x_min":52,"x_max":792,"o":"m 792 883 q 739 464 779 802 q 699 0 713 220 l 608 0 q 425 350 608 24 q 216 768 235 688 l 209 768 q 213 685 213 739 q 199 460 213 589 q 160 0 176 232 l 52 0 q 111 464 68 101 q 138 883 136 703 l 269 883 q 437 545 269 843 q 631 149 614 235 l 636 149 q 632 212 632 174 q 646 457 632 321 q 675 883 673 708 l 792 883 m 753 1112 q 576 994 667 994 q 496 1010 544 994 q 418 1026 448 1026 q 298 967 361 1026 l 262 1001 q 439 1122 349 1122 q 520 1107 472 1122 q 598 1092 568 1092 q 718 1146 655 1092 l 753 1112 z "},"Ņ":{"ha":844,"x_min":52,"x_max":792,"o":"m 792 883 q 739 464 779 802 q 699 0 713 220 l 608 0 q 425 350 608 24 q 216 768 235 688 l 209 768 q 213 685 213 739 q 199 460 213 589 q 160 0 176 232 l 52 0 q 111 464 68 101 q 138 883 136 703 l 269 883 q 437 545 269 843 q 631 149 614 235 l 636 149 q 632 212 632 174 q 646 457 632 321 q 675 883 673 708 l 792 883 m 474 -149 q 431 -272 474 -217 q 347 -353 387 -328 l 324 -326 q 376 -232 372 -271 q 318 -157 318 -214 q 340 -96 318 -122 q 406 -71 361 -71 q 455 -92 437 -71 q 474 -149 474 -113 z "},"Ò":{"ha":894,"x_min":47,"x_max":846,"o":"m 846 505 q 716 134 846 294 q 389 -26 587 -26 q 149 82 251 -26 q 47 370 47 191 q 178 743 47 585 q 505 901 309 901 q 744 792 642 901 q 846 505 846 684 m 730 498 q 655 725 730 644 q 477 806 580 806 q 250 676 335 806 q 165 376 165 545 q 240 150 165 232 q 418 68 315 68 q 644 200 557 68 q 730 498 730 332 m 582 960 l 505 960 q 431 1055 505 971 q 356 1146 357 1138 l 488 1146 q 535 1055 488 1139 q 582 960 582 971 z "},"Ó":{"ha":894,"x_min":47,"x_max":846,"o":"m 846 505 q 716 134 846 294 q 389 -26 587 -26 q 149 82 251 -26 q 47 370 47 191 q 178 743 47 585 q 505 901 309 901 q 744 792 642 901 q 846 505 846 684 m 730 498 q 655 725 730 644 q 477 806 580 806 q 250 676 335 806 q 165 376 165 545 q 240 150 165 232 q 418 68 315 68 q 644 200 557 68 q 730 498 730 332 m 760 1146 q 660 1055 760 1138 q 559 960 559 971 l 482 960 q 551 1055 482 971 q 621 1146 621 1139 l 760 1146 z "},"Ô":{"ha":894,"x_min":47,"x_max":846,"o":"m 846 505 q 716 134 846 294 q 389 -26 587 -26 q 149 82 251 -26 q 47 370 47 191 q 178 743 47 585 q 505 901 309 901 q 744 792 642 901 q 846 505 846 684 m 730 498 q 655 725 730 644 q 477 806 580 806 q 250 676 335 806 q 165 376 165 545 q 240 150 165 232 q 418 68 315 68 q 644 200 557 68 q 730 498 730 332 m 723 960 l 656 960 q 550 1074 656 969 q 415 960 416 969 l 349 960 q 420 1052 349 969 q 496 1146 492 1135 l 621 1146 q 673 1052 623 1135 q 723 960 723 969 z "},"Õ":{"ha":894,"x_min":47,"x_max":846,"o":"m 846 505 q 716 134 846 294 q 389 -26 587 -26 q 149 82 251 -26 q 47 370 47 191 q 178 743 47 585 q 505 901 309 901 q 744 792 642 901 q 846 505 846 684 m 730 498 q 655 725 730 644 q 477 806 580 806 q 250 676 335 806 q 165 376 165 545 q 240 150 165 232 q 418 68 315 68 q 644 200 557 68 q 730 498 730 332 m 790 1112 q 614 994 704 994 q 533 1010 581 994 q 455 1026 486 1026 q 336 967 398 1026 l 299 1001 q 477 1122 387 1122 q 557 1107 509 1122 q 635 1092 605 1092 q 755 1146 692 1092 l 790 1112 z "},"Ö":{"ha":894,"x_min":47,"x_max":846,"o":"m 846 505 q 716 134 846 294 q 389 -26 587 -26 q 149 82 251 -26 q 47 370 47 191 q 178 743 47 585 q 505 901 309 901 q 744 792 642 901 q 846 505 846 684 m 730 498 q 655 725 730 644 q 477 806 580 806 q 250 676 335 806 q 165 376 165 545 q 240 150 165 232 q 418 68 315 68 q 644 200 557 68 q 730 498 730 332 m 730 1066 q 707 1005 730 1030 q 650 979 685 979 q 593 1039 593 979 q 616 1099 593 1074 q 675 1124 640 1124 q 730 1066 730 1124 m 487 1066 q 464 1005 487 1030 q 406 979 441 979 q 351 1038 351 979 q 374 1099 351 1074 q 433 1124 397 1124 q 487 1066 487 1124 z "},"Ō":{"ha":894,"x_min":47,"x_max":846,"o":"m 846 505 q 716 134 846 294 q 389 -26 587 -26 q 149 82 251 -26 q 47 370 47 191 q 178 743 47 585 q 505 901 309 901 q 744 792 642 901 q 846 505 846 684 m 730 498 q 655 725 730 644 q 477 806 580 806 q 250 676 335 806 q 165 376 165 545 q 240 150 165 232 q 418 68 315 68 q 644 200 557 68 q 730 498 730 332 m 706 1085 l 689 1001 l 384 1001 l 401 1085 l 706 1085 z "},"Ŏ":{"ha":894,"x_min":47,"x_max":846,"o":"m 846 505 q 716 134 846 294 q 389 -26 587 -26 q 149 82 251 -26 q 47 370 47 191 q 178 743 47 585 q 505 901 309 901 q 744 792 642 901 q 846 505 846 684 m 730 498 q 655 725 730 644 q 477 806 580 806 q 250 676 335 806 q 165 376 165 545 q 240 150 165 232 q 418 68 315 68 q 644 200 557 68 q 730 498 730 332 m 730 1112 q 527 964 656 964 q 354 1112 391 964 l 419 1146 q 534 1048 452 1048 q 673 1146 610 1048 l 730 1112 z "},"Ő":{"ha":894,"x_min":47,"x_max":846,"o":"m 846 505 q 716 134 846 294 q 389 -26 587 -26 q 149 82 251 -26 q 47 370 47 191 q 178 743 47 585 q 505 901 309 901 q 744 792 642 901 q 846 505 846 684 m 730 498 q 655 725 730 644 q 477 806 580 806 q 250 676 335 806 q 165 376 165 545 q 240 150 165 232 q 418 68 315 68 q 644 200 557 68 q 730 498 730 332 m 546 1146 q 482 1051 545 1131 q 414 960 420 971 l 347 960 q 379 1052 348 971 q 412 1146 410 1132 l 546 1146 m 791 1146 q 727 1051 789 1131 q 659 960 665 971 l 591 960 q 626 1052 597 971 q 656 1146 655 1132 l 791 1146 z "},"Ø":{"ha":894,"x_min":-20,"x_max":907,"o":"m 907 897 q 786 738 905 871 q 846 505 846 642 q 716 134 846 294 q 389 -26 587 -26 q 168 64 263 -26 q 56 -77 57 -60 l -20 -56 q 117 123 -17 -26 q 47 370 47 222 q 178 743 47 585 q 505 901 309 901 q 738 798 637 901 q 831 918 829 903 l 907 897 m 665 717 q 655 727 660 722 q 477 808 580 808 q 251 678 336 808 q 165 378 165 547 q 199 212 165 281 q 507 545 380 408 q 665 717 633 683 m 730 500 q 705 648 730 585 q 399 316 529 456 q 243 148 269 176 q 418 70 317 70 q 644 201 558 70 q 730 500 730 332 z "},"Ǿ":{"ha":894,"x_min":-20,"x_max":907,"o":"m 907 897 q 786 738 905 871 q 846 505 846 642 q 716 134 846 294 q 389 -26 587 -26 q 168 64 263 -26 q 56 -77 57 -60 l -20 -56 q 117 123 -17 -26 q 47 370 47 222 q 178 743 47 585 q 505 901 309 901 q 738 798 637 901 q 831 918 829 903 l 907 897 m 665 717 q 655 727 660 722 q 477 808 580 808 q 251 678 336 808 q 165 378 165 547 q 199 212 165 281 q 507 545 380 408 q 665 717 633 683 m 730 500 q 705 648 730 585 q 399 316 529 456 q 243 148 269 176 q 418 70 317 70 q 644 201 558 70 q 730 500 730 332 m 747 1146 q 647 1055 747 1138 q 547 960 547 971 l 469 960 q 538 1055 469 971 q 608 1146 608 1139 l 747 1146 z "},"Œ":{"ha":1177,"x_min":47,"x_max":1147,"o":"m 1147 883 l 1133 782 q 745 790 910 790 q 718 506 742 745 q 1040 510 849 506 l 1029 413 q 709 419 871 419 q 682 92 691 245 q 1101 102 835 92 l 1086 0 l 561 0 q 381 -25 465 -25 q 124 100 213 -25 q 47 371 47 207 q 163 728 47 572 q 489 901 292 901 q 666 883 566 901 l 1147 883 m 640 786 q 468 808 564 808 q 241 663 325 808 q 171 388 171 542 q 229 168 171 256 q 404 71 292 71 q 569 98 505 71 q 612 464 581 193 q 640 786 627 608 z "},"Ŕ":{"ha":769,"x_min":60,"x_max":708,"o":"m 708 0 l 586 0 q 515 258 548 180 q 438 357 481 336 q 304 378 394 378 q 211 377 249 378 q 185 0 188 158 l 60 0 q 117 464 74 96 q 145 883 142 703 l 241 883 q 303 885 245 883 q 418 887 361 887 q 610 832 540 887 q 680 683 680 777 q 629 535 680 600 q 495 443 578 471 l 495 436 q 604 330 562 414 q 708 0 647 245 m 565 660 q 373 798 565 798 q 250 789 299 798 q 220 468 244 711 q 294 467 258 467 q 565 660 565 467 m 663 1146 q 563 1055 663 1138 q 463 960 463 971 l 385 960 q 454 1055 385 971 q 524 1146 524 1139 l 663 1146 z "},"Ř":{"ha":769,"x_min":60,"x_max":708,"o":"m 708 0 l 586 0 q 515 258 548 180 q 438 357 481 336 q 304 378 394 378 q 211 377 249 378 q 185 0 188 158 l 60 0 q 117 464 74 96 q 145 883 142 703 l 241 883 q 303 885 245 883 q 418 887 361 887 q 610 832 540 887 q 680 683 680 777 q 629 535 680 600 q 495 443 578 471 l 495 436 q 604 330 562 414 q 708 0 647 245 m 565 660 q 373 798 565 798 q 250 789 299 798 q 220 468 244 711 q 294 467 258 467 q 565 660 565 467 m 267 1146 l 333 1146 q 439 1032 333 1137 q 574 1146 574 1137 l 641 1146 q 569 1054 640 1137 q 494 960 498 971 l 369 960 q 316 1054 366 971 q 267 1146 267 1137 z "},"Ŗ":{"ha":769,"x_min":60,"x_max":708,"o":"m 708 0 l 586 0 q 515 258 548 180 q 438 357 481 336 q 304 378 394 378 q 211 377 249 378 q 185 0 188 158 l 60 0 q 117 464 74 96 q 145 883 142 703 l 241 883 q 303 885 245 883 q 418 887 361 887 q 610 832 540 887 q 680 683 680 777 q 629 535 680 600 q 495 443 578 471 l 495 436 q 604 330 562 414 q 708 0 647 245 m 565 660 q 373 798 565 798 q 250 789 299 798 q 220 468 244 711 q 294 467 258 467 q 565 660 565 467 m 470 -149 q 427 -272 470 -217 q 342 -353 383 -328 l 320 -326 q 372 -232 368 -271 q 314 -157 314 -214 q 336 -96 314 -122 q 401 -71 357 -71 q 451 -92 433 -71 q 470 -149 470 -113 z "},"Ś":{"ha":677,"x_min":21,"x_max":655,"o":"m 610 874 l 583 766 q 392 799 502 799 q 204 671 204 799 q 242 587 204 621 q 366 511 281 552 q 534 399 475 460 q 593 245 593 338 q 233 -22 593 -22 q 21 7 112 -22 l 55 113 q 243 74 146 74 q 486 217 486 74 q 441 318 486 277 q 304 405 397 359 q 150 508 200 454 q 100 646 100 562 q 185 833 100 770 q 401 895 269 895 q 610 874 555 895 m 655 1146 q 555 1055 655 1138 q 455 960 455 971 l 378 960 q 447 1055 378 971 q 516 1146 516 1139 l 655 1146 z "},"Ŝ":{"ha":677,"x_min":21,"x_max":610,"o":"m 610 874 l 583 766 q 392 799 502 799 q 204 671 204 799 q 242 587 204 621 q 366 511 281 552 q 534 399 475 460 q 593 245 593 338 q 233 -22 593 -22 q 21 7 112 -22 l 55 113 q 243 74 146 74 q 486 217 486 74 q 441 318 486 277 q 304 405 397 359 q 150 508 200 454 q 100 646 100 562 q 185 833 100 770 q 401 895 269 895 q 610 874 555 895 m 602 960 l 535 960 q 429 1074 535 969 q 294 960 294 969 l 227 960 q 299 1052 228 969 q 374 1146 370 1135 l 499 1146 q 552 1052 502 1135 q 602 960 602 969 z "},"Š":{"ha":677,"x_min":21,"x_max":623,"o":"m 610 874 l 583 766 q 392 799 502 799 q 204 671 204 799 q 242 587 204 621 q 366 511 281 552 q 534 399 475 460 q 593 245 593 338 q 233 -22 593 -22 q 21 7 112 -22 l 55 113 q 243 74 146 74 q 486 217 486 74 q 441 318 486 277 q 304 405 397 359 q 150 508 200 454 q 100 646 100 562 q 185 833 100 770 q 401 895 269 895 q 610 874 555 895 m 248 1146 l 315 1146 q 421 1032 315 1137 q 556 1146 555 1137 l 623 1146 q 551 1054 622 1137 q 475 960 479 971 l 351 960 q 298 1054 348 971 q 248 1146 248 1137 z "},"Ş":{"ha":677,"x_min":21,"x_max":610,"o":"m 610 874 l 583 766 q 392 799 502 799 q 204 671 204 799 q 247 583 204 621 q 366 511 281 552 q 523 410 472 460 q 593 245 593 340 q 296 -20 593 2 l 290 -47 q 401 -184 401 -86 q 231 -335 401 -335 l 229 -273 q 282 -251 260 -273 q 304 -199 304 -229 q 218 -96 304 -115 l 242 -22 l 233 -22 q 21 7 112 -22 l 55 113 q 243 74 146 74 q 486 217 486 74 q 437 322 486 276 q 304 405 397 359 q 158 502 203 454 q 100 646 100 562 q 185 833 100 770 q 401 895 269 895 q 610 874 555 895 z "},"Ș":{"ha":677,"x_min":21,"x_max":610,"o":"m 610 874 l 583 766 q 392 799 502 799 q 204 671 204 799 q 242 587 204 621 q 366 511 281 552 q 534 399 475 460 q 593 245 593 338 q 233 -22 593 -22 q 21 7 112 -22 l 55 113 q 243 74 146 74 q 486 217 486 74 q 441 318 486 277 q 304 405 397 359 q 150 508 200 454 q 100 646 100 562 q 185 833 100 770 q 401 895 269 895 q 610 874 555 895 m 337 -149 q 294 -272 337 -217 q 210 -353 250 -328 l 187 -326 q 239 -232 235 -271 q 181 -157 181 -214 q 203 -96 181 -122 q 269 -71 224 -71 q 318 -92 300 -71 q 337 -149 337 -113 z "},"Ť":{"ha":701,"x_min":66,"x_max":720,"o":"m 720 883 l 707 787 q 445 794 580 794 q 408 464 431 685 q 373 0 385 243 l 248 0 q 305 464 263 106 q 336 794 326 661 q 66 786 240 794 l 79 883 l 720 883 m 237 1146 l 304 1146 q 410 1032 304 1137 q 545 1146 545 1137 l 612 1146 q 540 1054 611 1137 q 465 960 469 971 l 340 960 q 287 1054 337 971 q 237 1146 237 1137 z "},"Ţ":{"ha":701,"x_min":66,"x_max":720,"o":"m 720 883 l 707 787 q 445 794 580 794 q 408 464 431 685 q 373 0 385 243 l 248 0 q 305 464 263 106 q 336 794 326 661 q 66 786 240 794 l 79 883 l 720 883 m 377 -149 q 334 -272 377 -217 q 250 -353 290 -328 l 227 -326 q 279 -232 275 -271 q 221 -157 221 -214 q 243 -96 221 -122 q 309 -71 264 -71 q 358 -92 340 -71 q 377 -149 377 -113 z "},"Ŧ":{"ha":701,"x_min":66,"x_max":720,"o":"m 720 883 l 707 787 q 445 794 580 794 q 412 505 433 695 l 637 505 l 623 432 l 405 432 q 373 0 384 225 l 248 0 q 301 432 262 102 l 76 432 l 90 505 l 309 505 q 336 794 327 675 q 66 786 240 794 l 79 883 l 720 883 z "},"Ù":{"ha":869,"x_min":84,"x_max":819,"o":"m 819 883 q 768 436 806 785 q 374 -18 720 -18 q 161 57 238 -18 q 84 318 84 132 q 90 429 84 377 q 126 883 104 572 l 255 883 q 204 478 238 760 q 196 334 196 401 q 242 131 196 191 q 391 71 289 71 q 577 155 513 71 q 667 479 642 239 q 692 883 682 622 l 819 883 m 545 960 l 468 960 q 394 1055 468 971 q 319 1146 321 1138 l 452 1146 q 498 1055 452 1139 q 545 960 545 971 z "},"Ú":{"ha":869,"x_min":84,"x_max":819,"o":"m 819 883 q 768 436 806 785 q 374 -18 720 -18 q 161 57 238 -18 q 84 318 84 132 q 90 429 84 377 q 126 883 104 572 l 255 883 q 204 478 238 760 q 196 334 196 401 q 242 131 196 191 q 391 71 289 71 q 577 155 513 71 q 667 479 642 239 q 692 883 682 622 l 819 883 m 725 1146 q 625 1055 725 1138 q 525 960 525 971 l 448 960 q 517 1055 448 971 q 586 1146 586 1139 l 725 1146 z "},"Û":{"ha":869,"x_min":84,"x_max":819,"o":"m 819 883 q 768 436 806 785 q 374 -18 720 -18 q 161 57 238 -18 q 84 318 84 132 q 90 429 84 377 q 126 883 104 572 l 255 883 q 204 478 238 760 q 196 334 196 401 q 242 131 196 191 q 391 71 289 71 q 577 155 513 71 q 667 479 642 239 q 692 883 682 622 l 819 883 m 681 960 l 614 960 q 508 1074 614 969 q 373 960 374 969 l 307 960 q 378 1052 307 969 q 454 1146 450 1135 l 578 1146 q 631 1052 581 1135 q 681 960 681 969 z "},"Ũ":{"ha":869,"x_min":84,"x_max":819,"o":"m 819 883 q 768 436 806 785 q 374 -18 720 -18 q 161 57 238 -18 q 84 318 84 132 q 90 429 84 377 q 126 883 104 572 l 255 883 q 204 478 238 760 q 196 334 196 401 q 242 131 196 191 q 391 71 289 71 q 577 155 513 71 q 667 479 642 239 q 692 883 682 622 l 819 883 m 760 1112 q 583 994 673 994 q 503 1010 551 994 q 425 1026 455 1026 q 305 967 368 1026 l 269 1001 q 446 1122 356 1122 q 527 1107 479 1122 q 605 1092 574 1092 q 724 1146 662 1092 l 760 1112 z "},"Ü":{"ha":869,"x_min":84,"x_max":819,"o":"m 819 883 q 768 436 806 785 q 374 -18 720 -18 q 161 57 238 -18 q 84 318 84 132 q 90 429 84 377 q 126 883 104 572 l 255 883 q 204 478 238 760 q 196 334 196 401 q 242 131 196 191 q 391 71 289 71 q 577 155 513 71 q 667 479 642 239 q 692 883 682 622 l 819 883 m 688 1066 q 666 1005 688 1030 q 608 979 644 979 q 551 1039 551 979 q 575 1099 551 1074 q 634 1124 599 1124 q 688 1066 688 1124 m 446 1066 q 422 1005 446 1030 q 364 979 399 979 q 310 1038 310 979 q 333 1099 310 1074 q 391 1124 356 1124 q 446 1066 446 1124 z "},"Ū":{"ha":869,"x_min":84,"x_max":819,"o":"m 819 883 q 768 436 806 785 q 374 -18 720 -18 q 161 57 238 -18 q 84 318 84 132 q 90 429 84 377 q 126 883 104 572 l 255 883 q 204 478 238 760 q 196 334 196 401 q 242 131 196 191 q 391 71 289 71 q 577 155 513 71 q 667 479 642 239 q 692 883 682 622 l 819 883 m 665 1085 l 648 1001 l 342 1001 l 359 1085 l 665 1085 z "},"Ŭ":{"ha":869,"x_min":84,"x_max":819,"o":"m 819 883 q 768 436 806 785 q 374 -18 720 -18 q 161 57 238 -18 q 84 318 84 132 q 90 429 84 377 q 126 883 104 572 l 255 883 q 204 478 238 760 q 196 334 196 401 q 242 131 196 191 q 391 71 289 71 q 577 155 513 71 q 667 479 642 239 q 692 883 682 622 l 819 883 m 692 1112 q 489 964 618 964 q 316 1112 353 964 l 381 1146 q 496 1048 414 1048 q 635 1146 572 1048 l 692 1112 z "},"Ů":{"ha":869,"x_min":84,"x_max":819,"o":"m 819 883 q 768 436 806 785 q 374 -18 720 -18 q 161 57 238 -18 q 84 318 84 132 q 90 429 84 377 q 126 883 104 572 l 255 883 q 204 478 238 760 q 196 334 196 401 q 242 131 196 191 q 391 71 289 71 q 577 155 513 71 q 667 479 642 239 q 692 883 682 622 l 819 883 m 644 1074 q 597 962 644 1004 q 490 921 551 921 q 395 956 434 921 q 357 1056 357 991 q 404 1166 357 1126 q 511 1207 450 1207 q 606 1173 567 1207 q 644 1074 644 1138 m 581 1069 q 559 1128 581 1107 q 506 1149 537 1149 q 446 1125 472 1149 q 420 1059 420 1101 q 442 1000 420 1021 q 495 979 464 979 q 555 1003 529 979 q 581 1069 581 1027 z "},"Ű":{"ha":869,"x_min":84,"x_max":819,"o":"m 819 883 q 768 436 806 785 q 374 -18 720 -18 q 161 57 238 -18 q 84 318 84 132 q 90 429 84 377 q 126 883 104 572 l 255 883 q 204 478 238 760 q 196 334 196 401 q 242 131 196 191 q 391 71 289 71 q 577 155 513 71 q 667 479 642 239 q 692 883 682 622 l 819 883 m 529 1146 q 465 1051 528 1131 q 397 960 403 971 l 330 960 q 362 1052 331 971 q 395 1146 393 1132 l 529 1146 m 774 1146 q 710 1051 772 1131 q 642 960 648 971 l 574 960 q 609 1052 581 971 q 640 1146 638 1132 l 774 1146 z "},"Ų":{"ha":869,"x_min":84,"x_max":819,"o":"m 819 883 q 790 644 803 755 q 767 436 777 532 q 535 12 732 99 q 422 -70 457 -22 q 387 -172 387 -119 q 446 -237 387 -237 q 502 -227 472 -237 l 510 -319 q 422 -330 475 -330 q 369 -323 393 -330 q 329 -302 345 -316 q 304 -265 313 -288 q 295 -210 295 -242 q 322 -107 295 -155 q 411 -24 349 -60 l 411 -18 q 378 -18 400 -18 q 244 2 300 -18 q 153 64 189 22 q 101 169 117 106 q 84 317 84 232 l 84 318 q 90 429 84 377 q 126 883 104 572 l 255 883 q 204 478 238 760 q 196 334 196 401 q 242 131 196 191 q 391 71 289 71 q 579 155 516 71 q 667 479 642 239 q 692 883 682 622 l 819 883 z "},"Ẁ":{"ha":1250,"x_min":50,"x_max":1286,"o":"m 1286 883 q 1090 437 1286 831 q 888 0 893 43 l 804 0 q 727 351 804 54 q 643 745 649 647 l 636 745 q 479 347 612 649 q 342 0 347 45 l 258 0 q 154 464 258 69 q 50 883 50 858 l 174 883 q 245 539 174 857 q 317 136 317 220 l 323 136 q 472 526 331 209 q 614 883 614 842 l 727 883 q 798 527 727 846 q 869 136 869 209 l 874 136 q 1021 508 881 197 q 1160 883 1160 818 l 1286 883 m 716 960 l 639 960 q 565 1055 639 971 q 490 1146 492 1138 l 623 1146 q 669 1055 623 1139 q 716 960 716 971 z "},"Ẃ":{"ha":1250,"x_min":50,"x_max":1286,"o":"m 1286 883 q 1090 437 1286 831 q 888 0 893 43 l 804 0 q 727 351 804 54 q 643 745 649 647 l 636 745 q 479 347 612 649 q 342 0 347 45 l 258 0 q 154 464 258 69 q 50 883 50 858 l 174 883 q 245 539 174 857 q 317 136 317 220 l 323 136 q 472 526 331 209 q 614 883 614 842 l 727 883 q 798 527 727 846 q 869 136 869 209 l 874 136 q 1021 508 881 197 q 1160 883 1160 818 l 1286 883 m 913 1146 q 813 1055 913 1138 q 713 960 713 971 l 635 960 q 705 1055 635 971 q 774 1146 774 1139 l 913 1146 z "},"Ŵ":{"ha":1250,"x_min":50,"x_max":1286,"o":"m 1286 883 q 1090 437 1286 831 q 888 0 893 43 l 804 0 q 727 351 804 54 q 643 745 649 647 l 636 745 q 479 347 612 649 q 342 0 347 45 l 258 0 q 154 464 258 69 q 50 883 50 858 l 174 883 q 245 539 174 857 q 317 136 317 220 l 323 136 q 472 526 331 209 q 614 883 614 842 l 727 883 q 798 527 727 846 q 869 136 869 209 l 874 136 q 1021 508 881 197 q 1160 883 1160 818 l 1286 883 m 849 960 l 783 960 q 676 1074 783 969 q 541 960 542 969 l 475 960 q 547 1052 475 969 q 622 1146 618 1135 l 747 1146 q 799 1052 749 1135 q 849 960 849 969 z "},"Ẅ":{"ha":1250,"x_min":50,"x_max":1286,"o":"m 1286 883 q 1090 437 1286 831 q 888 0 893 43 l 804 0 q 727 351 804 54 q 643 745 649 647 l 636 745 q 479 347 612 649 q 342 0 347 45 l 258 0 q 154 464 258 69 q 50 883 50 858 l 174 883 q 245 539 174 857 q 317 136 317 220 l 323 136 q 472 526 331 209 q 614 883 614 842 l 727 883 q 798 527 727 846 q 869 136 869 209 l 874 136 q 1021 508 881 197 q 1160 883 1160 818 l 1286 883 m 881 1066 q 859 1005 881 1030 q 801 979 836 979 q 744 1039 744 979 q 768 1099 744 1074 q 827 1124 791 1124 q 881 1066 881 1124 m 638 1066 q 615 1005 638 1030 q 557 979 592 979 q 503 1038 503 979 q 526 1099 503 1074 q 584 1124 549 1124 q 638 1066 638 1124 z "},"Ỳ":{"ha":711,"x_min":50,"x_max":748,"o":"m 748 883 q 633 705 748 857 q 453 457 517 553 q 380 288 388 361 q 366 0 366 152 l 237 0 q 275 311 275 255 q 231 497 275 394 q 119 730 187 600 q 50 883 50 861 l 182 883 q 268 664 182 857 q 354 405 354 471 l 361 405 q 493 661 368 468 q 619 883 619 853 l 748 883 m 452 960 l 375 960 q 301 1055 375 971 q 227 1146 228 1138 l 359 1146 q 406 1055 359 1139 q 452 960 452 971 z "},"Ý":{"ha":711,"x_min":50,"x_max":748,"o":"m 748 883 q 633 705 748 857 q 453 457 517 553 q 380 288 388 361 q 366 0 366 152 l 237 0 q 275 311 275 255 q 231 497 275 394 q 119 730 187 600 q 50 883 50 861 l 182 883 q 268 664 182 857 q 354 405 354 471 l 361 405 q 493 661 368 468 q 619 883 619 853 l 748 883 m 629 1146 q 529 1055 629 1138 q 429 960 429 971 l 351 960 q 420 1055 351 971 q 490 1146 490 1139 l 629 1146 z "},"Ŷ":{"ha":711,"x_min":50,"x_max":748,"o":"m 748 883 q 633 705 748 857 q 453 457 517 553 q 380 288 388 361 q 366 0 366 152 l 237 0 q 275 311 275 255 q 231 497 275 394 q 119 730 187 600 q 50 883 50 861 l 182 883 q 268 664 182 857 q 354 405 354 471 l 361 405 q 493 661 368 468 q 619 883 619 853 l 748 883 m 595 960 l 528 960 q 422 1074 528 969 q 287 960 288 969 l 220 960 q 292 1052 221 969 q 368 1146 363 1135 l 492 1146 q 545 1052 495 1135 q 595 960 595 969 z "},"Ÿ":{"ha":711,"x_min":50,"x_max":748,"o":"m 748 883 q 633 705 748 857 q 453 457 517 553 q 380 288 388 361 q 366 0 366 152 l 237 0 q 275 311 275 255 q 231 497 275 394 q 119 730 187 600 q 50 883 50 861 l 182 883 q 268 664 182 857 q 354 405 354 471 l 361 405 q 493 661 368 468 q 619 883 619 853 l 748 883 m 604 1066 q 582 1005 604 1030 q 524 979 559 979 q 467 1039 467 979 q 491 1099 467 1074 q 550 1124 515 1124 q 604 1066 604 1124 m 361 1066 q 338 1005 361 1030 q 280 979 315 979 q 226 1038 226 979 q 249 1099 226 1074 q 307 1124 272 1124 q 361 1066 361 1124 z "},"Ź":{"ha":678,"x_min":19,"x_max":650,"o":"m 650 883 l 635 799 q 365 409 551 690 q 176 100 178 128 l 174 92 q 587 111 307 92 l 572 0 l 19 0 l 33 81 q 319 480 127 201 q 513 791 510 759 l 515 799 q 113 782 374 799 l 124 883 l 650 883 m 613 1146 q 513 1055 613 1138 q 413 960 413 971 l 336 960 q 405 1055 336 971 q 474 1146 474 1139 l 613 1146 z "},"Ž":{"ha":678,"x_min":19,"x_max":650,"o":"m 650 883 l 635 799 q 365 409 551 690 q 176 100 178 128 l 174 92 q 587 111 307 92 l 572 0 l 19 0 l 33 81 q 319 480 127 201 q 513 791 510 759 l 515 799 q 113 782 374 799 l 124 883 l 650 883 m 220 1146 l 286 1146 q 393 1032 286 1137 q 528 1146 527 1137 l 594 1146 q 522 1054 593 1137 q 447 960 451 971 l 322 960 q 270 1054 319 971 q 220 1146 220 1137 z "},"Ż":{"ha":678,"x_min":19,"x_max":650,"o":"m 650 883 l 635 799 q 365 409 551 690 q 176 100 178 128 l 174 92 q 587 111 307 92 l 572 0 l 19 0 l 33 81 q 319 480 127 201 q 513 791 510 759 l 515 799 q 113 782 374 799 l 124 883 l 650 883 m 478 1072 q 452 1005 478 1033 q 387 977 427 977 q 326 1043 326 977 q 351 1109 326 1082 q 416 1137 377 1137 q 478 1072 478 1137 z "},"Ŋ":{"ha":845,"x_min":52,"x_max":793,"o":"m 793 883 q 740 464 765 703 q 713 167 720 269 q 697 -38 707 64 q 606 -223 686 -146 q 384 -300 527 -300 l 389 -205 q 538 -162 486 -205 q 603 -3 590 -119 l 606 22 q 433 325 569 85 q 224 740 245 654 l 218 740 q 199 460 212 576 q 160 0 176 232 l 52 0 q 111 464 68 101 q 138 883 136 703 l 270 883 q 431 574 268 864 q 622 176 604 269 l 629 176 q 647 457 635 342 q 675 883 673 708 l 793 883 z "},"Ð":{"ha":821,"x_min":6,"x_max":774,"o":"m 774 502 q 635 140 774 290 q 281 -9 496 -9 q 58 0 214 -9 l 110 397 l 6 385 l 23 498 q 120 496 81 496 q 145 883 141 703 l 222 883 q 303 885 248 883 q 383 887 358 887 q 676 775 579 887 q 774 502 774 663 m 659 490 q 580 709 659 623 q 336 795 500 795 q 248 789 296 795 q 220 496 243 724 q 474 518 316 503 l 459 409 q 211 404 334 409 q 184 92 195 245 q 283 81 234 81 q 557 199 456 81 q 659 490 659 317 z "},"Þ":{"ha":717,"x_min":60,"x_max":687,"o":"m 687 550 q 566 312 687 390 q 255 233 444 233 l 199 233 q 186 0 186 127 l 60 0 q 117 468 75 106 q 146 883 138 677 l 273 883 q 256 760 262 803 q 437 764 337 764 q 619 703 551 764 q 687 550 687 642 m 574 525 q 365 676 574 676 q 244 666 309 676 q 210 320 237 619 l 264 320 q 574 525 574 320 z "},"a":{"ha":665,"x_min":37,"x_max":606,"o":"m 606 675 q 545 174 545 330 q 557 7 545 102 l 442 -10 q 438 141 438 50 l 432 141 q 205 -16 346 -16 q 80 50 123 -16 q 37 220 37 115 q 155 515 37 390 q 496 644 274 641 l 526 665 l 606 675 m 483 567 q 232 473 311 564 q 153 233 153 382 q 256 79 153 79 q 388 182 328 79 q 463 369 448 286 q 483 567 477 453 z "},"b":{"ha":750,"x_min":65,"x_max":692,"o":"m 692 404 q 598 101 692 220 q 346 -18 505 -18 q 184 26 238 -18 l 179 26 l 161 0 l 65 -7 q 124 506 74 56 q 153 954 153 777 l 281 961 q 269 857 281 937 q 237 591 252 740 q 225 500 233 557 l 231 500 q 476 665 320 665 q 632 594 572 665 q 692 404 692 524 m 576 363 q 429 572 576 572 q 284 479 355 572 q 203 262 214 386 l 190 108 q 317 68 256 68 q 511 151 446 68 q 576 363 576 233 z "},"c":{"ha":586,"x_min":58,"x_max":559,"o":"m 559 649 l 531 543 q 396 564 466 564 q 233 485 294 564 q 172 298 172 406 q 215 139 172 200 q 342 79 258 79 q 529 141 431 79 l 512 41 q 319 -18 442 -18 q 120 74 189 -18 q 58 283 58 155 q 160 549 58 439 q 435 660 261 660 q 559 649 512 660 z "},"d":{"ha":747,"x_min":58,"x_max":718,"o":"m 718 958 q 694 812 718 941 q 654 507 671 683 q 636 176 636 331 q 642 0 636 84 l 536 -9 q 525 149 525 47 l 519 149 q 274 -16 430 -16 q 118 55 178 -16 q 58 246 58 126 q 152 549 58 431 q 404 668 245 668 q 562 623 506 668 l 568 623 q 592 954 582 764 l 718 958 m 560 542 q 433 581 501 581 q 240 502 306 581 q 174 287 174 423 q 321 78 174 78 q 466 171 395 78 q 547 388 536 264 l 560 542 z "},"e":{"ha":661,"x_min":58,"x_max":624,"o":"m 624 516 q 539 377 624 425 q 172 311 431 316 q 214 134 172 189 q 357 79 256 79 q 571 148 455 79 l 554 47 q 328 -18 463 -18 q 124 65 189 -18 q 58 275 58 148 q 168 569 58 463 q 420 674 277 674 q 566 632 507 674 q 624 516 624 590 m 516 513 q 483 569 516 549 q 397 588 450 588 q 260 539 323 588 q 178 389 197 490 q 463 433 386 393 q 516 513 516 460 z "},"f":{"ha":462,"x_min":11,"x_max":513,"o":"m 513 964 l 492 878 q 417 883 456 883 q 331 833 357 883 q 288 631 304 783 q 467 637 352 631 l 454 536 q 279 541 329 541 q 244 76 260 292 q 177 -210 228 -140 q 38 -305 126 -280 l 11 -252 q 100 -135 74 -201 q 144 118 126 -68 q 180 541 163 304 q 43 536 141 541 l 58 636 q 190 631 146 631 q 265 891 209 808 q 433 974 321 974 q 513 964 472 974 m 240 650 z "},"g":{"ha":705,"x_min":-19,"x_max":722,"o":"m 722 730 l 702 636 q 566 594 591 636 l 566 589 q 595 481 595 538 q 512 293 595 361 q 305 224 429 224 q 203 238 237 224 q 163 160 163 210 q 195 114 163 125 q 438 102 227 102 q 622 -40 622 102 q 507 -266 622 -180 q 243 -351 393 -351 q 41 -298 101 -351 q -19 -153 -19 -245 q 115 31 -19 -26 l 115 37 q 74 119 74 59 q 151 252 74 189 l 151 258 q 98 316 125 272 q 72 415 72 360 q 154 600 72 535 q 361 665 235 665 q 529 621 467 665 l 535 621 q 580 713 554 687 q 650 740 606 740 q 722 730 697 740 m 519 -84 q 480 -14 519 -30 q 303 1 441 1 q 170 9 239 1 q 78 -130 78 -36 q 255 -273 78 -273 q 442 -220 366 -273 q 519 -84 519 -167 m 488 462 q 446 562 488 526 q 345 594 407 594 q 222 547 270 594 q 175 425 175 500 q 214 329 175 363 q 320 296 253 296 q 441 342 394 296 q 488 462 488 388 z "},"h":{"ha":729,"x_min":65,"x_max":648,"o":"m 648 464 q 633 245 648 410 q 618 0 618 81 l 503 -7 q 523 185 503 23 q 543 431 543 347 q 514 541 543 510 q 423 572 485 572 q 281 475 349 572 q 201 262 213 378 q 178 0 186 110 l 65 -7 q 122 506 73 56 q 151 954 151 777 l 279 961 q 267 857 279 937 q 235 591 250 740 q 223 500 231 557 l 229 500 q 471 665 317 665 q 648 464 648 665 z "},"i":{"ha":315,"x_min":65,"x_max":292,"o":"m 243 657 q 232 523 244 608 q 205 310 219 437 q 183 0 195 214 l 65 -7 q 107 310 81 100 q 121 560 121 446 q 119 639 121 608 l 243 657 m 292 857 q 267 790 292 818 q 201 762 241 762 q 140 828 140 762 q 165 895 140 867 q 231 922 191 922 q 292 857 292 922 z "},"j":{"ha":315,"x_min":-39,"x_max":292,"o":"m 243 657 q 225 470 243 608 q 192 164 206 333 q 174 -38 177 -5 q -13 -304 151 -257 l -39 -252 q 47 -132 23 -201 q 97 186 71 -62 q 123 565 123 435 q 120 639 123 612 l 243 657 m 292 857 q 266 790 292 818 q 201 762 240 762 q 139 828 139 762 q 166 895 139 867 q 232 922 193 922 q 292 857 292 922 z "},"k":{"ha":676,"x_min":65,"x_max":665,"o":"m 665 647 q 579 537 665 625 q 421 391 492 450 l 420 385 q 550 172 496 295 q 604 0 604 48 l 481 -7 q 442 135 481 29 q 349 314 403 240 q 267 218 302 267 q 178 0 184 101 l 65 -7 q 127 506 76 57 q 155 954 155 770 l 279 961 q 245 662 279 926 q 193 224 212 397 l 200 224 q 381 465 236 309 q 526 651 526 621 l 665 647 z "},"l":{"ha":319,"x_min":65,"x_max":282,"o":"m 282 961 q 262 780 282 921 q 229 506 242 638 q 189 3 195 189 l 65 -10 q 88 171 65 18 q 130 506 111 324 q 159 954 159 783 l 282 961 z "},"m":{"ha":1115,"x_min":65,"x_max":1034,"o":"m 1034 464 q 1019 232 1034 388 q 1004 0 1004 76 l 889 -7 q 908 204 889 45 q 928 424 928 363 q 904 538 928 505 q 830 572 881 572 q 683 482 745 572 q 609 262 622 393 q 593 0 593 96 l 478 -7 q 498 202 478 39 q 517 424 517 366 q 494 538 517 505 q 420 572 471 572 q 275 478 338 572 q 199 262 212 384 q 176 0 182 98 l 65 -7 q 113 468 113 345 q 102 642 113 539 l 216 659 q 220 500 220 592 l 226 500 q 454 665 304 665 q 576 619 535 665 q 616 500 616 572 l 622 500 q 857 665 706 665 q 1034 464 1034 665 z "},"n":{"ha":726,"x_min":65,"x_max":646,"o":"m 646 464 q 630 245 646 410 q 615 0 615 81 l 500 -7 q 520 185 500 23 q 540 431 540 347 q 511 541 540 510 q 420 572 482 572 q 278 475 347 572 q 199 262 210 378 q 176 0 184 110 l 65 -7 q 113 468 113 345 q 102 642 113 539 l 216 659 q 220 500 220 599 l 226 500 q 469 665 314 665 q 646 464 646 665 z "},"o":{"ha":736,"x_min":58,"x_max":677,"o":"m 677 378 q 579 94 677 215 q 319 -26 480 -26 q 135 59 212 -26 q 58 281 58 145 q 157 558 58 442 q 418 674 255 674 q 602 594 526 674 q 677 378 677 514 m 562 359 q 519 521 562 454 q 395 589 476 589 q 233 494 294 589 q 173 289 173 399 q 217 126 173 194 q 342 59 260 59 q 502 154 442 59 q 562 359 562 248 z "},"p":{"ha":745,"x_min":27,"x_max":687,"o":"m 687 404 q 593 101 687 220 q 341 -18 500 -18 q 183 26 233 -18 l 178 26 q 148 -303 158 -162 l 27 -310 q 113 488 113 315 q 102 642 113 553 l 216 659 q 220 500 220 602 l 226 500 q 471 665 315 665 q 627 594 568 665 q 687 404 687 524 m 571 363 q 424 572 571 572 q 280 479 351 572 q 199 262 210 386 l 185 108 q 313 68 251 68 q 507 150 442 68 q 571 363 571 232 z "},"q":{"ha":739,"x_min":58,"x_max":680,"o":"m 680 652 q 623 195 669 587 q 579 -302 605 29 l 466 -309 q 493 -78 475 -237 q 525 149 510 82 l 519 149 q 274 -16 430 -16 q 118 55 178 -16 q 58 246 58 126 q 152 549 58 429 q 404 668 245 668 q 562 623 512 668 l 568 623 l 597 644 l 680 652 m 560 542 q 435 581 500 581 q 240 502 306 581 q 174 287 174 422 q 321 78 174 78 q 465 171 393 78 q 547 388 536 264 l 560 542 z "},"r":{"ha":505,"x_min":65,"x_max":516,"o":"m 516 652 l 475 544 q 385 557 428 557 q 212 397 229 557 q 176 0 186 165 l 65 -7 q 113 468 113 345 q 102 642 113 539 l 216 659 q 222 559 222 603 l 227 559 q 401 667 309 667 q 516 652 450 667 z "},"s":{"ha":545,"x_min":15,"x_max":500,"o":"m 500 649 l 469 551 q 313 576 401 576 q 182 488 182 576 q 207 434 182 456 q 302 382 232 412 q 475 195 475 309 q 212 -14 475 -14 q 15 4 105 -14 l 46 104 q 221 74 126 74 q 374 161 374 74 q 252 276 374 222 q 78 464 78 352 q 149 612 78 561 q 323 664 220 664 q 500 649 435 664 z "},"t":{"ha":516,"x_min":58,"x_max":463,"o":"m 460 124 l 443 34 q 296 -14 372 -14 q 167 32 203 -14 q 130 178 130 77 q 169 541 130 262 q 58 536 133 541 l 73 635 q 184 631 136 631 q 213 824 188 659 l 315 835 q 283 631 302 766 q 463 637 346 631 l 450 536 q 267 541 338 541 q 232 214 232 313 q 252 109 232 137 q 318 80 271 80 q 460 124 386 80 m 240 650 z "},"u":{"ha":726,"x_min":81,"x_max":661,"o":"m 661 658 q 614 157 614 281 q 625 4 614 86 l 510 -13 q 506 145 506 47 l 500 145 q 258 -20 412 -20 q 81 182 81 -20 q 96 399 81 235 q 111 644 111 564 l 229 658 q 208 464 229 629 q 186 215 186 298 q 215 105 186 136 q 306 74 244 74 q 448 171 380 74 q 528 384 516 268 q 544 644 544 549 l 661 658 z "},"v":{"ha":651,"x_min":58,"x_max":636,"o":"m 636 652 q 474 309 636 585 q 308 0 311 34 l 221 0 q 140 335 221 93 q 58 644 58 578 l 183 652 q 240 385 183 588 q 297 127 297 182 l 302 127 q 408 361 305 151 q 511 644 511 572 l 636 652 z "},"w":{"ha":1027,"x_min":58,"x_max":1013,"o":"m 1013 652 q 870 315 1013 591 q 724 0 728 39 l 637 0 q 592 218 637 26 q 528 527 548 410 l 522 527 q 384 214 477 405 q 288 0 291 24 l 200 0 q 129 314 200 35 q 58 644 58 593 l 178 652 q 223 377 178 594 q 269 127 269 160 l 275 127 q 383 393 281 180 q 486 644 486 605 l 595 644 q 649 385 595 613 q 702 127 702 156 l 709 127 q 803 373 712 163 q 894 644 894 583 l 1013 652 z "},"x":{"ha":687,"x_min":15,"x_max":648,"o":"m 648 652 q 556 516 648 623 q 404 352 465 409 l 404 345 q 529 149 450 281 q 609 0 609 16 l 469 -7 q 415 117 469 11 q 327 280 362 222 l 323 280 q 218 126 285 233 q 151 0 151 20 l 15 -7 q 113 144 15 26 q 292 342 211 261 l 292 347 q 183 513 256 395 q 110 644 110 631 l 249 652 q 292 542 249 635 q 362 405 334 448 l 368 405 q 461 536 404 445 q 519 644 519 627 l 648 652 z "},"y":{"ha":629,"x_min":-1,"x_max":614,"o":"m 614 652 q 474 310 614 565 q 311 -8 333 55 q 197 -233 250 -179 q -1 -300 134 -300 l 3 -205 q 159 -139 90 -205 q 228 12 228 -73 q 143 349 228 115 q 58 644 58 583 l 191 652 q 244 370 191 568 q 298 116 298 172 l 305 116 q 403 357 309 151 q 497 644 497 562 l 614 652 z "},"z":{"ha":583,"x_min":23,"x_max":546,"o":"m 546 644 l 528 545 q 323 307 474 490 q 172 97 172 124 l 172 91 q 507 102 366 91 l 492 0 l 23 0 l 40 98 q 242 327 77 132 q 408 547 408 523 l 408 553 q 83 545 201 553 l 98 644 l 546 644 z "},"à":{"ha":665,"x_min":37,"x_max":606,"o":"m 606 675 q 545 174 545 330 q 557 7 545 102 l 442 -10 q 438 141 438 50 l 432 141 q 205 -16 346 -16 q 80 50 123 -16 q 37 220 37 115 q 155 515 37 390 q 496 644 274 641 l 526 665 l 606 675 m 483 567 q 232 473 311 564 q 153 233 153 382 q 256 79 153 79 q 388 182 328 79 q 463 369 448 286 q 483 567 477 453 m 452 736 l 374 736 q 301 848 374 747 q 226 956 227 948 l 358 956 q 405 848 358 949 q 452 736 452 747 z "},"á":{"ha":665,"x_min":37,"x_max":606,"o":"m 606 675 q 545 174 545 330 q 557 7 545 102 l 442 -10 q 438 141 438 50 l 432 141 q 205 -16 346 -16 q 80 50 123 -16 q 37 220 37 115 q 155 515 37 390 q 496 644 274 641 l 526 665 l 606 675 m 483 567 q 232 473 311 564 q 153 233 153 382 q 256 79 153 79 q 388 182 328 79 q 463 369 448 286 q 483 567 477 453 m 603 956 q 503 848 603 948 q 403 736 403 747 l 326 736 q 395 848 326 747 q 464 956 464 949 l 603 956 z "},"â":{"ha":665,"x_min":37,"x_max":606,"o":"m 606 675 q 545 174 545 330 q 557 7 545 102 l 442 -10 q 438 141 438 50 l 432 141 q 205 -16 346 -16 q 80 50 123 -16 q 37 220 37 115 q 155 515 37 390 q 496 644 274 641 l 526 665 l 606 675 m 483 567 q 232 473 311 564 q 153 233 153 382 q 256 79 153 79 q 388 182 328 79 q 463 369 448 286 q 483 567 477 453 m 567 736 l 500 736 q 394 878 500 745 q 259 736 260 745 l 193 736 q 264 845 193 745 q 340 956 336 945 l 465 956 q 517 845 467 945 q 567 736 567 745 z "},"ã":{"ha":665,"x_min":37,"x_max":680,"o":"m 606 675 q 545 174 545 330 q 557 7 545 102 l 442 -10 q 438 141 438 50 l 432 141 q 205 -16 346 -16 q 80 50 123 -16 q 37 220 37 115 q 155 515 37 390 q 496 644 274 641 l 526 665 l 606 675 m 483 567 q 232 473 311 564 q 153 233 153 382 q 256 79 153 79 q 388 182 328 79 q 463 369 448 286 q 483 567 477 453 m 680 910 q 503 783 593 783 q 423 800 471 783 q 345 816 375 816 q 225 734 288 816 l 189 768 q 366 911 276 911 q 447 897 399 911 q 525 882 494 882 q 644 944 582 882 l 680 910 z "},"ä":{"ha":665,"x_min":37,"x_max":606,"o":"m 606 675 q 545 174 545 330 q 557 7 545 102 l 442 -10 q 438 141 438 50 l 432 141 q 205 -16 346 -16 q 80 50 123 -16 q 37 220 37 115 q 155 515 37 390 q 496 644 274 641 l 526 665 l 606 675 m 483 567 q 232 473 311 564 q 153 233 153 382 q 256 79 153 79 q 388 182 328 79 q 463 369 448 286 q 483 567 477 453 m 598 857 q 576 796 598 821 q 518 770 553 770 q 461 830 461 770 q 485 890 461 865 q 544 916 509 916 q 598 857 598 916 m 355 857 q 332 796 355 821 q 274 770 309 770 q 220 829 220 770 q 243 890 220 865 q 301 916 266 916 q 355 857 355 916 z "},"ā":{"ha":665,"x_min":37,"x_max":606,"o":"m 606 675 q 545 174 545 330 q 557 7 545 102 l 442 -10 q 438 141 438 50 l 432 141 q 205 -16 346 -16 q 80 50 123 -16 q 37 220 37 115 q 155 515 37 390 q 496 644 274 641 l 526 665 l 606 675 m 483 567 q 232 473 311 564 q 153 233 153 382 q 256 79 153 79 q 388 182 328 79 q 463 369 448 286 q 483 567 477 453 m 551 888 l 534 804 l 254 804 l 271 888 l 551 888 z "},"ă":{"ha":665,"x_min":37,"x_max":607,"o":"m 606 675 q 545 174 545 330 q 557 7 545 102 l 442 -10 q 438 141 438 50 l 432 141 q 205 -16 346 -16 q 80 50 123 -16 q 37 220 37 115 q 155 515 37 390 q 496 644 274 641 l 526 665 l 606 675 m 483 567 q 232 473 311 564 q 153 233 153 382 q 256 79 153 79 q 388 182 328 79 q 463 369 448 286 q 483 567 477 453 m 607 909 q 403 754 532 754 q 231 909 268 754 l 296 943 q 411 838 329 838 q 549 943 487 838 l 607 909 z "},"å":{"ha":665,"x_min":37,"x_max":606,"o":"m 606 675 q 545 174 545 330 q 557 7 545 102 l 442 -10 q 438 141 438 50 l 432 141 q 205 -16 346 -16 q 80 50 123 -16 q 37 220 37 115 q 155 515 37 390 q 496 644 274 641 l 526 665 l 606 675 m 483 567 q 232 473 311 564 q 153 233 153 382 q 256 79 153 79 q 388 182 328 79 q 463 369 448 286 q 483 567 477 453 m 554 871 q 507 760 554 801 q 399 718 460 718 q 305 753 344 718 q 267 853 267 788 q 313 964 267 923 q 421 1004 360 1004 q 515 970 477 1004 q 554 871 554 935 m 490 866 q 469 925 490 905 q 416 946 447 946 q 356 922 382 946 q 330 857 330 898 q 352 797 330 818 q 405 777 374 777 q 465 801 439 777 q 490 866 490 825 z "},"ǻ":{"ha":665,"x_min":37,"x_max":665,"o":"m 606 675 q 545 174 545 330 q 557 7 545 102 l 442 -10 q 438 141 438 50 l 432 141 q 205 -16 346 -16 q 80 50 123 -16 q 37 220 37 115 q 155 515 37 390 q 496 644 274 641 l 526 665 l 606 675 m 483 567 q 232 473 311 564 q 153 233 153 382 q 256 79 153 79 q 388 182 328 79 q 463 369 448 286 q 483 567 477 453 m 554 859 q 507 747 554 788 q 399 705 460 705 q 305 740 344 705 q 267 840 267 775 q 313 951 267 910 q 421 991 360 991 q 515 957 477 991 q 554 859 554 922 m 490 853 q 469 912 490 892 q 416 933 447 933 q 356 909 382 933 q 330 844 330 885 q 352 784 330 805 q 405 764 374 764 q 465 788 439 764 q 490 853 490 812 m 665 1204 q 565 1113 665 1196 q 465 1019 465 1029 l 387 1019 q 456 1113 387 1029 q 526 1204 526 1197 l 665 1204 z "},"ą":{"ha":665,"x_min":37,"x_max":606,"o":"m 606 675 q 546 153 546 310 q 557 7 546 82 q 388 -165 388 -85 q 447 -237 388 -237 q 504 -222 471 -237 l 511 -316 q 422 -330 467 -330 q 332 -294 366 -330 q 298 -203 298 -258 q 441 -7 298 -92 q 438 141 438 62 l 432 141 q 205 -16 346 -16 q 78 52 123 -16 q 37 220 37 115 q 142 501 37 382 q 496 644 269 644 l 526 665 l 606 675 m 483 567 q 226 466 311 567 q 153 233 153 379 q 256 79 153 79 q 396 193 330 79 q 469 401 452 291 q 483 567 477 453 z "},"æ":{"ha":1049,"x_min":37,"x_max":1013,"o":"m 1013 516 q 928 377 1013 425 q 560 311 820 316 q 603 133 560 186 q 745 79 646 79 q 960 148 844 79 l 943 47 q 716 -18 851 -18 q 460 148 511 -18 l 453 148 q 205 -16 346 -16 q 80 50 123 -16 q 37 220 37 115 q 153 512 37 386 q 496 644 269 639 l 526 665 l 606 675 l 594 604 l 601 604 q 809 674 696 674 q 954 632 896 674 q 1013 516 1013 590 m 483 567 q 232 473 311 565 q 153 233 153 381 q 256 79 153 79 q 390 177 332 79 q 462 364 447 275 q 483 567 477 453 m 905 513 q 870 567 905 547 q 786 588 836 588 q 649 539 712 588 q 566 389 585 490 q 852 433 774 393 q 905 513 905 460 z "},"ǽ":{"ha":1049,"x_min":37,"x_max":1013,"o":"m 1013 516 q 928 377 1013 425 q 560 311 820 316 q 603 133 560 186 q 745 79 646 79 q 960 148 844 79 l 943 47 q 716 -18 851 -18 q 460 148 511 -18 l 453 148 q 205 -16 346 -16 q 80 50 123 -16 q 37 220 37 115 q 153 512 37 386 q 496 644 269 639 l 526 665 l 606 675 l 594 604 l 601 604 q 809 674 696 674 q 954 632 896 674 q 1013 516 1013 590 m 483 567 q 232 473 311 565 q 153 233 153 381 q 256 79 153 79 q 390 177 332 79 q 462 364 447 275 q 483 567 477 453 m 905 513 q 870 567 905 547 q 786 588 836 588 q 649 539 712 588 q 566 389 585 490 q 852 433 774 393 q 905 513 905 460 m 846 956 q 746 848 846 948 q 646 736 646 747 l 569 736 q 638 848 569 747 q 707 956 707 949 l 846 956 z "},"ć":{"ha":586,"x_min":58,"x_max":629,"o":"m 559 649 l 531 543 q 396 564 466 564 q 233 485 294 564 q 172 298 172 406 q 215 139 172 200 q 342 79 258 79 q 529 141 431 79 l 512 41 q 319 -18 442 -18 q 120 74 189 -18 q 58 283 58 155 q 160 549 58 439 q 435 660 261 660 q 559 649 512 660 m 629 956 q 529 848 629 948 q 429 736 429 747 l 352 736 q 421 848 352 747 q 490 956 490 949 l 629 956 z "},"ĉ":{"ha":586,"x_min":58,"x_max":559,"o":"m 559 649 l 531 543 q 396 564 466 564 q 233 485 294 564 q 172 298 172 406 q 215 139 172 200 q 342 79 258 79 q 529 141 431 79 l 512 41 q 319 -18 442 -18 q 120 74 189 -18 q 58 283 58 155 q 160 549 58 439 q 435 660 261 660 q 559 649 512 660 m 544 736 l 477 736 q 371 878 477 745 q 236 736 237 745 l 170 736 q 241 845 170 745 q 317 956 313 945 l 441 956 q 494 845 444 945 q 544 736 544 745 z "},"č":{"ha":586,"x_min":58,"x_max":600,"o":"m 559 649 l 531 543 q 396 564 466 564 q 233 485 294 564 q 172 298 172 406 q 215 139 172 200 q 342 79 258 79 q 529 141 431 79 l 512 41 q 319 -18 442 -18 q 120 74 189 -18 q 58 283 58 155 q 160 549 58 439 q 435 660 261 660 q 559 649 512 660 m 600 956 q 528 847 599 947 q 452 736 456 747 l 328 736 q 275 847 325 747 q 225 956 225 947 l 292 956 q 398 815 292 947 q 533 956 532 947 l 600 956 z "},"ċ":{"ha":586,"x_min":58,"x_max":559,"o":"m 559 649 l 531 543 q 396 564 466 564 q 233 485 294 564 q 172 298 172 406 q 215 139 172 200 q 342 79 258 79 q 529 141 431 79 l 512 41 q 319 -18 442 -18 q 120 74 189 -18 q 58 283 58 155 q 160 549 58 439 q 435 660 261 660 q 559 649 512 660 m 496 857 q 471 790 496 818 q 406 762 445 762 q 344 828 344 762 q 370 895 344 867 q 435 922 395 922 q 496 857 496 922 z "},"ç":{"ha":586,"x_min":58,"x_max":559,"o":"m 559 649 l 531 543 q 396 564 466 564 q 232 483 292 564 q 172 298 172 403 q 213 141 172 204 q 342 79 255 79 q 529 141 431 79 l 512 41 q 319 -18 442 -18 q 298 -18 309 -18 l 291 -47 q 402 -184 402 -86 q 233 -335 402 -335 l 230 -273 q 283 -251 261 -273 q 306 -199 306 -229 q 219 -96 306 -115 l 248 -10 q 113 82 168 9 q 58 283 58 155 q 157 546 58 433 q 435 660 256 660 q 559 649 512 660 z "},"ď":{"ha":852,"x_min":58,"x_max":920,"o":"m 718 958 q 694 812 718 941 q 654 507 671 683 q 636 176 636 331 q 642 0 636 84 l 536 -9 q 525 149 525 47 l 519 149 q 274 -16 430 -16 q 118 55 178 -16 q 58 246 58 126 q 152 549 58 431 q 404 668 245 668 q 562 623 506 668 l 568 623 q 592 954 582 764 l 718 958 m 560 542 q 433 581 501 581 q 240 502 306 581 q 174 287 174 423 q 321 78 174 78 q 466 171 395 78 q 547 388 536 264 l 560 542 m 920 814 q 872 679 920 740 q 779 591 824 618 l 754 621 q 812 724 807 681 q 747 806 747 743 q 771 873 747 844 q 844 901 795 901 q 899 878 878 901 q 920 814 920 855 z "},"đ":{"ha":747,"x_min":58,"x_max":802,"o":"m 802 806 l 791 737 l 682 737 q 651 480 666 630 q 636 176 636 331 q 642 0 636 84 l 536 -9 q 525 149 525 47 l 519 149 q 274 -16 430 -16 q 118 55 178 -16 q 58 236 58 126 q 148 528 58 409 q 397 648 238 648 q 561 603 499 648 l 566 603 q 578 737 573 676 l 418 737 l 429 806 l 583 806 q 591 951 588 876 l 718 958 q 693 806 718 941 l 802 806 m 559 522 q 419 561 488 561 q 235 479 296 561 q 174 277 174 397 q 321 78 174 78 q 465 171 395 78 q 547 388 536 264 l 559 522 z "},"è":{"ha":661,"x_min":58,"x_max":624,"o":"m 624 516 q 539 377 624 425 q 172 311 431 316 q 214 134 172 189 q 357 79 256 79 q 571 148 455 79 l 554 47 q 328 -18 463 -18 q 124 65 189 -18 q 58 275 58 148 q 168 569 58 463 q 420 674 277 674 q 566 632 507 674 q 624 516 624 590 m 516 513 q 483 569 516 549 q 397 588 450 588 q 260 539 323 588 q 178 389 197 490 q 463 433 386 393 q 516 513 516 460 m 452 736 l 374 736 q 301 848 374 747 q 226 956 227 948 l 358 956 q 405 848 358 949 q 452 736 452 747 z "},"é":{"ha":661,"x_min":58,"x_max":624,"o":"m 624 516 q 539 377 624 425 q 172 311 431 316 q 214 134 172 189 q 357 79 256 79 q 571 148 455 79 l 554 47 q 328 -18 463 -18 q 124 65 189 -18 q 58 275 58 148 q 168 569 58 463 q 420 674 277 674 q 566 632 507 674 q 624 516 624 590 m 516 513 q 483 569 516 549 q 397 588 450 588 q 260 539 323 588 q 178 389 197 490 q 463 433 386 393 q 516 513 516 460 m 620 956 q 520 848 620 948 q 420 736 420 747 l 342 736 q 412 848 342 747 q 481 956 481 949 l 620 956 z "},"ê":{"ha":661,"x_min":58,"x_max":624,"o":"m 624 516 q 539 377 624 425 q 172 311 431 316 q 214 134 172 189 q 357 79 256 79 q 571 148 455 79 l 554 47 q 328 -18 463 -18 q 124 65 189 -18 q 58 275 58 148 q 168 569 58 463 q 420 674 277 674 q 566 632 507 674 q 624 516 624 590 m 516 513 q 483 569 516 549 q 397 588 450 588 q 260 539 323 588 q 178 389 197 490 q 463 433 386 393 q 516 513 516 460 m 577 736 l 511 736 q 404 878 511 745 q 269 736 270 745 l 203 736 q 275 845 203 745 q 350 956 346 945 l 475 956 q 527 845 477 945 q 577 736 577 745 z "},"ě":{"ha":661,"x_min":58,"x_max":624,"o":"m 624 516 q 539 377 624 425 q 172 311 431 316 q 214 134 172 189 q 357 79 256 79 q 571 148 455 79 l 554 47 q 328 -18 463 -18 q 124 65 189 -18 q 58 275 58 148 q 168 569 58 463 q 420 674 277 674 q 566 632 507 674 q 624 516 624 590 m 516 513 q 483 569 516 549 q 397 588 450 588 q 260 539 323 588 q 178 389 197 490 q 463 433 386 393 q 516 513 516 460 m 595 956 q 524 847 595 947 q 448 736 452 747 l 323 736 q 271 847 321 747 q 221 956 221 947 l 288 956 q 394 815 288 947 q 529 956 528 947 l 595 956 z "},"ë":{"ha":661,"x_min":58,"x_max":624,"o":"m 624 516 q 539 377 624 425 q 172 311 431 316 q 214 134 172 189 q 357 79 256 79 q 571 148 455 79 l 554 47 q 328 -18 463 -18 q 124 65 189 -18 q 58 275 58 148 q 168 569 58 463 q 420 674 277 674 q 566 632 507 674 q 624 516 624 590 m 516 513 q 483 569 516 549 q 397 588 450 588 q 260 539 323 588 q 178 389 197 490 q 463 433 386 393 q 516 513 516 460 m 591 857 q 569 796 591 821 q 511 770 547 770 q 454 830 454 770 q 478 890 454 865 q 537 916 502 916 q 591 857 591 916 m 349 857 q 326 796 349 821 q 267 770 302 770 q 213 829 213 770 q 236 890 213 865 q 294 916 259 916 q 349 857 349 916 z "},"ē":{"ha":661,"x_min":58,"x_max":624,"o":"m 624 516 q 539 377 624 425 q 172 311 431 316 q 214 134 172 189 q 357 79 256 79 q 571 148 455 79 l 554 47 q 328 -18 463 -18 q 124 65 189 -18 q 58 275 58 148 q 168 569 58 463 q 420 674 277 674 q 566 632 507 674 q 624 516 624 590 m 516 513 q 483 569 516 549 q 397 588 450 588 q 260 539 323 588 q 178 389 197 490 q 463 433 386 393 q 516 513 516 460 m 559 888 l 542 804 l 262 804 l 279 888 l 559 888 z "},"ĕ":{"ha":661,"x_min":58,"x_max":624,"o":"m 624 516 q 539 377 624 425 q 172 311 431 316 q 214 134 172 189 q 357 79 256 79 q 571 148 455 79 l 554 47 q 328 -18 463 -18 q 124 65 189 -18 q 58 275 58 148 q 168 569 58 463 q 420 674 277 674 q 566 632 507 674 q 624 516 624 590 m 516 513 q 483 569 516 549 q 397 588 450 588 q 260 539 323 588 q 178 389 197 490 q 463 433 386 393 q 516 513 516 460 m 608 909 q 404 754 534 754 q 233 909 269 754 l 297 943 q 412 838 330 838 q 551 943 488 838 l 608 909 z "},"ė":{"ha":661,"x_min":58,"x_max":624,"o":"m 624 516 q 539 377 624 425 q 172 311 431 316 q 214 134 172 189 q 357 79 256 79 q 571 148 455 79 l 554 47 q 328 -18 463 -18 q 124 65 189 -18 q 58 275 58 148 q 168 569 58 463 q 420 674 277 674 q 566 632 507 674 q 624 516 624 590 m 516 513 q 483 569 516 549 q 397 588 450 588 q 260 539 323 588 q 178 389 197 490 q 463 433 386 393 q 516 513 516 460 m 490 857 q 465 790 490 818 q 399 762 439 762 q 338 828 338 762 q 363 895 338 867 q 429 922 389 922 q 490 857 490 922 z "},"ę":{"ha":661,"x_min":58,"x_max":624,"o":"m 624 516 q 528 370 624 425 q 172 311 431 316 q 210 140 172 201 q 357 79 248 79 q 571 148 455 79 l 554 47 q 374 -159 374 -78 q 434 -237 374 -237 q 491 -222 458 -237 l 498 -316 q 410 -330 454 -330 q 319 -294 353 -330 q 285 -197 285 -258 q 395 -13 285 -92 q 328 -18 360 -18 q 124 65 189 -18 q 58 275 58 148 q 170 571 58 468 q 420 674 281 674 q 564 633 507 674 q 624 516 624 590 m 516 513 q 482 567 516 547 q 397 588 448 588 q 260 539 323 588 q 178 389 197 490 q 451 427 386 393 q 516 513 516 460 z "},"ĝ":{"ha":705,"x_min":-19,"x_max":722,"o":"m 722 730 l 702 636 q 566 594 591 636 l 566 589 q 595 481 595 538 q 512 293 595 361 q 305 224 429 224 q 203 238 237 224 q 163 160 163 210 q 195 114 163 125 q 438 102 227 102 q 622 -40 622 102 q 507 -266 622 -180 q 243 -351 393 -351 q 41 -298 101 -351 q -19 -153 -19 -245 q 115 31 -19 -26 l 115 37 q 74 119 74 59 q 151 252 74 189 l 151 258 q 98 316 125 272 q 72 415 72 360 q 154 600 72 535 q 361 665 235 665 q 529 621 467 665 l 535 621 q 580 713 554 687 q 650 740 606 740 q 722 730 697 740 m 519 -84 q 480 -14 519 -30 q 303 1 441 1 q 170 9 239 1 q 78 -130 78 -36 q 255 -273 78 -273 q 442 -220 366 -273 q 519 -84 519 -167 m 488 462 q 446 562 488 526 q 345 594 407 594 q 222 547 270 594 q 175 425 175 500 q 214 329 175 363 q 320 296 253 296 q 441 342 394 296 q 488 462 488 388 m 562 736 l 495 736 q 389 878 495 745 q 254 736 254 745 l 187 736 q 259 845 188 745 q 334 956 330 945 l 459 956 q 512 845 462 945 q 562 736 562 745 z "},"ğ":{"ha":705,"x_min":-19,"x_max":722,"o":"m 722 730 l 702 636 q 566 594 591 636 l 566 589 q 595 481 595 538 q 512 293 595 361 q 305 224 429 224 q 203 238 237 224 q 163 160 163 210 q 195 114 163 125 q 438 102 227 102 q 622 -40 622 102 q 507 -266 622 -180 q 243 -351 393 -351 q 41 -298 101 -351 q -19 -153 -19 -245 q 115 31 -19 -26 l 115 37 q 74 119 74 59 q 151 252 74 189 l 151 258 q 98 316 125 272 q 72 415 72 360 q 154 600 72 535 q 361 665 235 665 q 529 621 467 665 l 535 621 q 580 713 554 687 q 650 740 606 740 q 722 730 697 740 m 519 -84 q 480 -14 519 -30 q 303 1 441 1 q 170 9 239 1 q 78 -130 78 -36 q 255 -273 78 -273 q 442 -220 366 -273 q 519 -84 519 -167 m 488 462 q 446 562 488 526 q 345 594 407 594 q 222 547 270 594 q 175 425 175 500 q 214 329 175 363 q 320 296 253 296 q 441 342 394 296 q 488 462 488 388 m 583 909 q 379 754 509 754 q 208 909 244 754 l 272 943 q 387 838 305 838 q 526 943 463 838 l 583 909 z "},"ġ":{"ha":705,"x_min":-19,"x_max":722,"o":"m 722 730 l 702 636 q 566 594 591 636 l 566 589 q 595 481 595 538 q 512 293 595 361 q 305 224 429 224 q 203 238 237 224 q 163 160 163 210 q 195 114 163 125 q 438 102 227 102 q 622 -40 622 102 q 507 -266 622 -180 q 243 -351 393 -351 q 41 -298 101 -351 q -19 -153 -19 -245 q 115 31 -19 -26 l 115 37 q 74 119 74 59 q 151 252 74 189 l 151 258 q 98 316 125 272 q 72 415 72 360 q 154 600 72 535 q 361 665 235 665 q 529 621 467 665 l 535 621 q 580 713 554 687 q 650 740 606 740 q 722 730 697 740 m 519 -84 q 480 -14 519 -30 q 303 1 441 1 q 170 9 239 1 q 78 -130 78 -36 q 255 -273 78 -273 q 442 -220 366 -273 q 519 -84 519 -167 m 488 462 q 446 562 488 526 q 345 594 407 594 q 222 547 270 594 q 175 425 175 500 q 214 329 175 363 q 320 296 253 296 q 441 342 394 296 q 488 462 488 388 m 467 857 q 441 790 467 818 q 376 762 416 762 q 315 828 315 762 q 340 895 315 867 q 406 922 366 922 q 467 857 467 922 z "},"ģ":{"ha":705,"x_min":-19,"x_max":722,"o":"m 722 730 l 702 636 q 566 594 591 636 l 566 589 q 595 481 595 538 q 512 293 595 361 q 305 224 429 224 q 203 238 237 224 q 163 160 163 210 q 195 114 163 125 q 438 102 227 102 q 622 -40 622 102 q 507 -266 622 -180 q 243 -351 393 -351 q 41 -298 101 -351 q -19 -153 -19 -245 q 115 31 -19 -26 l 115 37 q 74 119 74 59 q 151 252 74 189 l 151 258 q 98 316 125 272 q 72 415 72 360 q 154 600 72 535 q 361 665 235 665 q 529 621 467 665 l 535 621 q 580 713 554 687 q 650 740 606 740 q 722 730 697 740 m 519 -84 q 480 -14 519 -30 q 303 1 441 1 q 170 9 239 1 q 78 -130 78 -36 q 255 -273 78 -273 q 442 -220 366 -273 q 519 -84 519 -167 m 488 462 q 446 562 488 526 q 345 594 407 594 q 222 547 270 594 q 175 425 175 500 q 214 329 175 363 q 320 296 253 296 q 441 342 394 296 q 488 462 488 388 m 467 848 q 446 788 467 814 q 380 762 424 762 q 330 783 349 762 q 311 841 311 804 q 355 964 311 909 q 439 1044 398 1019 l 461 1017 q 409 924 413 962 q 467 848 467 906 z "},"ĥ":{"ha":729,"x_min":23,"x_max":648,"o":"m 648 464 q 633 245 648 410 q 618 0 618 81 l 503 -7 q 523 185 503 23 q 543 431 543 347 q 514 541 543 510 q 423 572 485 572 q 281 475 349 572 q 201 262 213 378 q 178 0 186 110 l 65 -7 q 122 506 73 56 q 151 954 151 777 l 279 961 q 267 857 279 937 q 235 591 250 740 q 223 500 231 557 l 229 500 q 471 665 317 665 q 648 464 648 665 m 397 960 l 331 960 q 224 1074 331 969 q 90 960 90 969 l 23 960 q 95 1052 24 969 q 170 1146 166 1135 l 295 1146 q 348 1052 298 1135 q 397 960 397 969 z "},"ħ":{"ha":726,"x_min":51,"x_max":645,"o":"m 645 444 q 631 235 645 390 q 618 0 618 81 l 503 -7 q 521 175 503 23 q 539 410 539 327 q 510 520 539 490 q 420 551 481 551 q 279 465 346 551 q 201 262 213 378 q 178 0 186 110 l 65 -7 q 122 506 73 56 q 142 736 136 635 l 51 736 l 62 806 l 146 806 q 151 954 151 890 l 279 961 q 272 886 279 937 q 260 806 264 836 l 467 806 l 456 736 l 252 736 q 235 591 243 672 q 220 480 231 557 l 225 480 q 468 645 313 645 q 645 444 645 645 z "},"ì":{"ha":315,"x_min":23,"x_max":249,"o":"m 243 657 q 229 494 243 614 q 205 310 205 313 q 183 0 195 214 l 65 -7 q 107 310 81 100 q 121 560 121 446 q 119 639 121 608 l 243 657 m 249 736 l 172 736 q 98 848 172 747 q 23 956 24 948 l 155 956 q 202 848 155 949 q 249 736 249 747 z "},"í":{"ha":315,"x_min":65,"x_max":412,"o":"m 243 657 q 229 494 243 614 q 205 310 205 313 q 183 0 195 214 l 65 -7 q 107 310 81 100 q 121 560 121 446 q 119 639 121 608 l 243 657 m 412 956 q 312 848 412 948 q 212 736 212 747 l 134 736 q 203 848 134 747 q 273 956 273 949 l 412 956 z "},"î":{"ha":315,"x_min":10,"x_max":385,"o":"m 243 657 q 229 494 243 614 q 205 310 205 313 q 183 0 195 214 l 65 -7 q 107 310 81 100 q 121 560 121 446 q 119 639 121 608 l 243 657 m 385 736 l 318 736 q 212 878 318 745 q 77 736 77 745 l 10 736 q 82 845 11 745 q 157 956 153 945 l 282 956 q 335 845 285 945 q 385 736 385 745 z "},"ĩ":{"ha":315,"x_min":-38,"x_max":453,"o":"m 243 657 q 229 494 243 614 q 205 310 205 313 q 183 0 195 214 l 65 -7 q 107 310 81 100 q 121 560 121 446 q 119 639 121 608 l 243 657 m 453 915 q 277 788 367 788 q 196 804 244 788 q 118 821 149 821 q -1 739 61 821 l -38 773 q 140 916 50 916 q 220 901 172 916 q 298 886 268 886 q 418 949 355 886 l 453 915 z "},"ï":{"ha":315,"x_min":12,"x_max":390,"o":"m 243 657 q 229 494 243 614 q 205 310 205 313 q 183 0 195 214 l 65 -7 q 107 310 81 100 q 121 560 121 446 q 119 639 121 608 l 243 657 m 390 857 q 368 795 390 821 q 310 770 345 770 q 253 829 253 770 q 277 890 253 865 q 336 915 300 915 q 390 857 390 915 m 147 857 q 124 795 147 821 q 66 770 101 770 q 12 828 12 770 q 35 889 12 864 q 93 915 58 915 q 147 857 147 915 z "},"ī":{"ha":315,"x_min":65,"x_max":364,"o":"m 243 657 q 229 494 243 614 q 205 310 205 313 q 183 0 195 214 l 65 -7 q 107 310 81 100 q 121 560 121 446 q 119 639 121 608 l 243 657 m 364 888 l 347 804 l 68 804 l 84 888 l 364 888 z "},"ĭ":{"ha":315,"x_min":15,"x_max":391,"o":"m 243 657 q 229 494 243 614 q 205 310 205 313 q 183 0 195 214 l 65 -7 q 107 310 81 100 q 121 560 121 446 q 119 639 121 608 l 243 657 m 391 909 q 186 754 316 754 q 15 909 52 754 l 79 943 q 195 838 113 838 q 333 943 271 838 l 391 909 z "},"į":{"ha":315,"x_min":-53,"x_max":297,"o":"m 250 657 q 205 310 233 532 q 183 7 195 214 q 39 -172 39 -85 q 96 -237 39 -237 q 153 -222 120 -237 l 160 -316 q 72 -330 116 -330 q -19 -294 15 -330 q -53 -210 -53 -258 q 65 -7 -53 -99 q 107 310 81 100 q 121 560 121 446 q 119 639 121 608 l 250 657 m 297 857 q 271 790 297 818 q 206 762 245 762 q 144 828 144 762 q 170 895 144 867 q 235 922 196 922 q 297 857 297 922 z "},"ı":{"ha":315,"x_min":65,"x_max":243,"o":"m 243 657 q 229 494 243 614 q 205 310 205 313 q 183 0 195 214 l 65 -7 q 107 310 81 100 q 121 560 121 446 q 119 639 121 608 l 243 657 z "},"ĳ":{"ha":617,"x_min":65,"x_max":594,"o":"m 243 657 q 232 523 244 608 q 205 310 219 437 q 183 0 195 214 l 65 -7 q 107 310 81 100 q 121 560 121 446 q 119 639 121 608 l 243 657 m 292 857 q 267 790 292 818 q 201 762 241 762 q 140 828 140 762 q 165 895 140 867 q 231 922 191 922 q 292 857 292 922 m 545 657 q 527 470 545 608 q 493 164 508 333 q 475 -38 479 -5 q 289 -304 452 -257 l 262 -252 q 349 -132 325 -201 q 398 186 372 -62 q 425 565 425 435 q 422 639 425 612 l 545 657 m 594 857 q 568 790 594 818 q 503 762 542 762 q 441 828 441 762 q 468 895 441 867 q 534 922 494 922 q 594 857 594 922 z "},"ĵ":{"ha":315,"x_min":-39,"x_max":372,"o":"m 243 657 q 225 470 243 608 q 192 164 206 333 q 174 -38 177 -5 q -13 -304 151 -257 l -39 -252 q 47 -132 23 -201 q 97 186 71 -62 q 123 565 123 435 q 120 639 123 612 l 243 657 m 372 736 l 306 736 q 199 878 306 745 q 64 736 65 745 l -2 736 q 70 845 -1 745 q 145 956 141 945 l 270 956 q 322 845 273 945 q 372 736 372 745 z "},"ķ":{"ha":676,"x_min":65,"x_max":665,"o":"m 665 647 q 579 537 665 625 q 421 391 492 450 l 420 385 q 550 172 496 295 q 604 0 604 48 l 481 -7 q 442 135 481 29 q 349 314 403 240 q 267 218 302 267 q 178 0 184 101 l 65 -7 q 127 506 76 57 q 155 954 155 770 l 279 961 q 245 662 279 926 q 193 224 212 397 l 200 224 q 381 465 236 309 q 526 651 526 621 l 665 647 m 391 -149 q 347 -272 391 -217 q 263 -353 304 -328 l 241 -326 q 293 -232 289 -271 q 235 -157 235 -214 q 256 -96 235 -122 q 322 -71 278 -71 q 372 -92 353 -71 q 391 -149 391 -113 z "},"ĸ":{"ha":676,"x_min":65,"x_max":665,"o":"m 665 647 q 579 537 665 625 q 421 391 492 450 l 420 385 q 550 172 496 295 q 604 0 604 48 l 481 -7 q 442 135 481 29 q 349 314 403 240 q 243 184 302 267 q 178 0 184 101 l 65 -7 q 93 196 76 57 q 121 644 121 460 l 245 651 q 231 517 245 623 q 193 224 208 350 l 200 224 q 381 465 236 309 q 526 651 526 621 l 665 647 z "},"ĺ":{"ha":319,"x_min":65,"x_max":447,"o":"m 282 961 q 262 780 282 921 q 229 506 242 638 q 189 3 195 189 l 65 -10 q 88 171 65 18 q 130 506 111 324 q 159 954 159 783 l 282 961 m 447 1214 q 347 1122 447 1206 q 247 1028 247 1039 l 170 1028 q 239 1123 170 1039 q 308 1214 308 1206 l 447 1214 z "},"ľ":{"ha":438,"x_min":65,"x_max":506,"o":"m 282 961 q 262 780 282 921 q 229 506 242 638 q 189 3 195 189 l 65 -10 q 88 171 65 18 q 130 506 111 324 q 159 954 159 783 l 282 961 m 506 814 q 458 679 506 740 q 366 591 410 618 l 340 621 q 398 724 393 681 q 334 806 334 743 q 358 873 334 844 q 430 901 382 901 q 485 878 465 901 q 506 814 506 855 z "},"ļ":{"ha":319,"x_min":26,"x_max":282,"o":"m 282 961 q 262 780 282 921 q 229 506 242 638 q 189 3 195 189 l 65 -10 q 88 171 65 18 q 130 506 111 324 q 159 954 159 783 l 282 961 m 182 -149 q 139 -272 182 -217 q 55 -353 96 -328 l 33 -326 q 85 -232 81 -271 q 26 -157 26 -214 q 48 -96 26 -122 q 114 -71 70 -71 q 164 -92 145 -71 q 182 -149 182 -113 z "},"ł":{"ha":319,"x_min":-43,"x_max":430,"o":"m 430 606 l 231 469 q 195 3 210 239 l 71 -10 q 123 385 85 94 l 2 280 l -43 345 l 134 481 q 165 954 171 816 l 296 961 q 241 568 288 892 l 370 675 l 430 606 z "},"ŀ":{"ha":477,"x_min":65,"x_max":476,"o":"m 282 961 q 262 780 282 921 q 229 506 242 638 q 189 3 195 189 l 65 -10 q 88 171 65 18 q 130 506 111 324 q 159 954 159 783 l 282 961 m 476 425 q 450 357 476 385 q 385 330 425 330 q 323 395 323 330 q 349 462 323 435 q 414 489 375 489 q 476 425 476 489 z "},"ń":{"ha":726,"x_min":65,"x_max":646,"o":"m 646 464 q 630 245 646 410 q 615 0 615 81 l 500 -7 q 520 185 500 23 q 540 431 540 347 q 511 541 540 510 q 420 572 482 572 q 278 475 347 572 q 199 262 210 378 q 176 0 184 110 l 65 -7 q 113 468 113 345 q 102 642 113 539 l 216 659 q 220 500 220 599 l 226 500 q 469 665 314 665 q 646 464 646 665 m 637 956 q 537 848 637 948 q 437 736 437 747 l 360 736 q 429 848 360 747 q 498 956 498 949 l 637 956 z "},"ň":{"ha":726,"x_min":65,"x_max":646,"o":"m 646 464 q 630 245 646 410 q 615 0 615 81 l 500 -7 q 520 185 500 23 q 540 431 540 347 q 511 541 540 510 q 420 572 482 572 q 278 475 347 572 q 199 262 210 378 q 176 0 184 110 l 65 -7 q 113 468 113 345 q 102 642 113 539 l 216 659 q 220 500 220 599 l 226 500 q 469 665 314 665 q 646 464 646 665 m 618 956 q 547 847 618 947 q 471 736 475 747 l 347 736 q 294 847 344 747 q 244 956 244 947 l 311 956 q 417 815 311 947 q 552 956 551 947 l 618 956 z "},"ñ":{"ha":726,"x_min":65,"x_max":680,"o":"m 646 464 q 630 245 646 410 q 615 0 615 81 l 500 -7 q 520 185 500 23 q 540 431 540 347 q 511 541 540 510 q 420 572 482 572 q 278 475 347 572 q 199 262 210 378 q 176 0 184 110 l 65 -7 q 113 468 113 345 q 102 642 113 539 l 216 659 q 220 500 220 599 l 226 500 q 469 665 314 665 q 646 464 646 665 m 680 910 q 503 783 593 783 q 423 800 471 783 q 345 816 375 816 q 225 734 288 816 l 189 768 q 366 911 276 911 q 447 897 399 911 q 525 882 494 882 q 644 944 582 882 l 680 910 z "},"ņ":{"ha":726,"x_min":65,"x_max":646,"o":"m 646 464 q 630 245 646 410 q 615 0 615 81 l 500 -7 q 520 185 500 23 q 540 431 540 347 q 511 541 540 510 q 420 572 482 572 q 278 475 347 572 q 199 262 210 378 q 176 0 184 110 l 65 -7 q 113 468 113 345 q 102 642 113 539 l 216 659 q 220 500 220 599 l 226 500 q 469 665 314 665 q 646 464 646 665 m 409 -149 q 366 -272 409 -217 q 281 -353 322 -328 l 259 -326 q 311 -232 307 -271 q 253 -157 253 -214 q 275 -96 253 -122 q 340 -71 296 -71 q 390 -92 372 -71 q 409 -149 409 -113 z "},"ŉ":{"ha":823,"x_min":14,"x_max":742,"o":"m 742 464 q 727 245 742 410 q 711 0 711 81 l 597 -7 q 616 185 597 23 q 636 431 636 347 q 607 541 636 510 q 517 572 578 572 q 375 475 443 572 q 295 262 307 378 q 272 0 280 110 l 161 -7 q 209 468 209 345 q 198 642 209 539 l 313 659 q 317 500 317 599 l 322 500 q 565 665 410 665 q 742 464 742 665 m 264 886 q 45 532 264 713 l 14 577 q 100 701 77 644 q 121 798 115 736 q 86 867 86 818 q 118 943 86 911 q 195 974 151 974 q 248 945 229 974 q 264 886 264 921 m 175 786 z "},"ò":{"ha":736,"x_min":58,"x_max":677,"o":"m 677 378 q 579 94 677 215 q 319 -26 480 -26 q 135 59 212 -26 q 58 281 58 145 q 157 558 58 442 q 418 674 255 674 q 602 594 526 674 q 677 378 677 514 m 562 359 q 519 521 562 454 q 395 589 476 589 q 233 494 294 589 q 173 289 173 399 q 217 126 173 194 q 342 59 260 59 q 502 154 442 59 q 562 359 562 248 m 452 736 l 374 736 q 301 848 374 747 q 226 956 227 948 l 358 956 q 405 848 358 949 q 452 736 452 747 z "},"ó":{"ha":736,"x_min":58,"x_max":677,"o":"m 677 378 q 579 94 677 215 q 319 -26 480 -26 q 135 59 212 -26 q 58 281 58 145 q 157 558 58 442 q 418 674 255 674 q 602 594 526 674 q 677 378 677 514 m 562 359 q 519 521 562 454 q 395 589 476 589 q 233 494 294 589 q 173 289 173 399 q 217 126 173 194 q 342 59 260 59 q 502 154 442 59 q 562 359 562 248 m 633 956 q 533 848 633 948 q 433 736 433 747 l 356 736 q 425 848 356 747 q 494 956 494 949 l 633 956 z "},"ô":{"ha":736,"x_min":58,"x_max":677,"o":"m 677 378 q 579 94 677 215 q 319 -26 480 -26 q 135 59 212 -26 q 58 281 58 145 q 157 558 58 442 q 418 674 255 674 q 602 594 526 674 q 677 378 677 514 m 562 359 q 519 521 562 454 q 395 589 476 589 q 233 494 294 589 q 173 289 173 399 q 217 126 173 194 q 342 59 260 59 q 502 154 442 59 q 562 359 562 248 m 621 736 l 555 736 q 448 878 555 745 q 313 736 314 745 l 247 736 q 319 845 248 745 q 394 956 390 945 l 519 956 q 571 845 522 945 q 621 736 621 745 z "},"õ":{"ha":736,"x_min":58,"x_max":686,"o":"m 677 378 q 579 94 677 215 q 319 -26 480 -26 q 135 59 212 -26 q 58 281 58 145 q 157 558 58 442 q 418 674 255 674 q 602 594 526 674 q 677 378 677 514 m 562 359 q 519 521 562 454 q 395 589 476 589 q 233 494 294 589 q 173 289 173 399 q 217 126 173 194 q 342 59 260 59 q 502 154 442 59 q 562 359 562 248 m 686 910 q 510 783 600 783 q 430 800 477 783 q 351 816 382 816 q 232 734 294 816 l 195 768 q 373 911 283 911 q 453 897 406 911 q 532 882 501 882 q 651 944 589 882 l 686 910 z "},"ö":{"ha":736,"x_min":58,"x_max":677,"o":"m 677 378 q 579 94 677 215 q 319 -26 480 -26 q 135 59 212 -26 q 58 281 58 145 q 157 558 58 442 q 418 674 255 674 q 602 594 526 674 q 677 378 677 514 m 562 359 q 519 521 562 454 q 395 589 476 589 q 233 494 294 589 q 173 289 173 399 q 217 126 173 194 q 342 59 260 59 q 502 154 442 59 q 562 359 562 248 m 618 857 q 596 796 618 821 q 538 770 574 770 q 481 830 481 770 q 505 890 481 865 q 564 916 529 916 q 618 857 618 916 m 376 857 q 353 796 376 821 q 294 770 330 770 q 240 829 240 770 q 263 890 240 865 q 321 916 286 916 q 376 857 376 916 z "},"ō":{"ha":736,"x_min":58,"x_max":677,"o":"m 677 378 q 579 94 677 215 q 319 -26 480 -26 q 135 59 212 -26 q 58 281 58 145 q 157 558 58 442 q 418 674 255 674 q 602 594 526 674 q 677 378 677 514 m 562 359 q 519 521 562 454 q 395 589 476 589 q 233 494 294 589 q 173 289 173 399 q 217 126 173 194 q 342 59 260 59 q 502 154 442 59 q 562 359 562 248 m 575 888 l 558 804 l 279 804 l 295 888 l 575 888 z "},"ŏ":{"ha":736,"x_min":58,"x_max":677,"o":"m 677 378 q 579 94 677 215 q 319 -26 480 -26 q 135 59 212 -26 q 58 281 58 145 q 157 558 58 442 q 418 674 255 674 q 602 594 526 674 q 677 378 677 514 m 562 359 q 519 521 562 454 q 395 589 476 589 q 233 494 294 589 q 173 289 173 399 q 217 126 173 194 q 342 59 260 59 q 502 154 442 59 q 562 359 562 248 m 618 909 q 414 754 544 754 q 243 909 279 754 l 307 943 q 422 838 340 838 q 561 943 498 838 l 618 909 z "},"ő":{"ha":736,"x_min":58,"x_max":695,"o":"m 677 378 q 579 94 677 215 q 319 -26 480 -26 q 135 59 212 -26 q 58 281 58 145 q 157 558 58 442 q 418 674 255 674 q 602 594 526 674 q 677 378 677 514 m 562 359 q 519 521 562 454 q 395 589 476 589 q 233 494 294 589 q 173 289 173 399 q 217 126 173 194 q 342 59 260 59 q 502 154 442 59 q 562 359 562 248 m 450 956 q 379 844 449 941 q 309 736 310 747 l 248 736 q 282 845 249 747 q 316 956 315 942 l 450 956 m 695 956 q 624 844 694 941 q 554 736 555 747 l 493 736 q 527 845 494 747 q 561 956 559 942 l 695 956 z "},"ø":{"ha":736,"x_min":-15,"x_max":729,"o":"m 729 665 q 635 544 727 644 q 670 382 670 477 q 572 96 670 219 q 313 -26 473 -26 q 136 38 207 -26 q 39 -77 41 -61 l -15 -56 q 96 85 -12 -31 q 52 262 52 154 q 150 550 52 426 q 409 674 248 674 q 600 594 528 674 q 672 686 671 669 l 729 665 m 518 509 q 385 589 472 589 q 224 494 283 589 q 165 291 165 399 q 184 176 165 229 q 518 509 302 292 m 555 356 q 543 448 555 405 q 215 119 429 334 q 336 59 261 59 q 496 154 437 59 q 555 356 555 249 z "},"ǿ":{"ha":736,"x_min":-15,"x_max":729,"o":"m 729 665 q 635 544 727 644 q 670 382 670 477 q 572 96 670 219 q 313 -26 473 -26 q 136 38 207 -26 q 39 -77 41 -61 l -15 -56 q 96 85 -12 -31 q 52 262 52 154 q 150 550 52 426 q 409 674 248 674 q 600 594 528 674 q 672 686 671 669 l 729 665 m 518 509 q 385 589 472 589 q 224 494 283 589 q 165 291 165 399 q 184 176 165 229 q 518 509 302 292 m 555 356 q 543 448 555 405 q 215 119 429 334 q 336 59 261 59 q 496 154 437 59 q 555 356 555 249 m 640 956 q 539 848 640 948 q 439 736 439 747 l 362 736 q 431 848 362 747 q 500 956 500 949 l 640 956 z "},"œ":{"ha":1138,"x_min":58,"x_max":1101,"o":"m 1101 516 q 1017 377 1101 425 q 649 311 909 316 q 688 138 649 198 q 834 79 727 79 q 1048 148 932 79 l 1031 47 q 805 -18 940 -18 q 573 107 640 -18 l 566 107 q 319 -26 473 -26 q 135 59 212 -26 q 58 281 58 145 q 157 558 58 443 q 418 674 256 674 q 619 543 556 674 l 623 543 q 898 674 730 674 q 1041 633 985 674 q 1101 516 1101 590 m 555 359 q 515 522 555 456 q 395 589 475 589 q 233 493 292 589 q 173 289 173 397 q 217 126 173 194 q 342 59 260 59 q 500 154 444 59 q 555 359 555 249 m 994 513 q 959 567 994 547 q 875 588 925 588 q 738 539 801 588 q 655 389 674 490 q 941 433 863 393 q 994 513 994 460 z "},"ŕ":{"ha":505,"x_min":65,"x_max":541,"o":"m 516 652 l 475 544 q 385 557 428 557 q 212 397 229 557 q 176 0 186 165 l 65 -7 q 113 468 113 345 q 102 642 113 539 l 216 659 q 222 559 222 603 l 227 559 q 401 667 309 667 q 516 652 450 667 m 541 956 q 440 848 541 948 q 340 736 340 747 l 263 736 q 332 848 263 747 q 401 956 401 949 l 541 956 z "},"ř":{"ha":505,"x_min":65,"x_max":519,"o":"m 516 652 l 475 544 q 385 557 428 557 q 212 397 229 557 q 176 0 186 165 l 65 -7 q 113 468 113 345 q 102 642 113 539 l 216 659 q 222 559 222 603 l 227 559 q 401 667 309 667 q 516 652 450 667 m 519 956 q 448 847 519 947 q 372 736 376 747 l 248 736 q 195 847 245 747 q 145 956 145 947 l 212 956 q 318 815 212 947 q 453 956 452 947 l 519 956 z "},"ŗ":{"ha":505,"x_min":20,"x_max":516,"o":"m 516 652 l 475 544 q 385 557 428 557 q 212 397 229 557 q 176 0 186 165 l 65 -7 q 113 468 113 345 q 102 642 113 539 l 216 659 q 222 559 222 603 l 227 559 q 401 667 309 667 q 516 652 450 667 m 176 -149 q 132 -272 176 -217 q 48 -353 89 -328 l 26 -326 q 78 -232 74 -271 q 20 -157 20 -214 q 41 -96 20 -122 q 107 -71 63 -71 q 157 -92 138 -71 q 176 -149 176 -113 z "},"ś":{"ha":545,"x_min":15,"x_max":557,"o":"m 500 649 l 469 551 q 313 576 401 576 q 182 488 182 576 q 207 434 182 456 q 302 382 232 412 q 475 195 475 309 q 212 -14 475 -14 q 15 4 105 -14 l 46 104 q 221 74 126 74 q 374 161 374 74 q 252 276 374 222 q 78 464 78 352 q 149 612 78 561 q 323 664 220 664 q 500 649 435 664 m 557 956 q 457 848 557 948 q 357 736 357 747 l 279 736 q 349 848 279 747 q 418 956 418 949 l 557 956 z "},"ŝ":{"ha":545,"x_min":15,"x_max":500,"o":"m 500 649 l 469 551 q 313 576 401 576 q 182 488 182 576 q 207 434 182 456 q 302 382 232 412 q 475 195 475 309 q 212 -14 475 -14 q 15 4 105 -14 l 46 104 q 221 74 126 74 q 374 161 374 74 q 252 276 374 222 q 78 464 78 352 q 149 612 78 561 q 323 664 220 664 q 500 649 435 664 m 498 736 l 432 736 q 326 878 432 745 q 191 736 191 745 l 124 736 q 196 845 125 745 q 271 956 267 945 l 396 956 q 449 845 399 945 q 498 736 498 745 z "},"š":{"ha":545,"x_min":15,"x_max":538,"o":"m 500 649 l 469 551 q 313 576 401 576 q 182 488 182 576 q 207 434 182 456 q 302 382 232 412 q 475 195 475 309 q 212 -14 475 -14 q 15 4 105 -14 l 46 104 q 221 74 126 74 q 374 161 374 74 q 252 276 374 222 q 78 464 78 352 q 149 612 78 561 q 323 664 220 664 q 500 649 435 664 m 538 956 q 466 847 537 947 q 391 736 395 747 l 266 736 q 213 847 263 747 q 163 956 163 947 l 230 956 q 336 815 230 947 q 471 956 471 947 l 538 956 z "},"ş":{"ha":545,"x_min":18,"x_max":500,"o":"m 500 649 l 469 551 q 313 576 401 576 q 182 488 182 576 q 207 434 182 456 q 302 382 232 412 q 475 195 475 309 q 226 -14 475 -8 l 218 -47 q 329 -184 329 -86 q 159 -335 329 -335 l 157 -273 q 210 -251 188 -273 q 233 -199 233 -229 q 146 -96 233 -115 l 173 -14 q 18 5 88 -11 l 45 104 q 221 74 125 74 q 374 161 374 74 q 252 276 374 222 q 78 464 78 352 q 149 612 78 561 q 323 664 220 664 q 500 649 435 664 z "},"ș":{"ha":545,"x_min":15,"x_max":500,"o":"m 500 649 l 469 551 q 313 576 401 576 q 182 488 182 576 q 207 434 182 456 q 302 382 232 412 q 475 195 475 309 q 212 -14 475 -14 q 15 4 105 -14 l 46 104 q 221 74 126 74 q 374 161 374 74 q 252 276 374 222 q 78 464 78 352 q 149 612 78 561 q 323 664 220 664 q 500 649 435 664 m 290 -149 q 247 -272 290 -217 q 163 -353 203 -328 l 140 -326 q 193 -232 189 -271 q 134 -157 134 -214 q 156 -96 134 -122 q 222 -71 178 -71 q 272 -92 253 -71 q 290 -149 290 -113 z "},"ß":{"ha":709,"x_min":-38,"x_max":673,"o":"m 673 824 q 622 697 673 758 l 528 602 q 477 500 477 548 q 563 370 477 448 q 665 182 665 279 q 589 31 665 83 q 418 -14 523 -14 q 285 1 338 -14 l 312 88 q 434 67 366 67 q 565 155 565 67 q 480 289 565 209 q 378 464 378 386 q 429 591 378 528 l 526 691 q 577 802 577 749 q 452 884 577 884 q 297 812 346 884 q 230 515 248 739 q 195 76 212 292 q 128 -210 179 -140 q -11 -305 77 -280 l -38 -252 q 51 -135 25 -201 q 96 118 77 -68 q 127 477 114 304 q 175 762 141 650 q 288 924 208 874 q 469 974 368 974 q 618 933 563 974 q 673 824 673 892 z "},"ſ":{"ha":361,"x_min":-38,"x_max":469,"o":"m 469 967 l 448 880 q 372 883 411 883 q 286 833 312 883 q 247 681 260 783 q 223 437 235 580 q 195 78 212 294 q 128 -208 179 -138 q -11 -303 77 -278 l -38 -250 q 51 -133 25 -199 q 96 120 77 -66 q 124 434 114 307 q 149 685 134 562 q 217 891 164 808 q 381 974 269 974 q 469 967 427 974 z "},"ť":{"ha":589,"x_min":58,"x_max":656,"o":"m 460 124 l 443 34 q 296 -14 372 -14 q 167 32 203 -14 q 130 178 130 77 q 169 541 130 262 q 58 536 133 541 l 73 635 q 184 631 136 631 q 213 824 188 659 l 315 835 q 283 631 302 766 q 463 637 346 631 l 450 536 q 267 541 338 541 q 232 214 232 313 q 252 109 232 137 q 318 80 271 80 q 460 124 386 80 m 240 650 m 656 814 q 609 679 656 740 q 516 591 561 618 l 491 621 q 549 724 544 681 q 484 806 484 743 q 508 873 484 844 q 581 901 532 901 q 636 878 615 901 q 656 814 656 855 z "},"ţ":{"ha":516,"x_min":58,"x_max":463,"o":"m 460 124 l 443 34 q 296 -14 372 -14 q 167 32 203 -14 q 130 178 130 77 q 169 541 130 262 q 58 536 133 541 l 73 635 q 184 631 136 631 q 213 824 188 659 l 315 835 q 283 631 302 766 q 463 637 346 631 l 450 536 q 267 541 338 541 q 232 214 232 313 q 252 109 232 137 q 318 80 271 80 q 460 124 386 80 m 240 650 m 330 -149 q 287 -272 330 -217 q 203 -353 243 -328 l 180 -326 q 233 -232 229 -271 q 174 -157 174 -214 q 196 -96 174 -122 q 262 -71 218 -71 q 312 -92 293 -71 q 330 -149 330 -113 z "},"ŧ":{"ha":516,"x_min":37,"x_max":463,"o":"m 460 127 l 443 34 q 296 -14 372 -14 q 167 32 203 -14 q 130 178 130 77 q 140 313 130 220 l 37 313 l 47 382 l 148 382 q 169 541 156 451 q 58 536 133 541 l 73 635 q 186 631 136 631 q 211 824 186 659 l 315 835 q 283 631 302 766 q 463 637 346 631 l 450 536 q 267 541 338 541 q 245 382 253 451 l 420 382 l 409 313 l 237 313 q 232 214 232 254 q 252 109 232 137 q 318 80 271 80 q 460 127 386 80 m 240 650 z "},"ù":{"ha":726,"x_min":81,"x_max":661,"o":"m 661 658 q 614 157 614 281 q 625 4 614 86 l 510 -13 q 506 145 506 47 l 500 145 q 258 -20 412 -20 q 81 182 81 -20 q 96 399 81 235 q 111 644 111 564 l 229 658 q 208 464 229 629 q 186 215 186 298 q 215 105 186 136 q 306 74 244 74 q 448 171 380 74 q 528 384 516 268 q 544 644 544 549 l 661 658 m 452 736 l 374 736 q 301 848 374 747 q 226 956 227 948 l 358 956 q 405 848 358 949 q 452 736 452 747 z "},"ú":{"ha":726,"x_min":81,"x_max":661,"o":"m 661 658 q 614 157 614 281 q 625 4 614 86 l 510 -13 q 506 145 506 47 l 500 145 q 258 -20 412 -20 q 81 182 81 -20 q 96 399 81 235 q 111 644 111 564 l 229 658 q 208 464 229 629 q 186 215 186 298 q 215 105 186 136 q 306 74 244 74 q 448 171 380 74 q 528 384 516 268 q 544 644 544 549 l 661 658 m 620 956 q 520 848 620 948 q 420 736 420 747 l 342 736 q 412 848 342 747 q 481 956 481 949 l 620 956 z "},"û":{"ha":726,"x_min":81,"x_max":661,"o":"m 661 658 q 614 157 614 281 q 625 4 614 86 l 510 -13 q 506 145 506 47 l 500 145 q 258 -20 412 -20 q 81 182 81 -20 q 96 399 81 235 q 111 644 111 564 l 229 658 q 208 464 229 629 q 186 215 186 298 q 215 105 186 136 q 306 74 244 74 q 448 171 380 74 q 528 384 516 268 q 544 644 544 549 l 661 658 m 584 736 l 517 736 q 411 878 517 745 q 276 736 277 745 l 210 736 q 281 845 210 745 q 357 956 353 945 l 481 956 q 534 845 484 945 q 584 736 584 745 z "},"ũ":{"ha":726,"x_min":81,"x_max":677,"o":"m 661 658 q 614 157 614 281 q 625 4 614 86 l 510 -13 q 506 145 506 47 l 500 145 q 258 -20 412 -20 q 81 182 81 -20 q 96 399 81 235 q 111 644 111 564 l 229 658 q 208 464 229 629 q 186 215 186 298 q 215 105 186 136 q 306 74 244 74 q 448 171 380 74 q 528 384 516 268 q 544 644 544 549 l 661 658 m 677 910 q 501 783 591 783 q 421 800 469 783 q 342 816 373 816 q 223 734 286 816 l 186 768 q 364 911 274 911 q 445 897 397 911 q 523 882 492 882 q 642 944 580 882 l 677 910 z "},"ü":{"ha":726,"x_min":81,"x_max":661,"o":"m 661 658 q 614 157 614 281 q 625 4 614 86 l 510 -13 q 506 145 506 47 l 500 145 q 258 -20 412 -20 q 81 182 81 -20 q 96 399 81 235 q 111 644 111 564 l 229 658 q 208 464 229 629 q 186 215 186 298 q 215 105 186 136 q 306 74 244 74 q 448 171 380 74 q 528 384 516 268 q 544 644 544 549 l 661 658 m 598 857 q 576 796 598 821 q 518 770 553 770 q 461 830 461 770 q 485 890 461 865 q 544 916 509 916 q 598 857 598 916 m 355 857 q 332 796 355 821 q 274 770 309 770 q 220 829 220 770 q 243 890 220 865 q 301 916 266 916 q 355 857 355 916 z "},"ū":{"ha":726,"x_min":81,"x_max":661,"o":"m 661 658 q 614 157 614 281 q 625 4 614 86 l 510 -13 q 506 145 506 47 l 500 145 q 258 -20 412 -20 q 81 182 81 -20 q 96 399 81 235 q 111 644 111 564 l 229 658 q 208 464 229 629 q 186 215 186 298 q 215 105 186 136 q 306 74 244 74 q 448 171 380 74 q 528 384 516 268 q 544 644 544 549 l 661 658 m 556 888 l 539 804 l 260 804 l 276 888 l 556 888 z "},"ŭ":{"ha":726,"x_min":81,"x_max":661,"o":"m 661 658 q 614 157 614 281 q 625 4 614 86 l 510 -13 q 506 145 506 47 l 500 145 q 258 -20 412 -20 q 81 182 81 -20 q 96 399 81 235 q 111 644 111 564 l 229 658 q 208 464 229 629 q 186 215 186 298 q 215 105 186 136 q 306 74 244 74 q 448 171 380 74 q 528 384 516 268 q 544 644 544 549 l 661 658 m 602 909 q 398 754 528 754 q 227 909 263 754 l 291 943 q 406 838 324 838 q 545 943 482 838 l 602 909 z "},"ů":{"ha":726,"x_min":81,"x_max":661,"o":"m 661 658 q 614 157 614 281 q 625 4 614 86 l 510 -13 q 506 145 506 47 l 500 145 q 258 -20 412 -20 q 81 182 81 -20 q 96 399 81 235 q 111 644 111 564 l 229 658 q 208 464 229 629 q 186 215 186 298 q 215 105 186 136 q 306 74 244 74 q 448 171 380 74 q 528 384 516 268 q 544 644 544 549 l 661 658 m 546 871 q 499 760 546 801 q 391 718 452 718 q 297 753 336 718 q 258 853 258 788 q 305 964 258 923 q 413 1004 352 1004 q 507 970 469 1004 q 546 871 546 935 m 482 866 q 460 925 482 905 q 408 946 439 946 q 348 922 374 946 q 322 857 322 898 q 344 797 322 818 q 397 777 366 777 q 456 801 431 777 q 482 866 482 825 z "},"ű":{"ha":726,"x_min":81,"x_max":688,"o":"m 661 658 q 614 157 614 281 q 625 4 614 86 l 510 -13 q 506 145 506 47 l 500 145 q 258 -20 412 -20 q 81 182 81 -20 q 96 399 81 235 q 111 644 111 564 l 229 658 q 208 464 229 629 q 186 215 186 298 q 215 105 186 136 q 306 74 244 74 q 448 171 380 74 q 528 384 516 268 q 544 644 544 549 l 661 658 m 443 956 q 372 844 441 941 q 302 736 302 747 l 241 736 q 274 845 241 747 q 309 956 307 942 l 443 956 m 688 956 q 617 844 686 941 q 547 736 547 747 l 486 736 q 519 845 486 747 q 553 956 552 942 l 688 956 z "},"ų":{"ha":726,"x_min":81,"x_max":661,"o":"m 661 658 q 614 157 614 281 q 625 4 614 86 q 456 -165 456 -85 q 515 -237 456 -237 q 572 -222 539 -237 l 579 -316 q 491 -330 535 -330 q 400 -294 434 -330 q 366 -203 366 -258 q 510 -13 366 -92 q 506 145 506 47 l 500 145 q 258 -20 412 -20 q 81 182 81 -20 q 96 399 81 235 q 111 644 111 564 l 229 658 q 208 464 229 629 q 186 215 186 298 q 215 105 186 136 q 306 74 244 74 q 448 171 380 74 q 528 384 516 268 q 544 644 544 549 l 661 658 z "},"ẁ":{"ha":1027,"x_min":58,"x_max":1013,"o":"m 1013 652 q 870 315 1013 591 q 724 0 728 39 l 637 0 q 592 218 637 26 q 528 527 548 410 l 522 527 q 384 214 477 405 q 288 0 291 24 l 200 0 q 129 314 200 35 q 58 644 58 593 l 178 652 q 223 377 178 594 q 269 127 269 160 l 275 127 q 383 393 281 180 q 486 644 486 605 l 595 644 q 649 385 595 613 q 702 127 702 156 l 709 127 q 803 373 712 163 q 894 644 894 583 l 1013 652 m 585 736 l 507 736 q 434 848 507 747 q 359 956 360 948 l 491 956 q 538 848 491 949 q 585 736 585 747 z "},"ẃ":{"ha":1027,"x_min":58,"x_max":1013,"o":"m 1013 652 q 870 315 1013 591 q 724 0 728 39 l 637 0 q 592 218 637 26 q 528 527 548 410 l 522 527 q 384 214 477 405 q 288 0 291 24 l 200 0 q 129 314 200 35 q 58 644 58 593 l 178 652 q 223 377 178 594 q 269 127 269 160 l 275 127 q 383 393 281 180 q 486 644 486 605 l 595 644 q 649 385 595 613 q 702 127 702 156 l 709 127 q 803 373 712 163 q 894 644 894 583 l 1013 652 m 779 956 q 679 848 779 948 q 579 736 579 747 l 502 736 q 571 848 502 747 q 640 956 640 949 l 779 956 z "},"ŵ":{"ha":1027,"x_min":58,"x_max":1013,"o":"m 1013 652 q 870 315 1013 591 q 724 0 728 39 l 637 0 q 592 218 637 26 q 528 527 548 410 l 522 527 q 384 214 477 405 q 288 0 291 24 l 200 0 q 129 314 200 35 q 58 644 58 593 l 178 652 q 223 377 178 594 q 269 127 269 160 l 275 127 q 383 393 281 180 q 486 644 486 605 l 595 644 q 649 385 595 613 q 702 127 702 156 l 709 127 q 803 373 712 163 q 894 644 894 583 l 1013 652 m 736 736 l 669 736 q 563 878 669 745 q 428 736 429 745 l 361 736 q 433 845 362 745 q 509 956 505 945 l 633 956 q 686 845 636 945 q 736 736 736 745 z "},"ẅ":{"ha":1027,"x_min":58,"x_max":1013,"o":"m 1013 652 q 870 315 1013 591 q 724 0 728 39 l 637 0 q 592 218 637 26 q 528 527 548 410 l 522 527 q 384 214 477 405 q 288 0 291 24 l 200 0 q 129 314 200 35 q 58 644 58 593 l 178 652 q 223 377 178 594 q 269 127 269 160 l 275 127 q 383 393 281 180 q 486 644 486 605 l 595 644 q 649 385 595 613 q 702 127 702 156 l 709 127 q 803 373 712 163 q 894 644 894 583 l 1013 652 m 747 857 q 725 796 747 821 q 667 770 703 770 q 610 830 610 770 q 634 890 610 865 q 693 916 658 916 q 747 857 747 916 m 505 857 q 481 796 505 821 q 423 770 458 770 q 369 829 369 770 q 392 890 369 865 q 450 916 415 916 q 505 857 505 916 z "},"ỳ":{"ha":629,"x_min":-1,"x_max":614,"o":"m 614 652 q 474 310 614 565 q 311 -8 333 55 q 197 -233 250 -179 q -1 -300 134 -300 l 3 -205 q 159 -139 90 -205 q 228 12 228 -73 q 143 349 228 115 q 58 644 58 583 l 191 652 q 244 370 191 568 q 298 116 298 172 l 305 116 q 403 357 309 151 q 497 644 497 562 l 614 652 m 395 736 l 318 736 q 244 848 318 747 q 170 956 171 948 l 302 956 q 349 848 302 949 q 395 736 395 747 z "},"ý":{"ha":629,"x_min":-1,"x_max":614,"o":"m 614 652 q 474 310 614 565 q 311 -8 333 55 q 197 -233 250 -179 q -1 -300 134 -300 l 3 -205 q 159 -139 90 -205 q 228 12 228 -73 q 143 349 228 115 q 58 644 58 583 l 191 652 q 244 370 191 568 q 298 116 298 172 l 305 116 q 403 357 309 151 q 497 644 497 562 l 614 652 m 572 956 q 472 848 572 948 q 372 736 372 747 l 295 736 q 364 848 295 747 q 433 956 433 949 l 572 956 z "},"ŷ":{"ha":629,"x_min":-1,"x_max":614,"o":"m 614 652 q 474 310 614 565 q 311 -8 333 55 q 197 -233 250 -179 q -1 -300 134 -300 l 3 -205 q 159 -139 90 -205 q 228 12 228 -73 q 143 349 228 115 q 58 644 58 583 l 191 652 q 244 370 191 568 q 298 116 298 172 l 305 116 q 403 357 309 151 q 497 644 497 562 l 614 652 m 531 736 l 465 736 q 358 878 465 745 q 223 736 224 745 l 157 736 q 229 845 157 745 q 304 956 300 945 l 429 956 q 481 845 431 945 q 531 736 531 745 z "},"ÿ":{"ha":629,"x_min":-1,"x_max":614,"o":"m 614 652 q 474 310 614 565 q 311 -8 333 55 q 197 -233 250 -179 q -1 -300 134 -300 l 3 -205 q 159 -139 90 -205 q 228 12 228 -73 q 143 349 228 115 q 58 644 58 583 l 191 652 q 244 370 191 568 q 298 116 298 172 l 305 116 q 403 357 309 151 q 497 644 497 562 l 614 652 m 553 857 q 531 796 553 821 q 473 770 509 770 q 416 830 416 770 q 440 890 416 865 q 499 916 464 916 q 553 857 553 916 m 311 857 q 288 796 311 821 q 229 770 264 770 q 175 829 175 770 q 198 890 175 865 q 256 916 221 916 q 311 857 311 916 z "},"ź":{"ha":583,"x_min":23,"x_max":557,"o":"m 546 644 l 528 545 q 323 307 474 490 q 172 97 172 124 l 172 91 q 507 102 366 91 l 492 0 l 23 0 l 40 98 q 242 327 77 132 q 408 547 408 523 l 408 553 q 83 545 201 553 l 98 644 l 546 644 m 557 956 q 457 848 557 948 q 357 736 357 747 l 280 736 q 349 848 280 747 q 418 956 418 949 l 557 956 z "},"ž":{"ha":583,"x_min":23,"x_max":546,"o":"m 546 644 l 528 545 q 323 307 474 490 q 172 97 172 124 l 172 91 q 507 102 366 91 l 492 0 l 23 0 l 40 98 q 242 327 77 132 q 408 547 408 523 l 408 553 q 83 545 201 553 l 98 644 l 546 644 m 531 956 q 459 847 530 947 q 384 736 388 747 l 259 736 q 207 847 256 747 q 157 956 157 947 l 223 956 q 330 815 223 947 q 465 956 464 947 l 531 956 z "},"ż":{"ha":583,"x_min":23,"x_max":546,"o":"m 546 644 l 528 545 q 323 307 474 490 q 172 97 172 124 l 172 91 q 507 102 366 91 l 492 0 l 23 0 l 40 98 q 242 327 77 132 q 408 547 408 523 l 408 553 q 83 545 201 553 l 98 644 l 546 644 m 411 857 q 385 790 411 818 q 320 762 359 762 q 258 828 258 762 q 284 895 258 867 q 349 922 310 922 q 411 857 411 922 z "},"ŋ":{"ha":726,"x_min":65,"x_max":646,"o":"m 646 464 q 618 99 646 328 q 577 -93 605 -15 q 506 -214 549 -172 q 286 -300 420 -300 l 291 -205 q 439 -167 389 -205 q 483 -87 464 -148 q 514 76 501 -26 q 540 431 540 282 q 511 541 540 510 q 420 572 482 572 q 278 475 347 572 q 199 262 210 378 q 176 0 184 110 l 65 -7 q 113 468 113 345 q 102 642 113 539 l 216 659 q 220 500 220 599 l 226 500 q 469 665 314 665 q 646 464 646 665 z "},"ð":{"ha":741,"x_min":58,"x_max":696,"o":"m 696 883 q 565 827 662 868 q 667 479 667 684 q 583 123 667 273 q 319 -26 498 -26 q 125 56 192 -26 q 58 259 58 138 q 150 520 58 404 q 385 637 241 637 q 545 590 476 637 l 552 590 q 468 782 528 701 q 359 705 418 750 l 317 785 q 431 833 349 795 q 355 918 395 883 l 421 975 q 524 883 451 956 q 654 967 580 916 l 696 883 m 561 499 q 387 548 491 548 q 232 463 292 548 q 173 273 173 378 q 218 125 173 184 q 342 66 263 66 q 506 196 451 66 q 561 499 561 326 z "},"þ":{"ha":745,"x_min":27,"x_max":687,"o":"m 687 404 q 594 101 687 220 q 341 -18 500 -18 q 183 26 233 -18 l 178 26 q 148 -310 158 -162 l 27 -310 q 121 506 49 -161 q 148 954 148 784 l 277 961 q 264 855 277 948 q 232 591 246 728 q 220 500 229 557 l 226 500 q 471 665 315 665 q 627 594 568 665 q 687 404 687 524 m 571 363 q 424 572 571 572 q 281 480 351 572 q 199 262 210 386 l 185 108 q 313 68 251 68 q 507 151 443 68 q 571 363 571 233 z "},"ⁿ":{"ha":395,"x_min":25,"x_max":358,"o":"m 358 677 q 352 589 358 663 q 345 481 346 515 q 343 427 343 448 l 258 421 q 267 502 258 431 q 278 606 275 572 q 281 661 281 640 q 266 715 281 702 q 227 729 252 729 q 159 690 189 729 q 121 568 128 650 q 109 427 117 526 l 25 421 q 46 584 40 518 q 53 681 53 650 q 52 724 53 699 q 47 778 51 749 l 131 785 q 132 720 133 764 l 138 720 q 252 787 182 787 q 332 761 306 787 q 358 677 358 734 z "},"ﬀ":{"ha":837,"x_min":11,"x_max":888,"o":"m 888 964 l 867 878 q 792 883 831 883 q 706 834 732 883 q 663 631 680 783 q 842 637 727 631 l 829 536 q 654 541 704 541 q 615 72 635 292 q 548 -214 595 -149 q 413 -305 501 -280 l 386 -252 q 476 -117 449 -201 q 520 136 503 -33 q 555 541 538 304 l 279 541 q 244 76 260 292 q 177 -210 228 -140 q 38 -305 126 -280 l 11 -252 q 100 -135 74 -201 q 144 118 126 -68 q 180 541 163 304 q 43 536 141 541 l 58 636 q 190 631 146 631 q 253 882 201 804 q 448 960 306 960 q 661 917 555 961 q 808 974 716 974 q 888 964 847 974 m 613 842 q 432 876 531 876 q 325 829 351 876 q 288 631 299 783 l 565 631 q 613 842 573 764 z "},"ﬁ":{"ha":734,"x_min":11,"x_max":692,"o":"m 692 922 l 642 825 q 437 888 522 888 q 331 838 363 888 q 288 631 298 788 q 662 656 496 629 q 650 523 663 608 q 624 310 637 437 q 602 0 614 214 l 484 -7 q 526 310 499 100 q 540 551 539 439 q 279 541 419 539 q 240 70 260 290 q 173 -216 220 -150 q 38 -307 126 -281 l 11 -254 q 101 -118 74 -202 q 145 134 127 -35 q 180 541 163 303 q 43 536 141 539 l 58 636 q 190 631 146 629 q 261 890 202 807 q 433 972 321 972 q 692 922 585 972 z "},"ﬃ":{"ha":1109,"x_min":11,"x_max":1067,"o":"m 1067 922 l 1017 825 q 812 888 897 888 q 706 838 739 888 q 663 629 673 788 q 1037 656 871 629 q 1025 523 1038 608 q 999 310 1013 437 q 977 0 989 214 l 859 -7 q 901 310 874 100 q 915 550 914 439 q 654 539 794 539 q 615 70 635 290 q 548 -216 595 -150 q 413 -307 501 -281 l 386 -254 q 476 -118 449 -202 q 520 134 503 -35 q 555 539 538 303 l 279 539 q 244 74 260 290 q 177 -212 228 -142 q 38 -307 126 -281 l 11 -254 q 100 -136 74 -202 q 144 117 126 -70 q 180 539 163 303 q 43 535 141 539 l 58 635 q 190 629 146 629 q 253 881 201 803 q 448 959 306 959 q 661 916 555 960 q 808 972 716 972 q 1067 922 960 972 m 613 841 q 432 875 531 875 q 325 828 351 875 q 288 629 299 781 l 565 629 q 613 841 573 762 z "},"ﬂ":{"ha":739,"x_min":11,"x_max":703,"o":"m 703 961 q 683 780 703 921 q 649 506 663 638 q 609 3 616 189 l 486 -10 q 508 171 486 18 q 550 506 531 324 q 578 871 572 720 q 437 890 496 890 q 331 840 363 890 q 288 631 298 789 q 467 637 352 631 l 454 536 q 279 541 329 541 q 244 76 260 292 q 177 -210 228 -140 q 38 -305 126 -280 l 11 -252 q 100 -135 74 -201 q 144 118 126 -68 q 180 541 163 304 q 43 536 141 541 l 58 636 q 190 631 146 631 q 261 891 202 808 q 433 974 321 974 q 579 954 501 974 l 703 961 z "},"ﬄ":{"ha":1114,"x_min":11,"x_max":1078,"o":"m 1078 961 q 1061 811 1078 933 q 1024 506 1038 638 q 984 3 991 189 l 861 -10 q 880 146 861 18 q 925 506 906 324 q 953 871 947 720 q 812 890 871 890 q 706 840 739 890 q 663 631 673 789 q 842 637 727 631 l 829 536 q 654 541 704 541 q 619 76 635 292 q 552 -210 603 -140 q 413 -305 501 -280 l 386 -252 q 475 -135 449 -201 q 519 118 501 -68 q 555 541 538 304 l 279 541 q 244 76 260 292 q 177 -210 228 -140 q 38 -305 126 -280 l 11 -252 q 100 -135 74 -201 q 144 118 126 -68 q 180 541 163 304 q 43 536 141 541 l 58 636 q 190 631 146 631 q 253 882 201 804 q 448 960 306 960 q 661 917 555 961 q 808 974 716 974 q 954 954 876 974 l 1078 961 m 613 842 q 432 876 531 876 q 325 829 351 876 q 288 631 299 783 l 565 631 q 613 842 573 764 z "},"&":{"ha":899,"x_min":19,"x_max":827,"o":"m 827 0 l 688 0 q 653 87 688 22 q 597 178 618 152 l 592 178 q 241 -20 444 -20 q 81 43 143 -20 q 19 204 19 106 q 80 394 19 312 q 246 518 141 476 l 246 523 q 148 692 148 610 q 219 841 148 785 q 383 898 290 898 q 520 855 464 898 q 576 734 576 812 q 535 611 576 667 q 430 530 494 555 l 428 523 q 625 335 496 483 l 629 335 q 675 517 661 385 l 797 517 q 751 405 794 490 q 672 283 708 319 l 672 277 q 766 138 705 242 q 827 0 827 34 m 559 239 q 447 366 517 292 q 300 482 378 440 q 140 235 140 410 q 184 119 140 161 q 302 76 228 76 q 557 233 410 76 l 559 239 m 470 706 q 442 786 470 759 q 374 814 414 814 q 292 782 326 814 q 258 703 258 751 q 374 560 258 620 q 470 706 470 603 z "},"`":{"ha":381,"x_min":97,"x_max":323,"o":"m 323 736 l 245 736 q 172 848 245 747 q 97 956 98 948 l 229 956 q 276 848 229 949 q 323 736 323 747 z "},"̀":{"ha":0,"x_min":-427,"x_max":-201,"o":"m -201 736 l -278 736 q -352 848 -278 747 q -427 956 -425 948 l -294 956 q -248 848 -294 949 q -201 736 -201 747 z "},"´":{"ha":381,"x_min":75,"x_max":352,"o":"m 352 956 q 252 848 352 948 q 152 736 152 747 l 75 736 q 144 848 75 747 q 213 956 213 949 l 352 956 z "},"́":{"ha":0,"x_min":-332,"x_max":-55,"o":"m -55 956 q -155 848 -55 948 q -255 736 -255 747 l -332 736 q -263 848 -332 747 q -194 956 -194 949 l -55 956 z "},"ˆ":{"ha":530,"x_min":84,"x_max":458,"o":"m 458 736 l 392 736 q 286 878 392 745 q 151 736 151 745 l 84 736 q 156 845 85 745 q 231 956 227 945 l 356 956 q 409 845 359 945 q 458 736 458 745 z "},"̂":{"ha":0,"x_min":-511,"x_max":-136,"o":"m -136 736 l -203 736 q -309 878 -203 745 q -444 736 -444 745 l -511 736 q -439 845 -510 745 q -363 956 -368 945 l -239 956 q -186 845 -236 945 q -136 736 -136 745 z "},"ˇ":{"ha":530,"x_min":96,"x_max":470,"o":"m 470 956 q 398 847 469 947 q 323 736 327 747 l 198 736 q 145 847 195 747 q 96 956 96 947 l 162 956 q 269 815 162 947 q 404 956 403 947 l 470 956 z "},"̌":{"ha":0,"x_min":-432,"x_max":-58,"o":"m -58 956 q -130 847 -58 947 q -205 736 -201 747 l -330 736 q -382 847 -332 747 q -432 956 -432 947 l -366 956 q -259 815 -366 947 q -124 956 -125 947 l -58 956 z "},"̕":{"ha":113,"x_min":-22,"x_max":151,"o":"m 151 814 q 103 679 151 740 q 10 591 55 618 l -15 621 q 43 724 38 681 q -22 806 -22 743 q 2 873 -22 844 q 75 901 26 901 q 130 878 109 901 q 151 814 151 855 z "},"˜":{"ha":600,"x_min":83,"x_max":574,"o":"m 574 910 q 397 783 488 783 q 317 800 365 783 q 239 816 269 816 q 119 734 182 816 l 83 768 q 260 911 170 911 q 341 897 293 911 q 419 882 389 882 q 538 944 476 882 l 574 910 z "},"̃":{"ha":0,"x_min":-505,"x_max":-14,"o":"m -14 910 q -191 783 -100 783 q -271 800 -223 783 q -349 816 -319 816 q -469 734 -406 816 l -505 768 q -328 911 -418 911 q -247 897 -295 911 q -169 882 -199 882 q -50 944 -112 882 l -14 910 z "},"¨":{"ha":567,"x_min":111,"x_max":490,"o":"m 490 857 q 467 796 490 821 q 410 770 445 770 q 353 830 353 770 q 376 890 353 865 q 435 916 400 916 q 490 857 490 916 m 247 857 q 224 796 247 821 q 165 770 201 770 q 111 829 111 770 q 134 890 111 865 q 193 916 157 916 q 247 857 247 916 z "},"̈":{"ha":0,"x_min":-481,"x_max":-102,"o":"m -102 857 q -125 796 -102 821 q -182 770 -147 770 q -239 830 -239 770 q -216 890 -239 865 q -157 916 -192 916 q -102 857 -102 916 m -345 857 q -368 796 -345 821 q -427 770 -391 770 q -481 829 -481 770 q -458 890 -481 865 q -399 916 -435 916 q -345 857 -345 916 z "},"¯":{"ha":339,"x_min":55,"x_max":351,"o":"m 351 888 l 334 804 l 55 804 l 71 888 l 351 888 z "},"̄":{"ha":0,"x_min":-418,"x_max":-122,"o":"m -122 888 l -139 804 l -418 804 l -402 888 l -122 888 z "},"˘":{"ha":530,"x_min":127,"x_max":503,"o":"m 503 909 q 299 754 429 754 q 127 909 164 754 l 192 943 q 307 838 225 838 q 446 943 383 838 l 503 909 z "},"̆":{"ha":0,"x_min":-452,"x_max":-76,"o":"m -76 909 q -280 754 -151 754 q -452 909 -415 754 l -387 943 q -272 838 -354 838 q -134 943 -196 838 l -76 909 z "},"˚":{"ha":414,"x_min":70,"x_max":357,"o":"m 357 871 q 311 760 357 801 q 203 718 264 718 q 109 753 147 718 q 70 853 70 788 q 117 964 70 923 q 224 1004 163 1004 q 319 970 280 1004 q 357 871 357 935 m 294 866 q 272 925 294 905 q 219 946 250 946 q 159 922 185 946 q 134 857 134 898 q 155 797 134 818 q 208 777 177 777 q 268 801 242 777 q 294 866 294 825 z "},"̊":{"ha":0,"x_min":-449,"x_max":-161,"o":"m -161 871 q -208 760 -161 801 q -316 718 -255 718 q -410 753 -372 718 q -449 853 -449 788 q -402 964 -449 923 q -294 1004 -355 1004 q -200 970 -239 1004 q -161 871 -161 935 m -225 866 q -247 925 -225 905 q -300 946 -269 946 q -359 922 -334 946 q -385 857 -385 898 q -363 797 -385 818 q -311 777 -342 777 q -251 801 -277 777 q -225 866 -225 825 z "},"˝":{"ha":598,"x_min":92,"x_max":539,"o":"m 294 956 q 223 844 293 941 q 153 736 154 747 l 92 736 q 126 845 93 747 q 160 956 159 942 l 294 956 m 539 956 q 468 844 538 941 q 398 736 399 747 l 337 736 q 371 845 338 747 q 405 956 404 942 l 539 956 z "},"̋":{"ha":0,"x_min":-455,"x_max":-8,"o":"m -253 956 q -324 844 -254 941 q -394 736 -393 747 l -455 736 q -421 845 -454 747 q -387 956 -389 942 l -253 956 m -8 956 q -79 844 -9 941 q -149 736 -149 747 l -210 736 q -177 845 -210 747 q -142 956 -144 942 l -8 956 z "},"˙":{"ha":357,"x_min":153,"x_max":306,"o":"m 306 857 q 280 790 306 818 q 215 762 254 762 q 153 828 153 762 q 179 895 153 867 q 244 922 205 922 q 306 857 306 922 z "},"̇":{"ha":0,"x_min":-345,"x_max":-192,"o":"m -192 857 q -218 790 -192 818 q -283 762 -243 762 q -345 828 -345 762 q -319 895 -345 867 q -254 922 -293 922 q -192 857 -192 922 z "},"¸":{"ha":319,"x_min":65,"x_max":248,"o":"m 248 -184 q 79 -335 248 -335 l 76 -273 q 130 -251 107 -273 q 152 -199 152 -229 q 65 -96 152 -115 l 109 35 l 155 26 l 137 -47 q 248 -184 248 -86 z "},"̧":{"ha":0,"x_min":-264,"x_max":-81,"o":"m -81 -184 q -250 -335 -81 -335 l -253 -273 q -199 -251 -222 -273 q -177 -199 -177 -229 q -264 -96 -177 -115 l -220 35 l -174 26 l -192 -47 q -81 -184 -81 -86 z "},"˛":{"ha":319,"x_min":35,"x_max":248,"o":"m 248 -316 q 160 -330 204 -330 q 69 -291 103 -330 q 35 -183 35 -252 q 157 7 35 -72 l 235 7 q 127 -145 127 -64 q 184 -237 127 -237 q 241 -222 208 -237 l 248 -316 z "},"̨":{"ha":0,"x_min":-331,"x_max":-118,"o":"m -118 -316 q -206 -330 -162 -330 q -297 -291 -263 -330 q -331 -183 -331 -252 q -209 7 -331 -72 l -132 7 q -239 -145 -239 -64 q -182 -237 -239 -237 q -125 -222 -158 -237 l -118 -316 z "},"̦":{"ha":0,"x_min":-433,"x_max":-277,"o":"m -277 -149 q -321 -272 -277 -217 q -405 -353 -364 -328 l -427 -326 q -375 -232 -379 -271 q -433 -157 -433 -214 q -412 -96 -433 -122 q -346 -71 -390 -71 q -296 -92 -315 -71 q -277 -149 -277 -113 z "},"̒":{"ha":0,"x_min":-401,"x_max":-245,"o":"m -245 848 q -267 788 -245 814 q -332 762 -288 762 q -382 783 -363 762 q -401 841 -401 804 q -357 964 -401 909 q -273 1044 -314 1019 l -251 1017 q -303 924 -299 962 q -245 848 -245 906 z "},",":{"ha":350,"x_min":-32,"x_max":219,"o":"m 219 97 q -1 -250 219 -67 l -32 -210 q 55 -87 31 -143 q 76 9 70 -52 q 43 79 43 29 q 74 155 43 123 q 151 186 106 186 q 203 157 184 186 q 219 97 219 133 m 122 -1 z "},";":{"ha":350,"x_min":-32,"x_max":262,"o":"m 219 97 q -1 -250 219 -67 l -32 -210 q 55 -87 31 -143 q 76 9 70 -52 q 43 79 43 29 q 74 155 43 123 q 151 186 106 186 q 203 157 184 186 q 219 97 219 133 m 122 -1 m 262 574 q 232 495 262 528 q 155 461 201 461 q 85 538 85 461 q 116 617 85 585 q 192 649 146 649 q 262 574 262 649 z "},":":{"ha":350,"x_min":39,"x_max":264,"o":"m 215 112 q 185 32 215 66 q 109 -1 155 -1 q 39 76 39 -1 q 69 154 39 122 q 145 186 99 186 q 215 112 215 186 m 264 574 q 234 495 264 528 q 157 461 203 461 q 87 538 87 461 q 118 617 87 585 q 194 649 148 649 q 264 574 264 649 z "},".":{"ha":350,"x_min":39,"x_max":215,"o":"m 215 112 q 185 32 215 66 q 109 -1 155 -1 q 39 76 39 -1 q 69 154 39 122 q 145 186 99 186 q 215 112 215 186 z "},"…":{"ha":1389,"x_min":104,"x_max":1078,"o":"m 280 112 q 250 32 280 66 q 174 -1 220 -1 q 104 76 104 -1 q 134 154 104 122 q 210 186 164 186 q 280 112 280 186 m 679 112 q 649 32 679 66 q 572 -1 618 -1 q 503 76 503 -1 q 533 154 503 122 q 609 186 563 186 q 679 112 679 186 m 1078 112 q 1047 32 1078 66 q 971 -1 1017 -1 q 901 76 901 -1 q 931 154 901 122 q 1008 186 962 186 q 1078 112 1078 186 z "},"-":{"ha":350,"x_min":28,"x_max":322,"o":"m 322 394 l 305 307 l 28 297 l 43 384 l 322 394 z "},"!":{"ha":350,"x_min":38,"x_max":283,"o":"m 283 821 q 176 364 283 689 l 136 364 q 132 661 132 545 q 228 899 132 899 q 283 821 283 899 m 214 112 q 184 32 214 66 q 108 -1 154 -1 q 38 76 38 -1 q 68 154 38 122 q 144 186 98 186 q 214 112 214 186 z "},"¡":{"ha":350,"x_min":68,"x_max":316,"o":"m 68 -165 q 174 292 68 -33 l 222 292 q 228 -5 228 111 q 123 -243 228 -243 q 68 -165 68 -243 m 140 545 q 170 624 140 591 q 246 658 200 658 q 316 581 316 658 q 286 502 316 534 q 210 470 256 470 q 140 545 140 470 z "},"?":{"ha":490,"x_min":52,"x_max":432,"o":"m 432 718 q 369 563 432 635 q 229 467 313 498 l 205 364 l 155 364 l 145 509 q 321 685 321 551 q 62 820 321 820 l 87 905 q 432 718 432 905 m 229 112 q 199 32 229 66 q 123 -1 169 -1 q 52 76 52 -1 q 82 154 52 122 q 159 186 113 186 q 229 112 229 186 z "},"¿":{"ha":490,"x_min":41,"x_max":421,"o":"m 41 -57 q 104 98 41 26 q 244 194 161 163 l 268 296 l 319 296 l 328 152 q 152 -24 152 109 q 411 -159 152 -159 l 386 -245 q 41 -57 41 -245 m 244 549 q 274 628 244 595 q 351 662 304 662 q 421 585 421 662 q 391 506 421 538 q 315 474 361 474 q 244 549 244 474 z "},"‘":{"ha":350,"x_min":75,"x_max":326,"o":"m 326 935 q 239 812 262 868 q 218 715 224 777 q 252 646 252 695 q 220 570 252 602 q 143 539 188 539 q 91 568 109 539 q 75 627 75 592 q 293 981 75 800 l 326 935 m 163 727 z "},"’":{"ha":350,"x_min":76,"x_max":326,"o":"m 326 886 q 108 532 326 713 l 76 577 q 163 701 139 644 q 184 798 178 736 q 149 867 149 818 q 181 943 149 911 q 258 974 213 974 q 310 945 292 974 q 326 886 326 921 m 237 786 z "},"“":{"ha":701,"x_min":75,"x_max":656,"o":"m 326 935 q 239 812 262 868 q 218 715 224 777 q 252 646 252 695 q 220 570 252 602 q 143 539 188 539 q 91 568 109 539 q 75 627 75 592 q 293 981 75 800 l 326 935 m 163 727 m 656 935 q 570 812 593 868 q 549 715 555 777 q 583 646 583 695 q 551 570 583 602 q 474 539 519 539 q 422 568 440 539 q 406 627 406 592 q 624 981 406 800 l 656 935 m 494 727 z "},"”":{"ha":701,"x_min":76,"x_max":645,"o":"m 326 886 q 108 532 326 713 l 76 577 q 163 701 139 644 q 184 798 178 736 q 149 867 149 818 q 181 943 149 911 q 258 974 213 974 q 310 945 292 974 q 326 886 326 921 m 237 786 m 645 886 q 427 532 645 713 l 395 577 q 481 701 458 644 q 503 798 496 736 q 467 867 467 818 q 499 943 467 911 q 576 974 532 974 q 629 945 610 974 q 645 886 645 921 m 556 786 z "},"‚":{"ha":350,"x_min":-32,"x_max":219,"o":"m 219 97 q -1 -250 219 -67 l -32 -210 q 55 -87 31 -143 q 76 9 70 -52 q 43 79 43 29 q 74 155 43 123 q 151 186 106 186 q 203 157 184 186 q 219 97 219 133 m 122 -1 z "},"„":{"ha":701,"x_min":-32,"x_max":560,"o":"m 219 97 q -1 -250 219 -67 l -32 -210 q 55 -87 31 -143 q 76 9 70 -52 q 43 79 43 29 q 74 155 43 123 q 151 186 106 186 q 203 157 184 186 q 219 97 219 133 m 122 -1 m 560 97 q 340 -250 560 -67 l 309 -210 q 396 -87 372 -143 q 417 9 411 -52 q 384 79 384 29 q 415 155 384 123 q 492 186 447 186 q 544 157 526 186 q 560 97 560 133 m 463 -1 z "},"‹":{"ha":350,"x_min":47,"x_max":315,"o":"m 315 530 l 148 331 l 273 130 l 216 85 l 47 289 l 56 373 l 266 574 l 315 530 z "},"›":{"ha":350,"x_min":3,"x_max":271,"o":"m 271 373 l 262 289 l 52 85 l 3 130 l 170 330 l 45 530 l 102 574 l 271 373 z "},"«":{"ha":630,"x_min":47,"x_max":581,"o":"m 315 530 l 148 331 l 273 130 l 216 85 l 47 289 l 56 373 l 266 574 l 315 530 m 581 530 l 414 331 l 539 130 l 482 85 l 314 289 l 322 373 l 532 574 l 581 530 z "},"»":{"ha":630,"x_min":3,"x_max":552,"o":"m 271 373 l 262 289 l 52 85 l 3 130 l 170 330 l 45 530 l 102 574 l 271 373 m 552 373 l 544 289 l 334 85 l 285 130 l 452 330 l 327 530 l 384 574 l 552 373 z "},"/":{"ha":371,"x_min":-70,"x_max":387,"o":"m 387 987 q 210 425 382 940 q 26 -205 38 -90 l -70 -205 q 106 349 -66 -161 q 291 987 278 859 l 387 987 z "},"|":{"ha":350,"x_min":119,"x_max":231,"o":"m 231 -351 l 120 -351 q 127 319 127 96 q 119 1051 127 537 l 229 1051 q 222 319 222 548 q 231 -351 222 96 z "},"–":{"ha":694,"x_min":42,"x_max":656,"o":"m 656 385 l 648 298 l 42 298 l 50 385 l 656 385 z "},"—":{"ha":1389,"x_min":-3,"x_max":1392,"o":"m 1392 385 l 1383 298 l -3 298 l 5 385 l 1392 385 z "},"―":{"ha":1389,"x_min":71,"x_max":1331,"o":"m 1331 392 l 1322 292 l 71 292 l 80 392 l 1331 392 z "},"•":{"ha":916,"x_min":261,"x_max":656,"o":"m 656 452 q 596 282 656 352 q 435 213 536 213 q 313 269 364 213 q 261 415 261 324 q 321 586 261 515 q 482 656 382 656 q 604 600 553 656 q 656 452 656 543 z "},"·":{"ha":350,"x_min":93,"x_max":269,"o":"m 269 427 q 239 348 269 381 q 163 314 209 314 q 93 391 93 314 q 123 470 93 437 q 199 502 153 502 q 269 427 269 502 z "},"(":{"ha":490,"x_min":71,"x_max":509,"o":"m 509 974 q 344 797 412 899 q 178 222 178 554 q 384 -272 178 -98 l 331 -330 q 201 -227 255 -292 q 71 196 71 -71 q 170 676 71 441 q 481 1031 287 952 l 509 974 z "},")":{"ha":490,"x_min":-60,"x_max":378,"o":"m 378 506 q 279 26 378 261 q -32 -330 162 -250 l -60 -272 q 105 -93 36 -195 q 271 479 271 152 q 64 974 271 800 l 118 1031 q 248 928 194 994 q 378 506 378 772 z "},"[":{"ha":490,"x_min":56,"x_max":508,"o":"m 508 1031 l 489 915 q 299 919 348 919 q 228 319 245 494 q 176 -223 218 225 q 377 -210 224 -222 l 358 -328 l 56 -321 q 132 319 109 94 q 197 1023 146 458 l 508 1031 z "},"]":{"ha":490,"x_min":-62,"x_max":390,"o":"m 390 1023 q 314 382 327 509 q 248 -321 300 245 l -62 -330 l -43 -212 q 151 -216 99 -216 q 218 382 208 269 q 270 926 229 477 q 68 913 222 925 l 87 1030 l 390 1023 z "},"{":{"ha":490,"x_min":26,"x_max":505,"o":"m 505 947 q 278 745 278 914 q 294 626 278 710 q 310 516 310 541 q 259 404 310 454 q 145 355 208 355 l 145 349 q 225 319 185 349 q 278 214 278 281 q 235 67 278 166 q 191 -79 191 -33 q 387 -245 191 -197 l 337 -332 q 80 -132 80 -276 q 123 41 80 -74 q 167 205 167 155 q 116 274 167 248 q 26 297 77 294 l 37 398 q 205 519 205 435 q 191 642 205 550 q 176 775 176 733 q 277 962 176 891 q 489 1031 362 1021 l 505 947 z "},"}":{"ha":490,"x_min":-53,"x_max":427,"o":"m 427 402 l 417 301 q 252 177 252 268 q 264 56 252 146 q 277 -77 277 -35 q 178 -260 277 -191 q -32 -332 97 -317 l -53 -247 q 170 -47 170 -209 q 157 71 170 -14 q 144 182 144 155 q 194 294 144 243 q 307 345 244 345 l 309 349 q 229 379 269 349 q 176 486 176 419 q 216 631 176 529 q 256 777 256 733 q 72 946 256 903 l 114 1031 q 372 828 372 985 q 328 653 372 778 q 284 495 284 529 q 336 426 284 452 q 427 402 376 406 z "},"*":{"ha":701,"x_min":85,"x_max":625,"o":"m 625 718 q 570 663 625 675 q 479 659 547 659 q 393 664 452 659 l 387 650 q 511 489 511 528 q 478 433 511 460 q 418 406 446 406 q 342 622 365 406 l 328 622 q 190 426 236 426 q 137 450 163 426 q 111 502 111 474 q 293 654 111 551 l 290 670 q 109 698 219 676 q 85 748 85 703 q 104 806 85 781 q 149 836 123 836 q 314 719 186 836 l 327 727 q 313 902 313 844 q 314 925 313 916 q 341 960 316 946 q 393 972 364 972 q 452 925 452 972 q 376 724 452 871 l 386 713 q 575 808 536 808 q 614 775 599 808 q 625 718 625 749 z "},"†":{"ha":490,"x_min":7,"x_max":472,"o":"m 472 639 l 455 549 q 292 553 364 553 q 160 -280 256 217 l 137 -280 q 150 1 142 -135 q 192 553 168 327 q 7 549 135 553 l 24 639 q 210 632 173 632 l 217 814 q 214 953 217 887 l 342 967 q 286 632 323 877 q 472 639 343 632 z "},"‡":{"ha":490,"x_min":-9,"x_max":487,"o":"m 487 639 l 470 549 q 306 553 354 553 q 264 352 303 526 q 457 359 309 352 l 439 259 q 283 263 332 263 q 174 -280 268 110 l 152 -280 q 169 263 152 109 q -9 259 137 263 l 9 359 q 205 352 166 352 q 206 553 203 526 q 22 549 172 553 l 38 639 q 226 632 191 632 q 229 953 235 781 l 356 967 q 300 632 338 877 q 487 639 346 632 z "},"§":{"ha":583,"x_min":-7,"x_max":536,"o":"m 536 939 l 505 841 q 350 870 438 870 q 217 769 217 870 q 290 640 217 712 q 425 512 357 576 q 497 356 497 432 q 454 224 497 278 q 334 151 411 170 q 452 -60 452 41 q 376 -236 452 -174 q 187 -294 304 -294 q -7 -272 81 -294 l 22 -172 q 197 -206 102 -206 q 350 -106 350 -206 q 277 18 350 -56 l 142 153 q 70 317 70 239 q 117 445 70 391 q 238 515 163 498 q 113 734 113 631 q 187 898 113 835 q 360 958 257 958 q 536 939 471 958 m 395 315 q 297 464 395 375 q 210 433 245 464 q 174 351 174 401 q 276 203 174 294 q 360 235 326 203 q 395 315 395 267 z "},"¶":{"ha":930,"x_min":121,"x_max":755,"o":"m 755 953 q 697 481 744 887 q 626 -280 645 -16 l 515 -280 q 602 496 528 -176 q 631 827 623 696 l 633 857 q 530 862 564 862 q 460 283 517 785 q 406 -313 418 -123 l 404 -336 l 328 -336 q 400 283 337 -283 q 408 380 404 319 q 197 435 267 380 q 121 633 121 496 q 204 865 121 777 q 437 957 291 957 q 579 955 500 957 q 673 953 657 953 l 755 953 z "},"Α":{"ha":836,"x_min":-27,"x_max":772,"o":"m 772 0 l 637 0 q 585 286 637 66 l 213 286 q 161 169 183 221 q 103 0 108 43 l -27 0 q 186 434 -24 20 q 398 883 394 845 l 547 883 q 660 440 547 822 q 772 0 772 58 m 564 374 q 457 798 457 766 l 451 798 q 249 374 449 777 l 564 374 z "},"Β":{"ha":758,"x_min":60,"x_max":691,"o":"m 691 286 q 572 66 691 137 q 269 -4 453 -4 q 60 0 219 -4 q 117 464 74 96 q 145 883 142 703 l 229 883 q 327 885 252 883 q 433 887 403 887 q 614 839 545 887 q 682 703 682 791 q 642 572 682 631 q 532 490 600 510 l 532 484 q 644 421 597 471 q 691 286 691 370 m 580 279 q 315 425 580 425 q 211 420 264 425 q 184 97 192 239 q 303 91 221 91 q 500 130 420 91 q 580 279 580 169 m 570 677 q 405 799 570 799 q 245 789 315 799 q 220 513 245 773 q 302 511 264 511 q 480 536 420 511 q 570 677 570 575 z "},"Γ":{"ha":627,"x_min":60,"x_max":647,"o":"m 647 883 l 633 782 q 252 790 469 790 q 227 479 250 741 q 190 0 198 211 l 60 0 q 119 464 75 96 q 146 883 144 703 l 647 883 z "},"Δ":{"ha":808,"x_min":-27,"x_max":745,"o":"m 745 0 l -27 0 q 179 436 -27 29 q 386 883 386 843 l 530 883 q 637 447 530 846 q 745 0 745 48 m 603 92 q 511 497 586 200 q 445 798 445 763 l 438 798 q 309 498 434 760 q 128 92 166 200 l 603 92 z "},"Ε":{"ha":669,"x_min":60,"x_max":639,"o":"m 639 883 l 623 782 q 250 790 448 790 q 231 570 248 754 l 224 506 q 530 514 395 506 l 518 413 q 214 419 377 419 q 184 92 196 245 q 595 102 399 92 l 578 0 l 60 0 q 117 464 74 96 q 146 883 142 703 l 639 883 z "},"Ζ":{"ha":678,"x_min":19,"x_max":650,"o":"m 650 883 l 635 799 q 365 409 551 690 q 176 100 178 128 l 174 92 q 587 111 307 92 l 572 0 l 19 0 l 33 81 q 319 480 127 201 q 513 791 510 759 l 515 799 q 113 782 374 799 l 124 883 l 650 883 z "},"Η":{"ha":831,"x_min":60,"x_max":771,"o":"m 771 883 q 717 464 757 798 q 684 0 692 227 l 555 0 q 606 420 570 111 l 220 420 q 189 0 205 270 l 60 0 q 118 464 77 115 q 146 883 142 690 l 275 883 q 227 506 262 793 l 617 506 q 641 883 633 653 l 771 883 z "},"Θ":{"ha":894,"x_min":47,"x_max":846,"o":"m 590 510 l 578 399 q 446 406 515 406 q 309 399 384 406 l 321 510 q 458 503 398 503 q 590 510 524 503 m 846 505 q 716 134 846 294 q 389 -26 587 -26 q 149 82 251 -26 q 47 370 47 191 q 178 743 47 585 q 505 901 309 901 q 744 792 642 901 q 846 505 846 684 m 730 498 q 655 725 730 644 q 477 806 580 806 q 254 672 342 806 q 165 376 165 538 q 240 150 165 232 q 418 68 315 68 q 642 203 553 68 q 730 498 730 339 z "},"Ι":{"ha":335,"x_min":60,"x_max":275,"o":"m 275 883 q 222 464 262 800 q 192 49 200 250 l 190 0 l 60 0 q 119 464 75 100 q 145 883 144 704 l 275 883 z "},"Κ":{"ha":764,"x_min":60,"x_max":734,"o":"m 734 883 q 581 709 734 863 q 357 506 429 556 l 355 498 q 572 239 427 468 q 705 0 705 28 l 572 0 q 512 121 572 12 q 371 345 443 248 q 253 443 298 443 l 220 443 q 186 0 203 284 l 60 0 q 117 464 74 96 q 145 883 142 703 l 274 883 q 229 517 262 800 l 243 517 q 439 692 273 517 q 602 883 602 863 l 734 883 z "},"Λ":{"ha":808,"x_min":-27,"x_max":745,"o":"m 745 0 l 609 0 q 527 417 609 73 q 445 798 445 762 l 438 798 q 267 408 434 760 q 103 0 103 61 l -27 0 q 179 436 -27 29 q 386 883 386 843 l 530 883 q 637 453 530 848 q 745 0 745 58 z "},"Μ":{"ha":1081,"x_min":30,"x_max":981,"o":"m 971 0 l 843 0 q 877 787 843 357 l 869 787 q 824 667 863 766 q 660 311 786 568 q 528 0 534 54 l 438 0 q 369 362 438 69 q 293 700 300 656 q 281 787 286 744 l 274 787 q 202 355 261 683 q 143 0 143 27 l 30 0 q 114 399 30 24 q 210 883 198 774 l 372 883 q 440 509 372 777 q 509 149 509 241 l 515 149 q 665 520 523 221 q 814 883 808 819 l 981 883 q 959 387 959 690 q 971 0 959 149 z "},"Ν":{"ha":844,"x_min":52,"x_max":792,"o":"m 792 883 q 739 464 779 802 q 699 0 713 220 l 608 0 q 425 350 608 24 q 216 768 235 688 l 209 768 q 213 685 213 739 q 199 460 213 589 q 160 0 176 232 l 52 0 q 111 464 68 101 q 138 883 136 703 l 269 883 q 437 545 269 843 q 631 149 614 235 l 636 149 q 632 212 632 174 q 646 457 632 321 q 675 883 673 708 l 792 883 z "},"Ξ":{"ha":724,"x_min":16,"x_max":707,"o":"m 639 109 l 623 0 l 16 0 l 32 109 q 347 100 176 100 q 639 109 500 100 m 707 883 l 692 777 q 400 785 546 785 q 119 777 250 785 l 133 883 l 707 883 m 584 514 l 572 406 q 378 412 488 412 q 162 406 267 412 l 174 514 q 388 506 288 506 q 584 514 486 506 z "},"Ο":{"ha":894,"x_min":47,"x_max":846,"o":"m 846 505 q 716 134 846 294 q 389 -26 587 -26 q 149 82 251 -26 q 47 370 47 191 q 178 743 47 585 q 505 901 309 901 q 744 792 642 901 q 846 505 846 684 m 730 498 q 655 725 730 644 q 477 806 580 806 q 250 676 335 806 q 165 376 165 545 q 240 150 165 232 q 418 68 315 68 q 644 200 557 68 q 730 498 730 332 z "},"Π":{"ha":833,"x_min":60,"x_max":773,"o":"m 773 883 q 722 469 759 783 q 688 0 701 264 l 557 0 q 611 446 570 85 q 659 798 632 648 l 250 798 q 224 457 248 734 q 190 0 195 179 l 60 0 q 116 469 77 127 q 145 883 136 659 l 773 883 z "},"Ρ":{"ha":727,"x_min":60,"x_max":697,"o":"m 697 673 q 574 433 697 511 q 265 356 450 356 q 211 357 228 356 q 191 0 194 198 l 60 0 q 118 464 73 85 q 146 883 142 697 l 244 883 q 330 885 259 883 q 449 887 400 887 q 630 826 562 887 q 697 673 697 765 m 585 647 q 376 799 585 799 q 253 789 321 799 l 219 444 q 274 443 241 443 q 585 647 585 443 z "},"Σ":{"ha":704,"x_min":-23,"x_max":688,"o":"m 688 883 l 673 782 q 267 792 427 792 l 268 785 q 490 492 268 751 q 170 111 170 140 l 169 104 q 642 120 421 104 l 625 0 l -23 0 q 353 470 -18 50 l 353 477 q 87 883 87 817 l 688 883 z "},"Τ":{"ha":701,"x_min":66,"x_max":720,"o":"m 720 883 l 707 787 q 445 794 580 794 q 408 464 431 685 q 373 0 385 243 l 248 0 q 305 464 263 106 q 336 794 326 661 q 66 786 240 794 l 79 883 l 720 883 z "},"Υ":{"ha":711,"x_min":50,"x_max":748,"o":"m 748 883 q 633 705 748 857 q 453 457 517 553 q 380 288 388 361 q 366 0 366 152 l 237 0 q 275 311 275 255 q 231 497 275 394 q 119 730 187 600 q 50 883 50 861 l 182 883 q 268 664 182 857 q 354 405 354 471 l 361 405 q 493 661 368 468 q 619 883 619 853 l 748 883 z "},"Φ":{"ha":899,"x_min":30,"x_max":869,"o":"m 869 496 q 756 208 869 325 q 468 66 644 92 q 465 -27 464 12 l 338 -27 q 351 62 341 -11 q 120 171 210 73 q 30 410 30 269 q 143 703 30 583 q 433 849 257 823 q 434 910 436 886 l 559 910 q 551 852 557 900 q 780 742 691 840 q 869 496 869 644 m 427 769 q 217 656 296 751 q 139 427 139 561 q 201 238 139 313 q 361 143 262 163 q 400 464 370 201 q 427 769 417 627 m 764 498 q 701 678 764 607 q 539 767 639 749 q 504 464 532 710 q 473 140 486 291 q 684 262 604 159 q 764 498 764 364 z "},"Χ":{"ha":783,"x_min":-35,"x_max":768,"o":"m 768 883 q 635 703 768 864 q 456 498 501 541 l 456 492 q 607 240 500 441 q 714 0 714 39 l 574 0 q 490 199 574 34 q 370 416 406 365 l 362 416 q 215 195 315 358 q 115 0 115 31 l -35 0 q 127 233 -35 20 q 325 478 289 446 l 325 485 q 200 694 295 525 q 106 883 106 863 l 245 883 q 314 723 245 857 q 410 551 383 589 l 416 551 q 544 729 454 594 q 634 883 634 864 l 768 883 z "},"Ψ":{"ha":932,"x_min":75,"x_max":924,"o":"m 924 857 q 880 640 909 813 q 754 392 863 476 q 496 298 646 309 q 480 0 481 134 l 350 0 q 389 297 359 60 q 75 569 75 317 q 80 654 75 597 q 85 739 85 710 q 78 857 85 806 l 168 878 q 183 730 183 845 l 183 661 q 226 455 183 514 q 399 381 269 396 q 436 883 430 669 l 566 883 q 505 381 551 785 q 690 457 631 391 q 779 681 749 524 q 842 878 807 825 l 924 857 z "},"Ω":{"ha":900,"x_min":0,"x_max":850,"o":"m 850 547 q 799 334 850 421 q 669 175 747 246 q 599 98 602 115 l 597 91 q 843 104 728 91 l 825 0 l 477 0 q 552 170 486 91 q 607 232 566 185 q 674 318 648 279 q 736 538 736 412 q 664 740 736 668 q 491 811 591 811 q 276 710 358 811 q 195 469 195 608 q 272 235 195 360 q 350 0 350 110 l 0 0 l 4 104 q 233 90 129 90 l 233 100 q 193 170 233 119 q 111 299 142 236 q 80 454 80 362 q 204 776 80 648 q 515 904 328 904 q 751 806 652 904 q 850 547 850 708 z "},"Ά":{"ha":900,"x_min":37,"x_max":836,"o":"m 836 0 l 701 0 q 649 286 701 66 l 277 286 q 225 169 248 221 q 168 0 172 43 l 37 0 q 251 434 41 20 q 463 883 458 845 l 612 883 q 724 440 612 822 q 836 0 836 58 m 629 374 q 522 798 522 766 l 515 798 q 313 374 513 777 l 629 374 m 383 1024 q 280 892 381 1009 q 177 757 179 774 l 100 757 q 172 895 102 779 q 244 1024 242 1010 l 383 1024 z "},"Έ":{"ha":895,"x_min":100,"x_max":865,"o":"m 865 883 l 849 782 q 476 790 674 790 q 456 570 473 754 l 450 506 q 755 514 621 506 l 744 413 q 440 419 603 419 q 410 92 422 245 q 821 102 625 92 l 804 0 l 286 0 q 343 464 300 96 q 372 883 368 703 l 865 883 m 383 1024 q 280 892 381 1009 q 177 757 179 774 l 100 757 q 172 895 102 779 q 244 1024 242 1010 l 383 1024 z "},"Ή":{"ha":1073,"x_min":100,"x_max":1011,"o":"m 1011 883 q 957 464 997 798 q 924 0 932 227 l 795 0 q 846 420 810 111 l 460 420 q 429 0 445 270 l 300 0 q 358 464 317 115 q 387 883 382 690 l 515 883 q 467 506 502 793 l 857 506 q 881 883 873 653 l 1011 883 m 383 1024 q 280 892 381 1009 q 177 757 179 774 l 100 757 q 172 895 102 779 q 244 1024 242 1010 l 383 1024 z "},"Ί":{"ha":581,"x_min":100,"x_max":512,"o":"m 512 883 q 459 464 499 800 q 429 49 437 250 l 427 0 l 296 0 q 355 464 312 100 q 382 883 380 704 l 512 883 m 383 1024 q 280 892 381 1009 q 177 757 179 774 l 100 757 q 172 895 102 779 q 244 1024 242 1010 l 383 1024 z "},"Ϊ":{"ha":335,"x_min":56,"x_max":435,"o":"m 275 883 q 222 464 262 800 q 192 49 200 250 l 190 0 l 60 0 q 119 464 75 100 q 145 883 144 704 l 275 883 m 435 1066 q 412 1005 435 1030 q 355 979 390 979 q 298 1039 298 979 q 321 1099 298 1074 q 380 1124 345 1124 q 435 1066 435 1124 m 192 1066 q 169 1005 192 1030 q 111 979 146 979 q 56 1038 56 979 q 79 1099 56 1074 q 138 1124 102 1124 q 192 1066 192 1124 z "},"Ό":{"ha":1016,"x_min":100,"x_max":968,"o":"m 968 505 q 839 134 968 294 q 511 -26 709 -26 q 271 82 373 -26 q 170 370 170 191 q 300 743 170 585 q 627 901 431 901 q 866 792 764 901 q 968 505 968 684 m 852 498 q 777 725 852 644 q 599 806 702 806 q 372 676 457 806 q 288 376 288 545 q 362 150 288 232 q 540 68 437 68 q 766 200 680 68 q 852 498 852 332 m 383 1024 q 280 892 381 1009 q 177 757 179 774 l 100 757 q 172 895 102 779 q 244 1024 242 1010 l 383 1024 z "},"Ύ":{"ha":988,"x_min":100,"x_max":1025,"o":"m 1025 883 q 909 705 1025 857 q 729 457 794 553 q 657 288 665 361 q 643 0 643 152 l 513 0 q 552 311 552 255 q 508 497 552 394 q 395 730 464 600 q 327 883 327 861 l 458 883 q 545 664 458 857 q 631 405 631 471 l 637 405 q 770 661 644 468 q 896 883 896 853 l 1025 883 m 383 1024 q 280 892 381 1009 q 177 757 179 774 l 100 757 q 172 895 102 779 q 244 1024 242 1010 l 383 1024 z "},"Ϋ":{"ha":711,"x_min":50,"x_max":748,"o":"m 748 883 q 633 705 748 857 q 453 457 517 553 q 380 288 388 361 q 366 0 366 152 l 237 0 q 275 311 275 255 q 231 497 275 394 q 119 730 187 600 q 50 883 50 861 l 182 883 q 268 664 182 857 q 354 405 354 471 l 361 405 q 493 661 368 468 q 619 883 619 853 l 748 883 m 605 1066 q 583 1005 605 1030 q 525 979 560 979 q 468 1039 468 979 q 492 1099 468 1074 q 551 1124 515 1124 q 605 1066 605 1124 m 362 1066 q 339 1005 362 1030 q 281 979 316 979 q 227 1038 227 979 q 250 1099 227 1074 q 308 1124 273 1124 q 362 1066 362 1124 z "},"Ώ":{"ha":1047,"x_min":100,"x_max":997,"o":"m 383 1024 q 280 892 381 1009 q 177 757 179 774 l 100 757 q 172 895 102 779 q 244 1024 242 1010 l 383 1024 m 997 547 q 946 334 997 421 q 816 175 895 246 q 746 98 749 115 l 745 91 q 990 104 876 91 l 972 0 l 624 0 q 699 170 633 91 q 754 232 713 185 q 821 318 795 279 q 883 538 883 412 q 811 740 883 668 q 638 811 739 811 q 424 710 505 811 q 342 469 342 608 q 419 235 342 360 q 497 0 497 110 l 147 0 l 151 104 q 380 90 276 90 l 380 100 q 340 170 380 119 q 258 299 289 236 q 227 454 227 362 q 351 776 227 648 q 663 904 475 904 q 898 806 799 904 q 997 547 997 708 z "},"α":{"ha":796,"x_min":65,"x_max":732,"o":"m 732 118 l 715 33 q 602 -14 672 -14 q 517 16 545 -14 q 478 148 490 46 l 472 148 q 246 -26 373 -26 q 65 241 65 -26 q 139 543 65 420 q 349 666 214 666 q 468 601 430 666 q 522 394 506 536 l 529 394 q 591 546 564 460 q 618 658 618 633 l 728 644 q 669 491 728 618 q 544 262 611 363 q 631 77 568 77 q 732 118 667 77 m 462 273 q 414 515 442 452 q 331 578 387 578 q 215 487 256 578 q 175 253 175 396 q 276 62 175 62 q 462 273 362 62 z "},"β":{"ha":711,"x_min":65,"x_max":673,"o":"m 673 802 q 625 675 673 732 q 511 593 578 618 l 510 586 q 648 334 648 517 q 553 87 648 189 q 311 -16 456 -16 q 124 63 183 -16 q 65 334 65 142 q 172 786 65 597 q 475 975 278 975 q 616 927 560 975 q 673 802 673 879 m 536 340 q 425 545 536 476 q 347 523 385 532 q 189 492 256 498 q 179 339 179 417 q 211 140 179 200 q 335 80 243 80 q 489 161 434 80 q 536 340 536 232 m 566 795 q 534 868 566 842 q 453 895 503 895 q 301 814 372 895 q 199 573 229 734 q 431 633 319 578 q 566 795 566 700 z "},"γ":{"ha":653,"x_min":30,"x_max":615,"o":"m 615 560 q 538 349 615 490 q 402 131 494 268 q 306 -34 311 -7 q 269 -299 306 -193 l 168 -324 q 161 -224 162 -284 q 219 0 162 -126 q 30 608 219 357 l 138 659 q 240 476 185 623 q 301 87 296 329 l 307 87 q 413 277 360 182 q 511 644 511 469 l 602 659 q 615 560 615 625 z "},"δ":{"ha":715,"x_min":58,"x_max":709,"o":"m 709 901 l 675 798 q 376 895 514 895 q 291 836 291 895 q 386 722 291 807 q 562 547 513 610 q 657 309 657 426 q 562 65 657 158 q 310 -28 466 -28 q 129 41 200 -28 q 58 233 58 111 q 199 532 58 410 q 340 618 258 582 l 341 625 q 227 744 258 702 q 195 833 195 786 q 404 983 195 983 q 709 901 567 983 m 543 297 q 407 563 543 446 q 290 500 338 540 q 172 252 172 407 q 338 62 172 62 q 491 129 439 62 q 543 297 543 195 z "},"ε":{"ha":608,"x_min":58,"x_max":574,"o":"m 574 648 l 549 553 q 374 577 469 577 q 213 473 213 577 q 385 383 213 383 q 484 389 425 383 l 461 288 q 376 296 415 296 q 170 173 170 296 q 332 76 170 76 q 547 130 413 76 l 530 34 q 296 -18 439 -18 q 58 151 58 -18 q 98 267 58 220 q 206 327 138 313 l 207 334 q 101 467 101 370 q 181 616 101 567 q 390 665 262 665 q 574 648 495 665 z "},"ζ":{"ha":544,"x_min":58,"x_max":587,"o":"m 587 897 q 380 729 467 819 q 172 263 172 511 q 214 147 172 184 q 333 98 248 116 q 470 42 430 78 q 511 -52 511 7 q 422 -248 511 -152 l 373 -230 q 405 -86 405 -143 q 299 -1 405 -23 q 135 68 191 22 q 58 252 58 132 q 174 600 58 427 q 435 850 281 760 l 436 857 q 200 842 333 842 l 221 941 q 573 970 441 941 l 587 897 z "},"η":{"ha":723,"x_min":65,"x_max":642,"o":"m 642 483 q 622 298 642 425 q 597 142 601 172 q 574 -292 574 -84 l 465 -309 q 489 86 465 -146 q 514 268 496 158 q 532 448 532 378 q 507 546 532 521 q 427 572 481 572 q 285 484 348 572 q 210 283 225 400 q 180 -3 193 149 l 65 3 q 127 403 127 264 q 77 612 127 524 l 173 660 q 221 501 218 586 l 227 501 q 462 665 318 665 q 642 483 642 665 z "},"θ":{"ha":750,"x_min":38,"x_max":692,"o":"m 692 570 q 605 172 692 332 q 299 -24 500 -24 q 82 183 94 -24 q 38 361 76 281 l 113 389 q 160 328 135 374 q 191 204 186 281 q 318 61 201 61 q 503 193 435 61 q 572 454 556 294 q 356 427 477 427 q 165 492 235 427 q 95 686 95 557 q 179 893 95 817 q 397 968 262 968 q 617 850 542 968 q 692 570 692 732 m 576 528 l 576 549 q 517 800 576 716 q 378 883 457 883 q 251 832 296 883 q 207 696 207 782 q 254 562 207 612 q 375 512 300 512 q 576 528 493 512 z "},"ι":{"ha":373,"x_min":81,"x_max":343,"o":"m 343 107 l 326 26 q 217 -14 279 -14 q 113 18 144 -14 q 81 151 81 50 q 138 646 81 294 l 241 660 q 182 178 182 315 q 198 100 182 121 q 254 80 214 80 q 343 107 292 80 z "},"κ":{"ha":774,"x_min":45,"x_max":738,"o":"m 738 118 l 721 27 q 591 -14 667 -14 q 436 164 436 -14 q 498 380 436 271 l 492 387 q 306 186 485 374 q 135 -16 138 9 l 45 12 q 92 81 45 20 q 185 240 147 153 q 222 450 222 328 q 202 541 222 510 q 153 571 182 571 q 77 544 116 571 l 94 635 q 191 665 127 665 q 283 620 245 665 q 321 481 321 575 q 257 248 321 372 l 263 241 q 445 447 269 252 q 613 659 610 630 l 709 631 q 662 556 708 616 q 571 405 607 485 q 536 213 536 325 q 564 115 536 151 q 635 80 592 80 q 738 118 672 80 z "},"λ":{"ha":627,"x_min":-9,"x_max":610,"o":"m 610 35 l 494 -22 q 437 58 463 10 q 366 485 376 174 l 359 485 q 239 256 359 449 q 111 -7 119 63 l -9 7 q 168 313 -4 59 q 361 610 339 568 q 328 806 361 758 q 222 853 294 853 q 144 831 175 853 l 165 930 q 280 960 218 960 q 408 898 371 960 q 444 661 444 836 q 522 150 444 301 q 610 35 560 76 z "},"μ":{"ha":769,"x_min":37,"x_max":735,"o":"m 735 107 l 719 26 q 595 -14 669 -14 q 481 125 481 -14 l 476 125 q 277 -20 400 -20 q 146 121 170 -20 l 140 121 q 127 -39 127 45 q 175 -280 127 -195 l 67 -331 q 37 -200 37 -273 q 60 5 37 -129 q 88 179 84 140 q 114 649 114 425 l 239 659 q 201 280 201 450 q 226 136 201 197 q 304 74 251 74 q 432 159 377 74 q 502 364 488 244 q 523 643 515 484 l 651 660 q 613 412 635 587 q 591 184 591 236 q 640 80 591 80 q 735 107 680 80 z "},"ν":{"ha":625,"x_min":30,"x_max":587,"o":"m 587 574 q 527 333 587 446 q 381 117 467 221 q 292 -3 295 13 l 218 3 q 162 362 218 191 q 30 621 105 534 l 137 665 q 244 452 194 614 q 295 115 295 290 l 300 115 q 479 644 479 350 l 568 659 q 587 574 587 622 z "},"ξ":{"ha":572,"x_min":58,"x_max":589,"o":"m 589 890 q 263 653 263 801 q 295 588 263 602 q 396 574 327 574 q 505 578 442 574 l 484 473 q 387 481 433 481 q 231 413 294 481 q 168 251 168 345 q 207 152 168 184 q 334 98 241 122 q 473 39 433 73 q 513 -52 513 5 q 423 -248 513 -153 l 374 -230 q 405 -100 405 -155 q 300 -1 405 -26 q 136 66 188 27 q 58 233 58 124 q 116 402 58 323 q 269 508 174 481 l 270 515 q 187 562 214 537 q 160 641 160 587 q 225 772 160 713 q 372 857 290 831 l 372 863 q 155 848 269 848 l 176 947 q 575 977 439 947 l 589 890 z "},"ο":{"ha":736,"x_min":58,"x_max":677,"o":"m 677 378 q 579 94 677 215 q 319 -26 480 -26 q 135 59 212 -26 q 58 281 58 145 q 157 558 58 442 q 418 674 255 674 q 602 594 526 674 q 677 378 677 514 m 562 359 q 519 521 562 454 q 395 589 476 589 q 233 494 294 589 q 173 289 173 399 q 217 126 173 194 q 342 59 260 59 q 502 154 442 59 q 562 359 562 248 z "},"π":{"ha":827,"x_min":52,"x_max":800,"o":"m 800 652 l 786 541 q 599 547 696 547 q 565 229 565 357 q 654 80 565 80 q 743 107 692 80 l 726 26 q 617 -14 681 -14 q 499 24 541 -14 q 458 178 458 62 q 524 541 458 355 l 524 547 l 331 547 q 178 -7 262 132 l 58 7 q 130 133 96 60 q 249 547 209 307 l 181 547 q 52 518 124 547 l 68 581 q 254 644 130 644 q 800 652 606 644 z "},"ρ":{"ha":695,"x_min":17,"x_max":630,"o":"m 630 375 q 542 102 630 223 q 309 -20 454 -20 q 144 110 184 -20 l 137 110 q 132 -52 132 45 q 150 -294 132 -187 l 45 -323 q 17 -167 17 -286 q 113 518 29 370 q 380 667 197 667 q 564 583 498 667 q 630 375 630 499 m 516 360 q 477 517 516 456 q 358 579 438 579 q 154 276 176 579 q 325 68 196 68 q 466 161 415 68 q 516 360 516 254 z "},"σ":{"ha":726,"x_min":58,"x_max":711,"o":"m 711 664 l 692 585 q 554 543 625 543 l 553 530 q 627 311 627 462 q 533 76 627 178 q 299 -26 439 -26 q 123 52 189 -26 q 58 267 58 131 q 151 537 58 427 q 402 648 243 648 q 711 664 632 648 m 521 342 q 458 550 521 471 q 399 559 431 559 q 230 479 288 559 q 172 276 172 400 q 323 63 172 63 q 470 148 419 63 q 521 342 521 232 z "},"ς":{"ha":553,"x_min":58,"x_max":533,"o":"m 533 650 l 505 547 q 379 570 448 570 q 218 488 272 570 q 165 292 165 406 q 286 112 165 164 q 424 32 386 68 q 462 -60 462 -5 q 436 -169 462 -113 q 366 -248 410 -225 l 318 -230 q 355 -99 355 -159 q 333 -42 355 -65 q 251 6 311 -20 q 58 281 58 90 q 150 555 58 450 q 407 660 241 660 q 533 650 492 660 z "},"τ":{"ha":664,"x_min":52,"x_max":637,"o":"m 637 652 l 621 543 q 363 547 562 547 q 330 229 330 370 q 418 80 330 80 q 529 107 471 80 l 511 26 q 364 -14 457 -14 q 257 21 292 -14 q 222 165 222 56 q 287 541 222 357 l 288 547 l 174 547 q 52 518 117 547 l 67 581 q 227 644 139 644 q 637 652 484 644 z "},"υ":{"ha":687,"x_min":58,"x_max":629,"o":"m 629 439 q 535 121 629 264 q 287 -22 442 -22 q 130 27 184 -22 q 75 200 75 76 q 89 324 75 241 q 103 448 103 407 q 58 632 103 565 l 175 660 q 216 498 216 592 q 202 371 216 455 q 188 244 188 287 q 215 102 188 140 q 300 65 243 65 q 460 177 406 65 q 514 441 514 290 q 492 647 514 538 l 562 660 q 629 439 629 569 z "},"φ":{"ha":1004,"x_min":58,"x_max":946,"o":"m 946 442 q 820 133 946 263 q 511 -17 693 3 q 503 -113 510 -38 q 456 -332 490 -232 l 366 -328 q 395 -151 376 -285 q 406 -17 404 -71 q 154 68 250 -7 q 58 285 58 143 q 141 542 58 441 q 375 678 223 643 l 393 606 q 228 498 284 580 q 172 300 172 416 q 410 71 172 87 q 428 339 414 150 q 705 674 463 674 q 885 610 825 674 q 946 442 946 545 m 833 428 q 798 544 833 501 q 696 586 762 586 q 582 529 620 586 q 530 335 545 471 q 515 71 517 212 q 747 185 660 87 q 833 428 833 282 z "},"χ":{"ha":684,"x_min":-37,"x_max":654,"o":"m 654 644 q 372 174 642 532 q 484 -149 446 -76 q 568 -221 523 -221 q 633 -199 598 -221 l 612 -298 q 509 -328 567 -328 q 403 -234 450 -328 q 304 105 357 -140 l 298 105 l 185 -79 q 77 -323 85 -254 l -37 -310 q 284 212 -24 -193 q 206 453 233 385 q 156 539 179 522 q 85 556 132 556 q 47 543 68 556 l 67 640 q 144 663 94 663 q 259 591 217 663 q 349 281 300 520 l 356 281 l 450 437 q 539 659 531 583 l 654 644 z "},"ψ":{"ha":922,"x_min":65,"x_max":864,"o":"m 864 430 q 757 134 864 252 q 466 -5 650 16 q 440 -296 448 -177 l 321 -323 q 359 -7 330 -262 q 65 273 65 11 q 79 390 65 313 q 93 510 93 468 q 71 628 93 585 l 159 657 q 193 492 193 597 q 181 398 193 460 q 170 305 170 336 q 215 148 170 201 q 370 83 260 94 l 401 360 q 469 957 439 719 l 552 962 q 502 360 541 798 q 474 84 492 264 q 757 481 757 121 q 736 643 757 561 l 807 661 q 864 430 864 570 z "},"ω":{"ha":995,"x_min":58,"x_max":937,"o":"m 937 330 q 859 79 937 180 q 635 -23 781 -23 q 471 119 511 -23 l 464 119 q 387 21 440 66 q 264 -23 334 -23 q 58 244 58 -23 q 119 480 58 367 q 281 665 179 591 l 328 616 q 174 255 174 470 q 199 115 174 163 q 296 66 224 66 q 448 200 389 66 l 449 214 q 444 311 444 267 q 456 448 444 377 q 494 568 470 532 l 554 574 q 566 437 566 507 q 535 214 566 274 l 534 200 q 649 66 565 66 q 779 149 732 66 q 826 340 826 233 q 801 482 826 414 q 731 603 776 551 l 786 659 q 937 330 937 524 z "},"ά":{"ha":796,"x_min":65,"x_max":732,"o":"m 732 118 l 715 33 q 602 -14 672 -14 q 517 16 545 -14 q 478 148 490 46 l 472 148 q 246 -26 373 -26 q 65 241 65 -26 q 139 543 65 420 q 349 666 214 666 q 468 601 430 666 q 522 394 506 536 l 529 394 q 591 546 564 460 q 618 658 618 633 l 728 644 q 669 491 728 618 q 544 262 611 363 q 631 77 568 77 q 732 118 667 77 m 462 273 q 414 515 442 452 q 331 578 387 578 q 215 487 256 578 q 175 253 175 396 q 276 62 175 62 q 462 273 362 62 m 616 1024 q 513 892 614 1009 q 410 757 412 774 l 333 757 q 406 895 336 779 q 477 1024 475 1010 l 616 1024 z "},"έ":{"ha":608,"x_min":58,"x_max":623,"o":"m 574 648 l 549 553 q 374 577 469 577 q 213 473 213 577 q 385 383 213 383 q 484 389 425 383 l 461 288 q 376 296 415 296 q 170 173 170 296 q 332 76 170 76 q 547 130 413 76 l 530 34 q 296 -18 439 -18 q 58 151 58 -18 q 98 267 58 220 q 206 327 138 313 l 207 334 q 101 467 101 370 q 181 616 101 567 q 390 665 262 665 q 574 648 495 665 m 623 1024 q 520 892 621 1009 q 417 757 419 774 l 340 757 q 412 895 342 779 q 484 1024 482 1010 l 623 1024 z "},"ή":{"ha":723,"x_min":65,"x_max":681,"o":"m 642 483 q 622 298 642 425 q 597 142 601 172 q 574 -292 574 -84 l 465 -309 q 489 86 465 -146 q 514 268 496 158 q 532 448 532 378 q 507 546 532 521 q 427 572 481 572 q 285 484 348 572 q 210 283 225 400 q 180 -3 193 149 l 65 3 q 127 403 127 264 q 77 612 127 524 l 173 660 q 221 501 218 586 l 227 501 q 462 665 318 665 q 642 483 642 665 m 681 1024 q 578 892 679 1009 q 475 757 477 774 l 397 757 q 470 895 400 779 q 542 1024 540 1010 l 681 1024 z "},"ί":{"ha":373,"x_min":81,"x_max":433,"o":"m 343 107 l 326 26 q 217 -14 279 -14 q 113 18 144 -14 q 81 151 81 50 q 138 646 81 294 l 241 660 q 182 178 182 315 q 198 100 182 121 q 254 80 214 80 q 343 107 292 80 m 433 1024 q 330 892 431 1009 q 227 757 229 774 l 150 757 q 222 895 153 779 q 294 1024 292 1010 l 433 1024 z "},"ϊ":{"ha":373,"x_min":31,"x_max":409,"o":"m 343 107 l 326 26 q 217 -14 279 -14 q 113 18 144 -14 q 81 151 81 50 q 138 646 81 294 l 241 660 q 182 178 182 315 q 198 100 182 121 q 254 80 214 80 q 343 107 292 80 m 409 857 q 387 796 409 821 q 329 770 364 770 q 272 830 272 770 q 296 890 272 865 q 355 916 319 916 q 409 857 409 916 m 166 857 q 143 796 166 821 q 85 770 120 770 q 31 829 31 770 q 54 890 31 865 q 112 916 77 916 q 166 857 166 916 z "},"ΐ":{"ha":373,"x_min":14,"x_max":446,"o":"m 343 107 l 326 26 q 217 -14 279 -14 q 113 18 144 -14 q 81 151 81 50 q 138 646 81 294 l 241 660 q 182 178 182 315 q 198 100 182 121 q 254 80 214 80 q 343 107 292 80 m 446 1118 q 339 985 444 1103 q 233 850 235 868 l 169 850 q 238 988 172 873 q 307 1118 304 1103 l 446 1118 m 419 857 q 397 796 419 821 q 339 770 374 770 q 282 830 282 770 q 306 890 282 865 q 365 916 330 916 q 419 857 419 916 m 149 857 q 126 796 149 821 q 68 770 103 770 q 14 829 14 770 q 37 890 14 865 q 95 916 60 916 q 149 857 149 916 z "},"ό":{"ha":736,"x_min":58,"x_max":677,"o":"m 677 378 q 579 94 677 215 q 319 -26 480 -26 q 135 59 212 -26 q 58 281 58 145 q 157 558 58 442 q 418 674 255 674 q 602 594 526 674 q 677 378 677 514 m 562 359 q 519 521 562 454 q 395 589 476 589 q 233 494 294 589 q 173 289 173 399 q 217 126 173 194 q 342 59 260 59 q 502 154 442 59 q 562 359 562 248 m 661 1024 q 558 892 659 1009 q 455 757 457 774 l 378 757 q 450 895 380 779 q 522 1024 520 1010 l 661 1024 z "},"ύ":{"ha":687,"x_min":58,"x_max":629,"o":"m 629 439 q 535 121 629 264 q 287 -22 442 -22 q 130 27 184 -22 q 75 200 75 76 q 89 324 75 241 q 103 448 103 407 q 58 632 103 565 l 175 660 q 216 498 216 592 q 202 371 216 455 q 188 244 188 287 q 215 102 188 140 q 300 65 243 65 q 460 177 406 65 q 514 441 514 290 q 492 647 514 538 l 562 660 q 629 439 629 569 m 602 1024 q 499 892 600 1009 q 396 757 398 774 l 319 757 q 391 895 321 779 q 463 1024 461 1010 l 602 1024 z "},"ϋ":{"ha":687,"x_min":58,"x_max":629,"o":"m 629 439 q 535 121 629 264 q 287 -22 442 -22 q 130 27 184 -22 q 75 200 75 76 q 89 324 75 241 q 103 448 103 407 q 58 632 103 565 l 175 660 q 216 498 216 592 q 202 371 216 455 q 188 244 188 287 q 215 102 188 140 q 300 65 243 65 q 460 177 406 65 q 514 441 514 290 q 492 647 514 538 l 562 660 q 629 439 629 569 m 564 857 q 542 796 564 821 q 484 770 519 770 q 427 830 427 770 q 451 890 427 865 q 510 916 475 916 q 564 857 564 916 m 321 857 q 298 796 321 821 q 240 770 275 770 q 186 829 186 770 q 209 890 186 865 q 267 916 232 916 q 321 857 321 916 z "},"ΰ":{"ha":687,"x_min":58,"x_max":629,"o":"m 629 439 q 535 121 629 264 q 287 -22 442 -22 q 130 27 184 -22 q 75 200 75 76 q 89 324 75 241 q 103 448 103 407 q 58 632 103 565 l 175 660 q 216 498 216 592 q 202 371 216 455 q 188 244 188 287 q 215 102 188 140 q 300 65 243 65 q 460 177 406 65 q 514 441 514 290 q 492 647 514 538 l 562 660 q 629 439 629 569 m 602 1118 q 495 985 600 1103 q 389 850 391 868 l 325 850 q 394 988 328 873 q 463 1118 460 1103 l 602 1118 m 575 857 q 553 796 575 821 q 495 770 530 770 q 438 830 438 770 q 462 890 438 865 q 521 916 486 916 q 575 857 575 916 m 305 857 q 282 796 305 821 q 224 770 259 770 q 170 829 170 770 q 193 890 170 865 q 251 916 216 916 q 305 857 305 916 z "},"ώ":{"ha":995,"x_min":58,"x_max":937,"o":"m 937 330 q 859 79 937 180 q 635 -23 781 -23 q 471 119 511 -23 l 464 119 q 387 21 440 66 q 264 -23 334 -23 q 58 244 58 -23 q 119 480 58 367 q 281 665 179 591 l 328 616 q 174 255 174 470 q 199 115 174 163 q 296 66 224 66 q 448 200 389 66 l 449 214 q 444 311 444 267 q 456 448 444 377 q 494 568 470 532 l 554 574 q 566 437 566 507 q 535 214 566 274 l 534 200 q 649 66 565 66 q 779 149 732 66 q 826 340 826 233 q 801 482 826 414 q 731 603 776 551 l 786 659 q 937 330 937 524 m 773 1024 q 670 892 771 1009 q 567 757 569 774 l 490 757 q 562 895 492 779 q 634 1024 632 1010 l 773 1024 z "},"΄":{"ha":381,"x_min":100,"x_max":383,"o":"m 383 1024 q 280 892 381 1009 q 177 757 179 774 l 100 757 q 172 895 102 779 q 244 1024 242 1010 l 383 1024 z "},"΅":{"ha":567,"x_min":98,"x_max":530,"o":"m 530 1118 q 423 985 528 1103 q 317 850 319 868 l 253 850 q 322 988 256 873 q 391 1118 389 1103 l 530 1118 m 503 857 q 481 796 503 821 q 423 770 458 770 q 366 830 366 770 q 390 890 366 865 q 449 916 414 916 q 503 857 503 916 m 233 857 q 210 796 233 821 q 152 770 187 770 q 98 829 98 770 q 121 890 98 865 q 179 916 144 916 q 233 857 233 916 z "},"̈́":{"ha":0,"x_min":-368,"x_max":64,"o":"m 64 1118 q -43 985 62 1103 q -149 850 -147 868 l -213 850 q -144 988 -210 873 q -75 1118 -77 1103 l 64 1118 m 37 857 q 15 796 37 821 q -43 770 -7 770 q -100 830 -100 770 q -76 890 -100 865 q -17 916 -52 916 q 37 857 37 916 m -233 857 q -256 796 -233 821 q -314 770 -279 770 q -368 829 -368 770 q -345 890 -368 865 q -287 916 -322 916 q -233 857 -233 916 z "},"·":{"ha":339,"x_min":108,"x_max":284,"o":"m 284 589 q 254 509 284 543 q 178 475 224 475 q 108 553 108 475 q 138 631 108 599 q 214 663 168 663 q 284 589 284 663 z "},";":{"ha":332,"x_min":-32,"x_max":262,"o":"m 219 97 q -1 -250 219 -67 l -32 -210 q 55 -87 31 -143 q 76 9 70 -52 q 43 79 43 29 q 74 155 43 123 q 151 186 106 186 q 203 157 184 186 q 219 97 219 133 m 122 -1 m 262 574 q 232 495 262 528 q 155 461 201 461 q 85 538 85 461 q 116 617 85 585 q 192 649 146 649 q 262 574 262 649 z "},"ʹ":{"ha":252,"x_min":0,"x_max":252,"o":"m 252 956 q 164 844 250 941 q 77 736 78 747 l 0 736 q 56 845 1 747 q 113 956 111 942 l 252 956 z "},"͵":{"ha":252,"x_min":0,"x_max":252,"o":"m 252 -68 q 196 -176 251 -79 q 139 -288 140 -273 l 0 -288 q 87 -176 1 -273 q 174 -68 174 -79 l 252 -68 z "},"А":{"ha":836,"x_min":-27,"x_max":772,"o":"m 772 0 l 637 0 q 585 286 637 66 l 213 286 q 161 169 183 221 q 103 0 108 43 l -27 0 q 186 434 -24 20 q 398 883 394 845 l 547 883 q 660 440 547 822 q 772 0 772 58 m 564 374 q 457 798 457 766 l 451 798 q 249 374 449 777 l 564 374 z "},"Б":{"ha":736,"x_min":60,"x_max":691,"o":"m 691 883 l 677 782 q 247 790 445 790 q 231 592 234 629 q 224 513 227 549 q 330 515 280 515 q 677 292 677 515 q 564 70 677 144 q 256 -4 451 -4 q 60 0 205 -4 q 118 464 75 96 q 145 883 143 703 l 691 883 m 566 279 q 302 425 566 425 q 212 420 250 425 q 184 97 193 239 q 276 91 208 91 q 494 135 422 91 q 566 279 566 179 z "},"В":{"ha":758,"x_min":60,"x_max":691,"o":"m 691 286 q 572 66 691 137 q 269 -4 453 -4 q 60 0 219 -4 q 117 464 74 96 q 145 883 142 703 l 229 883 q 327 885 252 883 q 433 887 403 887 q 614 839 545 887 q 682 703 682 791 q 642 572 682 631 q 532 490 600 510 l 532 484 q 644 421 597 471 q 691 286 691 370 m 580 279 q 315 425 580 425 q 211 420 264 425 q 184 97 192 239 q 303 91 221 91 q 500 130 420 91 q 580 279 580 169 m 570 677 q 405 799 570 799 q 245 789 315 799 q 220 513 245 773 q 302 511 264 511 q 480 536 420 511 q 570 677 570 575 z "},"Г":{"ha":626,"x_min":60,"x_max":646,"o":"m 646 883 l 632 777 q 247 783 404 783 q 216 419 240 684 q 186 0 186 142 l 60 0 q 111 419 71 73 q 146 883 142 715 l 646 883 z "},"Д":{"ha":861,"x_min":-41,"x_max":817,"o":"m 817 92 q 780 -79 812 52 q 741 -281 748 -211 l 664 -281 q 692 3 673 -195 q 388 10 589 10 q 98 3 216 10 q 33 -281 70 -93 l -41 -281 q -21 -80 -33 -212 q -5 92 -9 51 l 56 92 q 442 883 203 445 l 770 883 q 720 469 756 783 q 698 92 699 270 l 817 92 m 647 798 l 492 798 q 160 92 248 341 l 583 92 q 612 446 589 179 q 647 798 633 648 z "},"Е":{"ha":669,"x_min":60,"x_max":639,"o":"m 639 883 l 623 782 q 250 790 448 790 q 231 570 248 754 l 224 506 q 530 514 395 506 l 518 413 q 214 419 377 419 q 184 92 196 245 q 595 102 399 92 l 578 0 l 60 0 q 117 464 74 96 q 146 883 142 703 l 639 883 z "},"Ж":{"ha":1137,"x_min":14,"x_max":1103,"o":"m 1103 883 q 1072 809 1094 864 q 957 578 1014 654 q 823 465 900 503 l 822 458 q 938 354 897 429 q 1023 81 979 279 q 1042 0 1028 56 l 911 0 q 899 58 908 12 q 816 334 871 263 q 637 405 761 405 q 622 403 628 405 q 593 0 597 167 l 469 0 q 518 403 481 83 q 497 405 506 405 q 306 340 370 405 q 165 58 241 275 q 140 0 154 25 l 14 0 l 50 81 q 194 363 143 299 q 330 458 245 427 l 330 465 q 219 574 258 503 q 154 809 180 644 q 138 883 149 843 l 255 883 q 269 830 260 875 q 344 566 282 640 q 516 492 406 492 q 528 494 523 492 q 555 883 549 694 l 679 883 q 632 494 666 788 q 646 492 639 492 q 831 567 754 492 q 961 830 908 643 q 985 883 970 864 l 1103 883 z "},"З":{"ha":730,"x_min":35,"x_max":663,"o":"m 663 704 q 618 572 663 631 q 500 490 572 514 l 500 484 q 616 412 574 468 q 657 279 657 356 q 555 59 657 140 q 298 -22 453 -22 q 35 21 141 -22 l 62 129 q 309 74 180 74 q 481 122 416 74 q 546 262 546 170 q 294 413 546 413 q 192 410 239 413 l 217 511 q 320 508 254 508 q 484 550 416 508 q 551 680 551 592 q 378 799 551 799 q 148 758 253 799 l 176 863 q 427 895 255 895 q 603 843 542 895 q 663 704 663 791 z "},"И":{"ha":863,"x_min":60,"x_max":803,"o":"m 803 883 q 745 419 787 782 q 717 0 720 180 l 588 0 q 636 377 598 54 q 671 670 648 492 l 665 670 q 387 323 635 602 q 150 0 157 64 l 60 0 q 115 419 74 81 q 145 883 140 663 l 273 883 q 221 472 260 800 q 188 213 209 355 l 195 213 q 478 558 229 281 q 712 883 705 810 l 803 883 z "},"Й":{"ha":863,"x_min":60,"x_max":803,"o":"m 803 883 q 745 419 787 782 q 717 0 720 180 l 588 0 q 636 377 598 54 q 671 670 648 492 l 665 670 q 387 323 635 602 q 150 0 157 64 l 60 0 q 115 419 74 81 q 145 883 140 663 l 273 883 q 221 472 260 800 q 188 213 209 355 l 195 213 q 478 558 229 281 q 712 883 705 810 l 803 883 m 780 1137 q 507 937 667 937 q 293 1133 317 937 l 399 1145 q 529 1008 424 1008 q 722 1172 628 1008 l 780 1137 z "},"К":{"ha":776,"x_min":60,"x_max":742,"o":"m 742 883 q 711 809 733 864 q 596 578 653 654 q 462 465 539 503 l 461 458 q 577 355 536 429 q 662 81 618 282 q 681 0 667 56 l 549 0 q 537 58 546 12 q 455 334 509 263 q 276 405 400 405 q 217 403 238 405 q 188 0 192 167 l 60 0 q 118 464 75 96 q 146 883 143 703 l 274 883 q 227 494 260 788 q 285 492 271 492 q 471 567 393 492 q 601 830 548 643 q 625 883 610 864 l 742 883 z "},"Л":{"ha":817,"x_min":-7,"x_max":757,"o":"m 757 883 q 712 469 732 667 q 677 0 686 221 l 552 0 q 606 446 578 190 q 640 798 627 648 l 481 798 q 455 714 473 766 q 411 601 437 663 q 353 470 385 539 q 287 334 322 401 q 214 206 252 267 q 138 97 176 144 q 64 20 101 50 q -7 -12 27 -9 l 0 111 q 42 140 18 115 q 96 206 67 165 q 158 300 125 247 q 221 413 190 353 q 283 537 253 473 q 340 663 314 601 q 386 781 366 724 q 417 883 406 838 l 757 883 z "},"М":{"ha":1081,"x_min":30,"x_max":981,"o":"m 971 0 l 843 0 q 877 787 843 357 l 869 787 q 824 667 863 766 q 660 311 786 568 q 528 0 534 54 l 438 0 q 369 362 438 69 q 293 700 300 656 q 281 787 286 744 l 274 787 q 202 355 261 683 q 143 0 143 27 l 30 0 q 114 399 30 24 q 210 883 198 774 l 372 883 q 440 509 372 777 q 509 149 509 241 l 515 149 q 665 520 523 221 q 814 883 808 819 l 981 883 q 959 387 959 690 q 971 0 959 149 z "},"Н":{"ha":831,"x_min":60,"x_max":771,"o":"m 771 883 q 717 464 757 798 q 684 0 692 227 l 555 0 q 606 420 570 111 l 220 420 q 189 0 205 270 l 60 0 q 118 464 77 115 q 146 883 142 690 l 275 883 q 227 506 262 793 l 617 506 q 641 883 633 653 l 771 883 z "},"О":{"ha":894,"x_min":47,"x_max":846,"o":"m 846 505 q 716 134 846 294 q 389 -26 587 -26 q 149 82 251 -26 q 47 370 47 191 q 178 743 47 585 q 505 901 309 901 q 744 792 642 901 q 846 505 846 684 m 730 498 q 655 725 730 644 q 477 806 580 806 q 250 676 335 806 q 165 376 165 545 q 240 150 165 232 q 418 68 315 68 q 644 200 557 68 q 730 498 730 332 z "},"П":{"ha":793,"x_min":60,"x_max":733,"o":"m 733 883 q 682 469 719 783 q 648 0 661 264 l 523 0 q 576 446 535 85 q 616 798 597 648 l 244 798 q 219 457 243 734 q 184 0 190 179 l 60 0 q 116 449 76 115 q 138 883 138 653 l 733 883 z "},"Р":{"ha":727,"x_min":60,"x_max":697,"o":"m 697 673 q 574 433 697 511 q 265 356 450 356 q 211 357 228 356 q 191 0 194 198 l 60 0 q 118 464 73 85 q 146 883 142 697 l 244 883 q 330 885 259 883 q 449 887 400 887 q 630 826 562 887 q 697 673 697 765 m 585 647 q 376 799 585 799 q 253 789 321 799 l 219 444 q 274 443 241 443 q 585 647 585 443 z "},"С":{"ha":685,"x_min":47,"x_max":680,"o":"m 680 877 l 650 769 q 522 793 580 793 q 262 678 359 793 q 165 398 165 562 q 245 171 165 264 q 478 79 326 79 q 644 108 541 79 l 625 7 q 449 -18 511 -18 q 148 99 248 -18 q 47 385 47 217 q 194 748 47 601 q 560 895 340 895 q 680 877 618 895 z "},"Т":{"ha":701,"x_min":66,"x_max":720,"o":"m 720 883 l 707 787 q 445 794 580 794 q 408 464 431 685 q 373 0 385 243 l 248 0 q 305 464 263 106 q 336 794 326 661 q 66 786 240 794 l 79 883 l 720 883 z "},"У":{"ha":729,"x_min":41,"x_max":753,"o":"m 753 883 q 631 610 749 844 q 424 232 514 376 q 257 35 333 89 q 41 -20 180 -20 l 45 76 q 211 118 154 83 q 326 248 267 153 q 200 589 326 309 q 76 883 75 870 l 210 883 q 302 630 208 863 q 397 368 397 397 l 404 368 q 548 652 468 489 q 635 883 628 815 l 753 883 z "},"Ф":{"ha":918,"x_min":47,"x_max":870,"o":"m 870 519 q 763 256 870 352 q 477 142 655 159 q 469 0 470 58 l 353 0 l 372 142 q 125 232 203 153 q 47 429 47 311 q 155 694 47 597 q 441 806 262 791 q 446 918 446 876 l 562 918 q 547 806 559 899 q 792 716 715 795 q 870 519 870 637 m 764 512 q 535 726 764 701 q 507 489 528 669 q 483 223 494 364 q 764 512 764 248 m 435 726 q 157 437 157 701 q 382 223 157 248 q 410 460 389 279 q 435 726 422 585 z "},"Х":{"ha":783,"x_min":-35,"x_max":768,"o":"m 768 883 q 635 703 768 864 q 456 498 501 541 l 456 492 q 607 240 500 441 q 714 0 714 39 l 574 0 q 490 199 574 34 q 370 416 406 365 l 362 416 q 215 195 315 358 q 115 0 115 31 l -35 0 q 127 233 -35 20 q 325 478 289 446 l 325 485 q 200 694 295 525 q 106 883 106 863 l 245 883 q 314 723 245 857 q 410 551 383 589 l 416 551 q 544 729 454 594 q 634 883 634 864 l 768 883 z "},"Ц":{"ha":805,"x_min":60,"x_max":760,"o":"m 760 92 q 727 -80 756 51 q 691 -281 699 -212 l 611 -281 q 639 0 620 -195 l 60 0 q 111 413 74 100 q 146 883 132 618 l 271 883 q 218 437 259 798 l 182 92 l 526 92 l 562 426 q 594 847 586 658 l 595 883 l 721 883 q 664 413 704 756 q 642 92 646 237 l 760 92 z "},"Ч":{"ha":764,"x_min":75,"x_max":704,"o":"m 704 883 q 650 464 690 800 q 620 50 628 251 l 618 0 l 488 0 q 539 395 502 81 q 349 373 441 373 q 155 405 208 373 q 75 607 75 453 q 80 695 75 650 q 94 883 88 774 l 214 883 q 190 738 205 844 q 184 642 184 680 q 236 490 184 527 q 391 463 275 463 q 549 484 483 463 q 574 883 573 713 l 704 883 z "},"Ш":{"ha":1147,"x_min":60,"x_max":1088,"o":"m 1088 883 q 1031 413 1071 756 q 1002 0 1011 223 l 60 0 q 111 413 74 100 q 145 883 132 618 l 271 883 q 217 437 258 798 l 179 92 l 482 92 q 519 426 490 153 q 554 883 549 704 l 680 883 q 625 437 667 798 q 593 92 604 235 l 895 92 q 928 426 901 153 q 963 883 958 704 l 1088 883 z "},"Щ":{"ha":1183,"x_min":68,"x_max":1138,"o":"m 1138 92 q 1105 -80 1134 52 q 1068 -281 1076 -212 l 989 -281 q 1016 0 998 -195 l 68 0 q 119 413 83 100 q 155 883 141 618 l 280 883 q 227 437 268 798 l 191 92 l 494 92 l 529 426 q 563 883 553 658 l 688 883 q 635 437 676 798 l 599 92 l 902 92 l 937 426 q 972 883 966 704 l 1097 883 q 1040 413 1080 756 q 1018 92 1028 302 l 1138 92 z "},"Ъ":{"ha":888,"x_min":66,"x_max":844,"o":"m 844 311 q 724 76 844 157 q 439 -4 605 -4 q 249 0 367 -4 q 307 464 264 96 q 350 794 328 667 q 66 786 256 794 l 79 883 l 464 883 q 419 541 454 824 q 502 544 460 544 q 844 311 844 544 m 732 300 q 475 452 732 452 q 409 448 445 452 q 376 97 390 267 q 439 91 411 91 q 732 300 732 91 z "},"Ы":{"ha":1013,"x_min":60,"x_max":954,"o":"m 653 304 q 537 73 653 151 q 236 -4 420 -4 q 60 0 186 -4 q 118 464 75 96 q 146 883 143 703 l 275 883 q 230 541 264 824 q 313 544 273 544 q 538 497 451 544 q 653 304 653 436 m 543 294 q 286 452 543 452 q 220 448 253 452 q 187 97 201 267 q 250 91 219 91 q 543 294 543 91 m 954 883 q 900 464 940 800 q 868 0 876 239 l 739 0 q 797 464 754 100 q 825 883 822 704 l 954 883 z "},"Ь":{"ha":724,"x_min":60,"x_max":679,"o":"m 679 304 q 564 75 679 154 q 261 -4 449 -4 q 60 0 211 -4 q 117 464 74 96 q 146 883 142 703 l 275 883 q 230 541 264 824 q 351 544 298 544 q 584 486 489 544 q 679 304 679 427 m 568 294 q 311 452 568 452 q 220 448 259 452 q 190 97 201 267 q 275 91 229 91 q 568 294 568 91 z "},"Э":{"ha":750,"x_min":15,"x_max":703,"o":"m 703 529 q 576 133 703 284 q 214 -18 450 -18 q 15 0 113 -18 l 41 104 q 240 77 145 77 q 477 170 389 77 q 584 414 564 262 q 212 412 418 414 l 223 514 q 594 509 427 509 q 317 802 594 802 q 103 766 231 802 l 123 870 q 345 895 237 895 q 703 529 703 895 z "},"Ю":{"ha":1197,"x_min":60,"x_max":1149,"o":"m 1149 512 q 1028 135 1149 297 q 705 -26 906 -26 q 463 83 549 -26 q 377 360 377 192 q 380 420 377 380 l 218 420 q 191 36 197 219 l 189 0 l 60 0 q 118 464 75 100 q 146 883 143 704 l 275 883 q 227 506 263 808 l 395 506 q 557 798 438 694 q 821 901 677 901 q 1054 797 958 901 q 1149 512 1149 692 m 1033 508 q 964 732 1033 655 q 793 808 895 808 q 573 672 656 808 q 490 372 490 536 q 560 148 490 226 q 733 70 629 70 q 952 209 871 70 q 1033 508 1033 349 z "},"Я":{"ha":787,"x_min":0,"x_max":728,"o":"m 728 883 q 674 464 714 802 q 642 0 648 210 l 515 0 q 563 377 527 71 q 466 378 521 378 q 284 315 348 378 q 149 45 221 252 q 129 0 137 9 l 0 0 q 32 68 10 20 q 163 325 117 264 q 288 408 209 385 l 288 415 q 121 629 121 460 q 463 887 121 887 q 559 885 509 887 q 637 883 610 883 l 728 883 m 598 789 q 444 798 501 798 q 284 760 335 798 q 233 629 233 722 q 486 467 233 467 q 572 468 541 467 q 598 789 589 621 z "},"Ѓ":{"ha":626,"x_min":60,"x_max":646,"o":"m 646 883 l 632 777 q 247 783 404 783 q 216 419 240 684 q 186 0 186 142 l 60 0 q 111 419 71 73 q 146 883 142 715 l 646 883 m 635 1146 q 535 1055 635 1138 q 435 960 435 971 l 358 960 q 427 1055 358 971 q 496 1146 496 1139 l 635 1146 z "},"Ґ":{"ha":626,"x_min":60,"x_max":660,"o":"m 660 1065 q 646 920 656 1027 q 632 777 636 813 q 247 783 404 783 q 216 419 240 684 q 186 0 186 142 l 60 0 q 111 419 71 73 q 146 883 142 715 l 545 883 q 574 1065 556 941 l 660 1065 z "},"Ђ":{"ha":837,"x_min":66,"x_max":792,"o":"m 792 291 q 688 65 792 140 q 415 -11 585 -11 l 416 77 q 682 282 682 77 q 429 425 682 425 q 379 420 411 425 q 340 0 360 239 l 222 0 q 279 464 237 106 q 309 794 300 661 q 66 786 214 794 l 79 883 l 713 883 l 701 787 q 422 794 557 794 q 388 509 411 720 q 456 513 416 513 q 676 472 591 513 q 792 291 792 416 z "},"Є":{"ha":725,"x_min":47,"x_max":715,"o":"m 715 877 l 688 773 q 498 800 593 800 q 177 513 237 800 q 547 515 316 513 l 536 412 q 172 418 337 418 q 169 353 169 375 q 226 144 169 212 q 427 76 283 76 q 654 111 531 76 l 634 7 q 398 -18 519 -18 q 47 356 47 -18 q 170 750 47 606 q 529 895 292 895 q 715 877 631 895 z "},"Ѕ":{"ha":677,"x_min":21,"x_max":610,"o":"m 610 874 l 583 766 q 392 799 502 799 q 204 671 204 799 q 242 587 204 621 q 366 511 281 552 q 534 399 475 460 q 593 245 593 338 q 233 -22 593 -22 q 21 7 112 -22 l 55 113 q 243 74 146 74 q 486 217 486 74 q 441 318 486 277 q 304 405 397 359 q 150 508 200 454 q 100 646 100 562 q 185 833 100 770 q 401 895 269 895 q 610 874 555 895 z "},"Ѐ":{"ha":669,"x_min":60,"x_max":639,"o":"m 639 883 l 623 782 q 250 790 448 790 q 231 570 248 754 l 224 506 q 530 514 395 506 l 518 413 q 214 419 377 419 q 184 92 196 245 q 595 102 399 92 l 578 0 l 60 0 q 117 464 74 96 q 146 883 142 703 l 639 883 m 507 960 l 429 960 q 356 1055 429 971 q 281 1146 282 1138 l 413 1146 q 460 1055 413 1139 q 507 960 507 971 z "},"Ё":{"ha":669,"x_min":60,"x_max":639,"o":"m 639 883 l 623 782 q 250 790 448 790 q 231 570 248 754 l 224 506 q 530 514 395 506 l 518 413 q 214 419 377 419 q 184 92 196 245 q 595 102 399 92 l 578 0 l 60 0 q 117 464 74 96 q 146 883 142 703 l 639 883 m 628 1066 q 606 1005 628 1030 q 548 979 583 979 q 491 1039 491 979 q 515 1099 491 1074 q 574 1124 538 1124 q 628 1066 628 1124 m 385 1066 q 362 1005 385 1030 q 304 979 339 979 q 250 1038 250 979 q 273 1099 250 1074 q 331 1124 296 1124 q 385 1066 385 1124 z "},"І":{"ha":335,"x_min":60,"x_max":275,"o":"m 275 883 q 222 464 262 800 q 192 49 200 250 l 190 0 l 60 0 q 119 464 75 100 q 145 883 144 704 l 275 883 z "},"Ї":{"ha":335,"x_min":58,"x_max":437,"o":"m 275 883 q 222 464 262 800 q 192 49 200 250 l 190 0 l 60 0 q 119 464 75 100 q 145 883 144 704 l 275 883 m 437 1066 q 414 1005 437 1030 q 357 979 392 979 q 300 1039 300 979 q 323 1099 300 1074 q 382 1124 347 1124 q 437 1066 437 1124 m 194 1066 q 171 1005 194 1030 q 113 979 148 979 q 58 1038 58 979 q 81 1099 58 1074 q 140 1124 104 1124 q 194 1066 194 1124 z "},"Ј":{"ha":533,"x_min":-32,"x_max":490,"o":"m 490 883 q 427 378 475 792 q 302 56 403 149 q 79 -18 223 -18 q -32 -4 16 -18 l -12 95 q 75 73 32 73 q 223 113 174 73 q 321 363 302 177 q 359 883 354 670 l 490 883 z "},"Ѝ":{"ha":863,"x_min":60,"x_max":803,"o":"m 803 883 q 745 419 787 782 q 717 0 720 180 l 588 0 q 636 377 598 54 q 671 670 648 492 l 665 670 q 387 323 635 602 q 150 0 157 64 l 60 0 q 115 419 74 81 q 145 883 140 663 l 273 883 q 221 472 260 800 q 188 213 209 355 l 195 213 q 478 558 229 281 q 712 883 705 810 l 803 883 m 574 960 l 496 960 q 423 1055 496 971 q 348 1146 349 1138 l 480 1146 q 527 1055 480 1139 q 574 960 574 971 z "},"Ќ":{"ha":776,"x_min":60,"x_max":742,"o":"m 742 883 q 711 809 733 864 q 596 578 653 654 q 462 465 539 503 l 461 458 q 577 355 536 429 q 662 81 618 282 q 681 0 667 56 l 549 0 q 537 58 546 12 q 455 334 509 263 q 276 405 400 405 q 217 403 238 405 q 188 0 192 167 l 60 0 q 118 464 75 96 q 146 883 143 703 l 274 883 q 227 494 260 788 q 285 492 271 492 q 471 567 393 492 q 601 830 548 643 q 625 883 610 864 l 742 883 m 679 1146 q 579 1055 679 1138 q 479 960 479 971 l 401 960 q 471 1055 401 971 q 540 1146 540 1139 l 679 1146 z "},"Љ":{"ha":1123,"x_min":-7,"x_max":1078,"o":"m 968 282 q 716 425 968 425 q 665 420 698 425 q 637 90 646 239 q 707 84 666 84 q 898 131 827 84 q 968 282 968 177 m 1078 291 q 962 69 1078 142 q 669 -4 846 -4 q 513 0 619 -4 q 567 446 526 85 q 608 798 588 648 l 481 798 q 455 714 473 766 q 411 601 437 663 q 353 470 385 539 q 287 334 322 401 q 214 206 252 267 q 138 97 176 144 q 64 20 101 50 q -7 -12 27 -9 l 0 111 q 42 140 18 115 q 96 206 67 165 q 158 300 125 247 q 221 413 190 353 q 283 537 253 473 q 340 663 314 601 q 386 781 366 724 q 417 883 406 838 l 725 883 q 675 509 712 813 q 743 513 703 513 q 985 459 891 513 q 1078 291 1078 406 z "},"Њ":{"ha":1108,"x_min":60,"x_max":1063,"o":"m 1063 291 q 947 69 1063 142 q 662 -4 831 -4 q 494 0 604 -4 q 547 420 510 111 l 220 420 q 189 0 204 270 l 60 0 q 118 464 76 115 q 146 883 141 690 l 275 883 q 227 506 261 793 l 555 506 q 580 883 571 653 l 709 883 q 660 509 697 808 q 730 513 688 513 q 970 460 877 513 q 1063 291 1063 407 m 954 282 q 701 425 954 425 q 650 420 683 425 q 622 90 631 239 q 682 84 651 84 q 885 131 817 84 q 954 282 954 178 z "},"Ћ":{"ha":858,"x_min":66,"x_max":798,"o":"m 387 503 q 566 513 468 513 q 798 352 798 513 q 788 224 798 298 q 768 0 777 150 l 644 0 q 675 183 665 113 q 685 308 685 254 q 539 425 685 425 q 378 414 463 425 q 347 0 359 239 l 222 0 q 278 464 254 231 q 309 794 299 661 q 66 786 214 794 l 79 883 l 713 883 l 699 787 q 421 794 556 794 q 387 503 406 678 z "},"Ў":{"ha":729,"x_min":41,"x_max":753,"o":"m 753 883 q 631 610 749 844 q 424 232 514 376 q 257 35 333 89 q 41 -20 180 -20 l 45 76 q 211 118 154 83 q 326 248 267 153 q 200 589 326 309 q 76 883 75 870 l 210 883 q 302 630 208 863 q 397 368 397 397 l 404 368 q 548 652 468 489 q 635 883 628 815 l 753 883 m 715 1137 q 441 937 602 937 q 228 1133 252 937 l 334 1145 q 464 1008 359 1008 q 656 1172 563 1008 l 715 1137 z "},"Џ":{"ha":807,"x_min":60,"x_max":747,"o":"m 747 883 q 690 413 730 756 q 661 0 670 223 l 412 0 q 364 -281 393 -90 l 290 -281 q 304 0 299 -195 l 60 0 q 111 413 74 100 q 146 883 132 618 l 271 883 q 217 437 258 798 l 181 92 l 553 92 l 588 426 q 623 883 617 704 l 747 883 z "},"Ѣ":{"ha":865,"x_min":43,"x_max":806,"o":"m 806 302 q 690 74 806 153 q 391 -4 574 -4 q 213 0 334 -4 q 272 464 228 96 q 295 713 283 566 q 43 705 190 711 l 57 802 l 301 802 q 317 967 315 932 l 439 967 q 418 802 437 951 l 709 802 l 696 706 q 408 713 602 709 q 382 513 399 659 q 467 515 422 515 q 720 466 635 515 q 806 302 806 416 m 695 279 q 431 425 695 425 q 372 420 397 425 q 340 97 353 239 q 431 91 367 91 q 625 136 554 91 q 695 279 695 180 m 365 883 z "},"Ѳ":{"ha":894,"x_min":47,"x_max":846,"o":"m 846 507 q 719 138 846 302 q 389 -26 591 -26 q 151 80 254 -26 q 47 367 47 186 q 175 737 47 573 q 505 901 302 901 q 743 794 640 901 q 846 507 846 688 m 728 417 l 159 417 q 157 375 157 399 q 234 150 157 230 q 418 70 310 70 q 613 165 522 70 q 728 417 705 261 m 734 503 q 656 730 732 652 q 477 808 581 808 q 292 727 378 808 q 173 503 205 646 l 734 503 z "},"Ѵ":{"ha":770,"x_min":50,"x_max":785,"o":"m 785 908 l 778 786 q 735 756 760 782 q 681 690 710 731 q 620 596 652 650 q 556 483 587 543 q 494 359 524 423 q 437 234 463 296 q 388 109 412 172 q 359 0 363 45 l 260 0 q 155 439 259 52 q 50 883 50 825 l 172 883 q 248 506 172 830 q 323 136 323 182 l 330 136 q 351 222 333 167 q 391 336 368 278 q 441 459 413 395 q 503 586 470 524 q 571 706 536 648 q 642 807 606 763 q 714 878 679 851 q 785 908 750 905 z "},"а":{"ha":665,"x_min":37,"x_max":606,"o":"m 606 675 q 545 174 545 330 q 557 7 545 102 l 442 -10 q 438 141 438 50 l 432 141 q 205 -16 346 -16 q 80 50 123 -16 q 37 220 37 115 q 155 515 37 390 q 496 644 274 641 l 526 665 l 606 675 m 483 567 q 232 473 311 564 q 153 233 153 382 q 256 79 153 79 q 388 182 328 79 q 463 369 448 286 q 483 567 477 453 z "},"б":{"ha":747,"x_min":65,"x_max":719,"o":"m 719 964 l 701 853 q 527 830 664 848 q 348 791 397 812 q 239 691 278 762 q 172 460 201 619 l 177 460 q 467 634 283 634 q 627 563 564 634 q 689 372 689 492 q 585 86 689 198 q 319 -26 481 -26 q 128 60 191 -26 q 65 270 65 147 q 130 650 65 480 q 279 865 195 821 q 551 939 378 916 q 719 964 640 950 m 579 350 q 539 487 579 433 q 426 541 498 541 q 249 454 319 541 q 179 261 179 368 q 221 120 179 181 q 335 59 262 59 q 517 146 454 59 q 579 350 579 234 m 458 650 z "},"в":{"ha":674,"x_min":58,"x_max":616,"o":"m 616 523 q 581 424 616 465 q 492 364 546 382 l 492 357 q 607 214 607 321 q 517 41 607 101 q 296 -18 428 -18 q 58 189 58 -18 q 412 674 58 674 q 616 523 616 674 m 498 205 q 310 315 498 315 q 170 301 248 315 q 163 215 163 276 q 328 60 163 60 q 451 96 404 60 q 498 205 498 132 m 511 513 q 391 595 511 595 q 179 382 214 595 q 449 420 386 387 q 511 513 511 453 z "},"г":{"ha":534,"x_min":35,"x_max":498,"o":"m 498 525 q 444 405 498 457 q 284 305 397 361 q 177 237 205 266 q 146 157 146 205 q 255 72 146 72 q 456 134 344 72 l 439 34 q 246 -16 369 -16 q 96 26 157 -16 q 35 144 35 69 q 96 286 35 231 q 247 377 135 323 q 354 441 328 416 q 385 513 385 469 q 262 578 385 578 q 95 528 178 578 l 112 628 q 271 666 194 666 q 498 525 498 666 z "},"д":{"ha":745,"x_min":58,"x_max":673,"o":"m 673 514 q 581 129 673 283 q 312 -26 488 -26 q 121 52 184 -26 q 58 250 58 130 q 143 514 58 396 q 368 632 228 632 q 559 576 494 632 l 566 576 q 489 803 556 742 q 284 864 422 864 q 189 846 236 864 l 201 941 q 311 961 260 961 q 673 514 673 961 m 567 496 q 369 550 482 550 q 221 465 273 550 q 169 262 169 379 q 207 118 169 178 q 321 59 245 59 q 507 187 446 59 q 567 496 567 315 m 349 650 z "},"е":{"ha":661,"x_min":58,"x_max":624,"o":"m 624 516 q 539 377 624 425 q 172 311 431 316 q 214 134 172 189 q 357 79 256 79 q 571 148 455 79 l 554 47 q 328 -18 463 -18 q 124 65 189 -18 q 58 275 58 148 q 168 569 58 463 q 420 674 277 674 q 566 632 507 674 q 624 516 624 590 m 516 513 q 483 569 516 549 q 397 588 450 588 q 260 539 323 588 q 178 389 197 490 q 463 433 386 393 q 516 513 516 460 z "},"ж":{"ha":1148,"x_min":22,"x_max":1126,"o":"m 1126 654 l 1099 555 q 1048 567 1072 567 q 932 504 977 567 q 879 288 879 429 q 979 84 879 84 q 1093 117 1034 84 l 1076 23 q 950 -13 1025 -13 q 826 51 869 -13 q 783 223 783 115 q 822 404 783 331 l 818 408 l 704 264 q 600 96 607 141 q 595 0 595 66 l 482 -7 q 506 149 482 7 q 543 404 534 311 l 536 404 q 279 96 513 340 q 198 15 252 43 q 93 -13 144 -13 q 22 -1 48 -13 l 50 99 q 100 87 77 87 q 216 150 172 87 q 269 366 269 224 q 169 570 269 570 q 55 537 119 570 l 72 631 q 198 667 123 667 q 322 603 279 667 q 365 431 365 538 q 326 241 365 323 l 330 237 l 444 381 q 549 548 541 504 q 553 644 553 578 l 666 651 q 642 495 666 637 q 605 241 614 333 l 612 241 q 869 557 641 319 q 952 638 899 609 q 1055 667 1005 667 q 1126 654 1100 667 z "},"з":{"ha":584,"x_min":22,"x_max":526,"o":"m 526 520 q 410 356 526 404 l 409 349 q 514 201 514 311 q 432 39 514 96 q 227 -18 351 -18 q 22 30 111 -18 l 42 121 q 235 67 132 67 q 411 193 411 67 q 228 292 411 292 q 124 288 170 292 l 144 377 q 233 373 193 373 q 364 403 305 373 q 422 495 422 433 q 282 575 422 575 q 94 524 193 575 l 111 619 q 305 667 182 667 q 462 629 398 667 q 526 520 526 592 z "},"и":{"ha":726,"x_min":81,"x_max":661,"o":"m 661 658 q 614 157 614 281 q 625 4 614 86 l 510 -13 q 506 145 506 47 l 500 145 q 258 -20 412 -20 q 81 182 81 -20 q 96 399 81 235 q 111 644 111 564 l 229 658 q 208 464 229 629 q 186 215 186 298 q 215 105 186 136 q 306 74 244 74 q 448 171 380 74 q 528 384 516 268 q 544 644 544 549 l 661 658 z "},"й":{"ha":726,"x_min":81,"x_max":672,"o":"m 661 658 q 614 157 614 281 q 625 4 614 86 l 510 -13 q 506 145 506 47 l 500 145 q 258 -20 412 -20 q 81 182 81 -20 q 96 399 81 235 q 111 644 111 564 l 229 658 q 208 464 229 629 q 186 215 186 298 q 215 105 186 136 q 306 74 244 74 q 448 171 380 74 q 528 384 516 268 q 544 644 544 549 l 661 658 m 672 939 q 399 739 559 739 q 185 935 210 739 l 291 947 q 421 810 316 810 q 614 974 520 810 l 672 939 z "},"к":{"ha":676,"x_min":65,"x_max":666,"o":"m 666 647 q 571 528 666 624 q 422 391 475 431 l 422 385 q 549 169 493 298 q 605 0 605 39 l 482 -7 q 447 125 482 22 q 350 317 411 227 q 242 185 296 269 q 180 0 187 101 l 65 -7 q 107 310 76 58 q 121 559 121 446 q 119 639 121 608 l 243 658 q 227 490 243 621 q 196 224 210 358 l 203 224 q 381 454 230 289 q 533 651 533 619 l 666 647 z "},"л":{"ha":681,"x_min":-8,"x_max":616,"o":"m 616 657 q 571 310 605 594 q 547 0 553 135 l 435 -7 q 450 101 435 9 q 477 310 468 216 q 498 559 492 448 l 452 559 q 366 529 399 559 q 226 251 332 498 q -8 -12 120 5 l -3 97 q 171 345 81 146 q 308 594 261 544 q 459 644 355 644 l 528 644 l 616 657 z "},"м":{"ha":919,"x_min":-8,"x_max":838,"o":"m 838 651 q 806 0 806 348 l 698 -7 q 712 270 698 73 q 739 545 727 467 l 730 545 q 598 271 716 505 q 476 7 479 37 l 381 -7 q 343 315 381 111 q 303 545 304 519 l 295 545 q 190 190 271 374 q -8 -12 109 7 l -3 97 q 168 372 102 168 q 233 637 233 576 l 378 651 q 417 416 378 620 q 456 129 456 212 l 463 129 q 572 381 469 182 q 682 637 675 580 l 838 651 z "},"н":{"ha":707,"x_min":65,"x_max":640,"o":"m 640 657 q 614 357 640 601 q 587 0 591 135 l 472 -7 q 489 121 472 16 q 515 326 507 226 l 508 326 q 462 292 504 292 q 361 295 442 292 q 264 298 280 298 q 207 257 219 298 q 179 0 193 211 l 65 -7 q 106 310 76 58 q 121 559 121 446 q 119 642 121 608 l 233 657 q 209 358 233 625 l 216 358 q 266 392 223 392 q 364 389 283 392 q 464 385 444 385 q 527 450 516 385 q 530 559 528 459 q 526 642 530 607 l 640 657 z "},"о":{"ha":736,"x_min":58,"x_max":677,"o":"m 677 378 q 579 94 677 215 q 319 -26 480 -26 q 135 59 212 -26 q 58 281 58 145 q 157 558 58 442 q 418 674 255 674 q 602 594 526 674 q 677 378 677 514 m 562 359 q 519 521 562 454 q 395 589 476 589 q 233 494 294 589 q 173 289 173 399 q 217 126 173 194 q 342 59 260 59 q 502 154 442 59 q 562 359 562 248 z "},"п":{"ha":726,"x_min":65,"x_max":646,"o":"m 646 464 q 630 245 646 410 q 615 0 615 81 l 500 -7 q 520 185 500 23 q 540 431 540 347 q 511 541 540 510 q 420 572 482 572 q 278 475 347 572 q 199 262 210 378 q 176 0 184 110 l 65 -7 q 113 468 113 345 q 102 642 113 539 l 216 659 q 220 500 220 599 l 226 500 q 469 665 314 665 q 646 464 646 665 z "},"р":{"ha":745,"x_min":27,"x_max":687,"o":"m 687 404 q 593 101 687 220 q 341 -18 500 -18 q 183 26 233 -18 l 178 26 q 148 -303 158 -162 l 27 -310 q 113 488 113 315 q 102 642 113 553 l 216 659 q 220 500 220 602 l 226 500 q 471 665 315 665 q 627 594 568 665 q 687 404 687 524 m 571 363 q 424 572 571 572 q 280 479 351 572 q 199 262 210 386 l 185 108 q 313 68 251 68 q 507 150 442 68 q 571 363 571 232 z "},"с":{"ha":586,"x_min":58,"x_max":559,"o":"m 559 649 l 531 543 q 396 564 466 564 q 233 485 294 564 q 172 298 172 406 q 215 139 172 200 q 342 79 258 79 q 529 141 431 79 l 512 41 q 319 -18 442 -18 q 120 74 189 -18 q 58 283 58 155 q 160 549 58 439 q 435 660 261 660 q 559 649 512 660 z "},"т":{"ha":1072,"x_min":65,"x_max":991,"o":"m 65 -7 q 113 468 113 342 q 102 642 113 539 l 216 659 q 220 500 220 608 l 226 500 q 461 665 323 665 q 604 500 604 665 l 610 500 q 844 665 707 665 q 960 616 928 665 q 991 472 991 568 q 977 245 991 406 q 962 0 962 83 l 844 -7 q 864 186 844 21 q 884 410 884 352 q 864 537 884 503 q 803 572 843 572 q 660 470 724 572 q 585 262 595 369 q 570 0 570 117 l 453 -7 q 476 191 453 22 q 498 410 498 360 q 477 538 498 504 q 417 572 456 572 q 275 471 340 572 q 199 262 210 370 q 176 0 182 96 l 65 -7 z "},"у":{"ha":629,"x_min":-1,"x_max":614,"o":"m 614 652 q 474 310 614 565 q 311 -8 333 55 q 197 -233 250 -179 q -1 -300 134 -300 l 3 -205 q 159 -139 90 -205 q 228 12 228 -73 q 143 349 228 115 q 58 644 58 583 l 191 652 q 244 370 191 568 q 298 116 298 172 l 305 116 q 403 357 309 151 q 497 644 497 562 l 614 652 z "},"ф":{"ha":972,"x_min":58,"x_max":913,"o":"m 913 416 q 797 116 913 229 q 512 -6 681 3 q 454 -216 496 -144 q 309 -312 405 -298 l 282 -259 q 369 -163 343 -215 q 418 68 408 -87 l 412 68 q 243 -6 359 -6 q 106 64 153 -6 q 58 250 58 134 q 174 550 58 437 q 460 672 290 663 q 663 951 488 930 l 690 899 q 597 820 623 870 q 555 598 568 760 l 560 598 q 728 672 612 672 q 866 602 819 672 q 913 416 913 532 m 804 410 q 771 533 804 488 q 690 578 739 578 q 588 544 626 578 q 545 456 549 509 q 516 73 539 395 q 726 163 649 78 q 804 410 804 248 m 456 593 q 245 503 323 588 q 168 256 168 418 q 200 133 168 178 q 281 87 233 87 q 384 122 346 87 q 427 210 422 157 q 456 593 433 271 z "},"х":{"ha":687,"x_min":15,"x_max":648,"o":"m 648 652 q 556 516 648 623 q 404 352 465 409 l 404 345 q 529 149 450 281 q 609 0 609 16 l 469 -7 q 415 117 469 11 q 327 280 362 222 l 323 280 q 218 126 285 233 q 151 0 151 20 l 15 -7 q 113 144 15 26 q 292 342 211 261 l 292 347 q 183 513 256 395 q 110 644 110 631 l 249 652 q 292 542 249 635 q 362 405 334 448 l 368 405 q 461 536 404 445 q 519 644 519 627 l 648 652 z "},"ц":{"ha":736,"x_min":81,"x_max":705,"o":"m 705 100 q 658 -69 684 35 q 627 -278 631 -174 l 524 -285 q 604 0 533 -165 l 604 7 q 556 0 576 0 q 497 33 515 0 q 479 145 479 65 l 473 145 q 244 -20 399 -20 q 116 31 152 -20 q 81 175 81 81 q 96 399 81 235 q 111 644 111 564 l 229 658 q 208 464 229 629 q 186 215 186 298 q 210 104 186 134 q 292 74 233 74 q 426 169 365 74 q 500 384 487 264 q 517 644 517 526 l 634 658 q 585 178 585 301 q 633 92 585 92 q 705 100 670 92 z "},"ч":{"ha":658,"x_min":65,"x_max":593,"o":"m 593 659 q 549 310 583 594 q 525 0 530 135 l 410 -7 q 425 96 410 5 q 460 360 445 217 l 455 360 q 223 216 364 216 q 65 400 65 216 q 76 644 65 467 l 193 658 q 181 558 193 642 q 168 431 168 475 q 188 337 168 364 q 250 310 207 310 q 405 388 346 310 q 471 551 464 467 q 472 637 473 597 l 593 659 z "},"ш":{"ha":1070,"x_min":81,"x_max":1005,"o":"m 1005 658 q 956 178 956 303 q 962 4 956 106 l 856 -13 q 852 145 852 37 l 846 145 q 611 -20 749 -20 q 469 145 469 -20 l 463 145 q 228 -20 365 -20 q 112 29 144 -20 q 81 174 81 78 q 95 401 81 239 q 110 639 110 562 l 228 658 q 206 459 228 625 q 184 235 184 294 q 205 109 184 143 q 269 74 226 74 q 412 175 348 74 q 488 384 477 277 q 502 644 502 529 l 619 659 q 595 454 619 623 q 570 235 570 286 q 591 108 570 142 q 655 74 612 74 q 798 175 732 74 q 873 384 863 275 q 890 644 890 550 l 1005 658 z "},"щ":{"ha":1109,"x_min":81,"x_max":1078,"o":"m 1078 100 q 1031 -69 1057 35 q 1000 -278 1004 -174 l 897 -285 q 977 0 906 -165 l 977 7 q 929 0 949 0 q 870 33 888 0 q 852 145 852 65 l 846 145 q 611 -20 749 -20 q 469 145 469 -20 l 463 145 q 228 -20 365 -20 q 112 29 144 -20 q 81 174 81 78 q 95 401 81 239 q 110 639 110 562 l 228 658 q 206 459 228 625 q 184 235 184 294 q 205 109 184 143 q 269 74 226 74 q 412 175 348 74 q 488 384 477 277 q 497 644 497 481 l 619 658 q 595 454 619 623 q 570 235 570 286 q 591 108 570 142 q 655 74 612 74 q 798 176 732 74 q 873 384 863 278 q 890 644 890 550 l 1005 658 q 957 178 957 303 q 1006 92 957 92 q 1078 100 1043 92 z "},"ъ":{"ha":720,"x_min":15,"x_max":680,"o":"m 680 220 q 588 45 680 109 q 393 -18 496 -18 q 247 24 304 -18 q 189 155 189 66 q 226 361 189 241 q 311 557 263 482 l 311 564 q 15 545 143 545 l 29 643 q 429 657 201 643 q 392 537 429 622 q 338 400 355 452 l 345 400 q 436 419 391 419 q 680 220 680 419 m 577 212 q 392 338 577 338 q 314 328 353 338 q 292 188 292 264 q 420 67 292 67 q 526 105 475 67 q 577 212 577 142 z "},"ы":{"ha":862,"x_min":81,"x_max":797,"o":"m 572 220 q 481 47 572 113 q 285 -18 390 -18 q 138 24 196 -18 q 81 155 81 66 q 96 386 81 208 q 111 644 111 564 l 233 658 q 199 400 222 594 l 205 400 q 304 420 256 420 q 501 374 431 420 q 572 220 572 328 m 797 657 q 783 515 797 624 q 759 310 769 406 q 736 0 741 135 l 622 -7 q 664 310 633 58 q 677 559 677 439 q 675 639 677 608 l 797 657 m 469 212 q 283 338 469 338 q 192 328 244 338 q 183 188 183 264 q 311 67 183 67 q 419 105 370 67 q 469 212 469 144 z "},"ь":{"ha":633,"x_min":81,"x_max":593,"o":"m 593 220 q 503 45 593 108 q 285 -18 413 -18 q 138 24 196 -18 q 81 155 81 66 q 96 386 81 208 q 111 644 111 564 l 233 658 q 199 400 222 594 l 205 400 q 326 420 268 420 q 525 373 456 420 q 593 220 593 327 m 490 212 q 305 338 490 338 q 192 328 254 338 q 183 188 183 264 q 318 67 183 67 q 439 104 389 67 q 490 212 490 140 z "},"э":{"ha":624,"x_min":16,"x_max":566,"o":"m 566 389 q 471 97 566 213 q 200 -18 376 -18 q 16 23 98 -18 l 39 125 q 235 73 117 73 q 384 135 326 73 q 454 289 442 197 q 157 283 313 289 l 172 385 q 463 378 324 378 q 274 571 454 571 q 77 505 185 571 l 94 606 q 293 667 184 667 q 566 389 566 667 z "},"ю":{"ha":1000,"x_min":65,"x_max":942,"o":"m 942 382 q 848 96 942 218 q 595 -26 753 -26 q 351 298 351 -26 l 202 298 q 180 0 184 129 l 65 -7 q 107 310 76 58 q 121 559 121 446 q 119 639 121 608 l 237 657 q 211 385 234 598 l 366 385 q 494 599 401 524 q 696 674 586 674 q 872 596 802 674 q 942 382 942 517 m 831 365 q 791 524 831 459 q 672 589 751 589 q 515 494 571 589 q 460 283 460 399 q 499 124 460 189 q 619 59 539 59 q 775 155 719 59 q 831 365 831 252 z "},"я":{"ha":675,"x_min":-8,"x_max":602,"o":"m 602 507 q 578 281 602 453 q 555 0 555 109 l 441 -7 q 455 137 441 31 q 476 286 469 243 q 313 272 396 272 q -8 -12 159 -4 l -3 97 q 225 288 87 104 l 225 294 q 87 471 87 340 q 163 623 87 570 q 396 675 240 675 q 602 507 602 675 m 501 473 q 472 564 501 538 q 370 591 443 591 q 224 558 259 591 q 190 479 190 526 q 348 353 190 353 q 485 367 420 353 q 501 473 501 420 z "},"ѓ":{"ha":534,"x_min":35,"x_max":556,"o":"m 498 525 q 444 405 498 457 q 284 305 397 361 q 177 237 205 266 q 146 157 146 205 q 255 72 146 72 q 456 134 344 72 l 439 34 q 246 -16 369 -16 q 96 26 157 -16 q 35 144 35 69 q 96 286 35 231 q 247 377 135 323 q 354 441 328 416 q 385 513 385 469 q 262 578 385 578 q 95 528 178 578 l 112 628 q 271 666 194 666 q 498 525 498 666 m 556 956 q 456 848 556 948 q 356 736 356 747 l 279 736 q 348 848 279 747 q 417 956 417 949 l 556 956 z "},"ґ":{"ha":551,"x_min":65,"x_max":577,"o":"m 577 833 q 549 544 577 808 q 225 556 401 556 q 202 310 220 490 q 179 0 184 135 l 65 -7 q 106 310 76 58 q 132 644 127 509 l 462 644 q 497 833 497 785 l 577 833 z "}}}
